Rajdhani_0.ufo
<glyph name="exclam" format="1">
  <advance width="237"/>
  <unicode hex="0021"/>
  <outline>
    <contour>
      <point x="135" y="128" type="line" smooth="yes"/>
      <point x="135" y="135"/>
      <point x="132" y="137"/>
      <point x="127" y="137" type="curve" smooth="yes"/>
      <point x="110" y="137" type="line" smooth="yes"/>
      <point x="105" y="137"/>
      <point x="102" y="135"/>
      <point x="102" y="128" type="curve" smooth="yes"/>
      <point x="102" y="9" type="line" smooth="yes"/>
      <point x="102" y="2"/>
      <point x="105" y="0"/>
      <point x="110" y="0" type="curve" smooth="yes"/>
      <point x="127" y="0" type="line" smooth="yes"/>
      <point x="132" y="0"/>
      <point x="135" y="2"/>
      <point x="135" y="9" type="curve" smooth="yes"/>
    </contour>
    <contour>
      <point x="109" y="214" type="curve" smooth="yes"/>
      <point x="110" y="208"/>
      <point x="111" y="203"/>
      <point x="116" y="203" type="curve" smooth="yes"/>
      <point x="120" y="203" type="line" smooth="yes"/>
      <point x="125" y="203"/>
      <point x="126" y="208"/>
      <point x="127" y="214" type="curve" smooth="yes"/>
      <point x="130" y="236"/>
      <point x="137" y="421"/>
      <point x="137" y="550" type="curve" smooth="yes"/>
      <point x="137" y="634" type="line" smooth="yes"/>
      <point x="137" y="641"/>
      <point x="134" y="643"/>
      <point x="129" y="643" type="curve" smooth="yes"/>
      <point x="108" y="643" type="line" smooth="yes"/>
      <point x="103" y="643"/>
      <point x="100" y="641"/>
      <point x="100" y="634" type="curve" smooth="yes"/>
      <point x="100" y="550" type="line" smooth="yes"/>
      <point x="100" y="421"/>
      <point x="106" y="236"/>
    </contour>
  </outline>
</glyph>
<glyph name="numbersign" format="1">
  <advance width="679"/>
  <unicode hex="0023"/>
  <outline>
    <contour>
      <point x="323" y="628" type="line" smooth="yes"/>
      <point x="326" y="638"/>
      <point x="324" y="643"/>
      <point x="316" y="643" type="curve" smooth="yes"/>
      <point x="308" y="643" type="line" smooth="yes"/>
      <point x="300" y="643"/>
      <point x="297" y="639"/>
      <point x="295" y="632" type="curve" smooth="yes"/>
      <point x="117" y="15" type="line" smooth="yes"/>
      <point x="114" y="5"/>
      <point x="115" y="0"/>
      <point x="122" y="0" type="curve" smooth="yes"/>
      <point x="133" y="0" type="line" smooth="yes"/>
      <point x="140" y="0"/>
      <point x="143" y="4"/>
      <point x="145" y="11" type="curve" smooth="yes"/>
    </contour>
    <contour>
      <point x="619" y="462" type="line" smooth="yes"/>
      <point x="619" y="467"/>
      <point x="617" y="470"/>
      <point x="610" y="470" type="curve" smooth="yes"/>
      <point x="140" y="470" type="line" smooth="yes"/>
      <point x="133" y="470"/>
      <point x="131" y="467"/>
      <point x="131" y="462" type="curve" smooth="yes"/>
      <point x="131" y="450" type="line" smooth="yes"/>
      <point x="131" y="445"/>
      <point x="133" y="442"/>
      <point x="140" y="442" type="curve" smooth="yes"/>
      <point x="297" y="442"/>
      <point x="453" y="442"/>
      <point x="610" y="442" type="curve" smooth="yes"/>
      <point x="617" y="442"/>
      <point x="619" y="445"/>
      <point x="619" y="450" type="curve" smooth="yes"/>
    </contour>
    <contour>
      <point x="356" y="15" type="line" smooth="yes"/>
      <point x="353" y="5"/>
      <point x="354" y="0"/>
      <point x="361" y="0" type="curve" smooth="yes"/>
      <point x="372" y="0" type="line" smooth="yes"/>
      <point x="379" y="0"/>
      <point x="382" y="4"/>
      <point x="384" y="11" type="curve" smooth="yes"/>
      <point x="562" y="628" type="line" smooth="yes"/>
      <point x="565" y="638"/>
      <point x="563" y="643"/>
      <point x="555" y="643" type="curve" smooth="yes"/>
      <point x="547" y="643" type="line" smooth="yes"/>
      <point x="539" y="643"/>
      <point x="536" y="639"/>
      <point x="534" y="632" type="curve" smooth="yes"/>
    </contour>
    <contour>
      <point x="539" y="173" type="line" smooth="yes"/>
      <point x="546" y="173"/>
      <point x="548" y="176"/>
      <point x="548" y="181" type="curve" smooth="yes"/>
      <point x="548" y="193" type="line" smooth="yes"/>
      <point x="548" y="198"/>
      <point x="546" y="201"/>
      <point x="539" y="201" type="curve" smooth="yes"/>
      <point x="382" y="201"/>
      <point x="226" y="201"/>
      <point x="69" y="201" type="curve" smooth="yes"/>
      <point x="62" y="201"/>
      <point x="60" y="198"/>
      <point x="60" y="193" type="curve" smooth="yes"/>
      <point x="60" y="181" type="line" smooth="yes"/>
      <point x="60" y="176"/>
      <point x="62" y="173"/>
      <point x="69" y="173" type="curve" smooth="yes"/>
    </contour>
  </outline>
</glyph>
<glyph name="dollar" format="1">
  <advance width="498"/>
  <unicode hex="0024"/>
  <outline>
    <contour>
      <point x="270" y="-98" type="line" smooth="yes"/>
      <point x="275" y="-98"/>
      <point x="278" y="-96"/>
      <point x="278" y="-89" type="curve" smooth="yes"/>
      <point x="278" y="0" type="line"/>
      <point x="289" y="0" type="line" smooth="yes"/>
      <point x="370" y="0"/>
      <point x="423" y="53"/>
      <point x="423" y="136" type="curve" smooth="yes"/>
      <point x="423" y="210" type="line" smooth="yes"/>
      <point x="423" y="308"/>
      <point x="367" y="339"/>
      <point x="290" y="339" type="curve" smooth="yes"/>
      <point x="209" y="339" type="line" smooth="yes"/>
      <point x="139" y="339"/>
      <point x="105" y="363"/>
      <point x="105" y="440" type="curve" smooth="yes"/>
      <point x="105" y="508" type="line" smooth="yes"/>
      <point x="105" y="576"/>
      <point x="142" y="617"/>
      <point x="209" y="617" type="curve" smooth="yes"/>
      <point x="289" y="617" type="line" smooth="yes"/>
      <point x="356" y="617"/>
      <point x="393" y="576"/>
      <point x="393" y="508" type="curve" smooth="yes"/>
      <point x="393" y="479" type="line" smooth="yes"/>
      <point x="393" y="472"/>
      <point x="396" y="470"/>
      <point x="401" y="470" type="curve" smooth="yes"/>
      <point x="415" y="470" type="line" smooth="yes"/>
      <point x="420" y="470"/>
      <point x="423" y="472"/>
      <point x="423" y="479" type="curve" smooth="yes"/>
      <point x="423" y="509" type="line" smooth="yes"/>
      <point x="423" y="592"/>
      <point x="370" y="645"/>
      <point x="289" y="645" type="curve" smooth="yes"/>
      <point x="278" y="645" type="line"/>
      <point x="278" y="734" type="line" smooth="yes"/>
      <point x="278" y="741"/>
      <point x="275" y="743"/>
      <point x="270" y="743" type="curve" smooth="yes"/>
      <point x="256" y="743" type="line" smooth="yes"/>
      <point x="251" y="743"/>
      <point x="248" y="741"/>
      <point x="248" y="734" type="curve" smooth="yes"/>
      <point x="248" y="645" type="line"/>
      <point x="209" y="645" type="line" smooth="yes"/>
      <point x="128" y="645"/>
      <point x="75" y="592"/>
      <point x="75" y="509" type="curve" smooth="yes"/>
      <point x="75" y="440" type="line" smooth="yes"/>
      <point x="75" y="340"/>
      <point x="133" y="312"/>
      <point x="215" y="312" type="curve" smooth="yes"/>
      <point x="287" y="312" type="line" smooth="yes"/>
      <point x="355" y="312"/>
      <point x="393" y="287"/>
      <point x="393" y="208" type="curve" smooth="yes"/>
      <point x="393" y="137" type="line" smooth="yes"/>
      <point x="393" y="69"/>
      <point x="356" y="28"/>
      <point x="289" y="28" type="curve" smooth="yes"/>
      <point x="209" y="28" type="line" smooth="yes"/>
      <point x="142" y="28"/>
      <point x="105" y="69"/>
      <point x="105" y="137" type="curve" smooth="yes"/>
      <point x="105" y="170" type="line" smooth="yes"/>
      <point x="105" y="177"/>
      <point x="102" y="179"/>
      <point x="97" y="179" type="curve" smooth="yes"/>
      <point x="83" y="179" type="line" smooth="yes"/>
      <point x="78" y="179"/>
      <point x="75" y="177"/>
      <point x="75" y="170" type="curve" smooth="yes"/>
      <point x="75" y="136" type="line" smooth="yes"/>
      <point x="75" y="53"/>
      <point x="128" y="0"/>
      <point x="209" y="0" type="curve" smooth="yes"/>
      <point x="248" y="0" type="line"/>
      <point x="248" y="-89" type="line" smooth="yes"/>
      <point x="248" y="-96"/>
      <point x="251" y="-98"/>
      <point x="256" y="-98" type="curve" smooth="yes"/>
    </contour>
  </outline>
</glyph>
<glyph name="parenright" format="1">
  <advance width="277"/>
  <unicode hex="0029"/>
  <outline>
    <contour>
      <point x="60" y="-94" type="line"/>
      <point x="60" y="-99"/>
      <point x="62" y="-102"/>
      <point x="69" y="-102" type="curve" smooth="yes"/>
      <point x="70" y="-102"/>
      <point x="72" y="-102"/>
      <point x="73" y="-102" type="curve" smooth="yes"/>
      <point x="154" y="-102"/>
      <point x="207" y="-49"/>
      <point x="207" y="34" type="curve" smooth="yes"/>
      <point x="207" y="507" type="line" smooth="yes"/>
      <point x="207" y="590"/>
      <point x="154" y="643"/>
      <point x="73" y="643" type="curve" smooth="yes"/>
      <point x="72" y="643"/>
      <point x="70" y="643"/>
      <point x="69" y="643" type="curve" smooth="yes"/>
      <point x="62" y="643"/>
      <point x="60" y="640"/>
      <point x="60" y="635" type="curve" smooth="yes"/>
      <point x="60" y="623" type="line" smooth="yes"/>
      <point x="60" y="618"/>
      <point x="62" y="615"/>
      <point x="69" y="615" type="curve" smooth="yes"/>
      <point x="70" y="615"/>
      <point x="72" y="615"/>
      <point x="73" y="615" type="curve" smooth="yes"/>
      <point x="140" y="615"/>
      <point x="177" y="574"/>
      <point x="177" y="506" type="curve" smooth="yes"/>
      <point x="177" y="35" type="line" smooth="yes"/>
      <point x="177" y="-33"/>
      <point x="140" y="-74"/>
      <point x="73" y="-74" type="curve" smooth="yes"/>
      <point x="72" y="-74"/>
      <point x="70" y="-74"/>
      <point x="69" y="-74" type="curve" smooth="yes"/>
      <point x="62" y="-74"/>
      <point x="60" y="-77"/>
      <point x="60" y="-82" type="curve" smooth="yes"/>
    </contour>
  </outline>
</glyph>
<glyph name="asterisk" format="1">
  <advance width="408"/>
  <unicode hex="002A"/>
  <outline>
    <contour>
      <point x="220" y="634" type="line"/>
      <point x="220" y="641"/>
      <point x="217" y="643"/>
      <point x="212" y="643" type="curve" smooth="yes"/>
      <point x="197" y="643" type="line" smooth="yes"/>
      <point x="192" y="643"/>
      <point x="189" y="641"/>
      <point x="189" y="634" type="curve" smooth="yes"/>
      <point x="189" y="617" type="line" smooth="yes"/>
      <point x="189" y="569"/>
      <point x="199" y="525"/>
      <point x="204" y="511" type="curve"/>
      <point x="211" y="525"/>
      <point x="220" y="569"/>
      <point x="220" y="617" type="curve" smooth="yes"/>
    </contour>
    <contour>
      <point x="119" y="421" type="line"/>
      <point x="115" y="415"/>
      <point x="116" y="411"/>
      <point x="120" y="409" type="curve" smooth="yes"/>
      <point x="132" y="400" type="line" smooth="yes"/>
      <point x="137" y="397"/>
      <point x="140" y="397"/>
      <point x="143" y="402" type="curve" smooth="yes"/>
      <point x="154" y="417" type="line" smooth="yes"/>
      <point x="182" y="455"/>
      <point x="199" y="497"/>
      <point x="204" y="511" type="curve"/>
      <point x="190" y="504"/>
      <point x="157" y="474"/>
      <point x="129" y="435" type="curve" smooth="yes"/>
    </contour>
    <contour>
      <point x="92" y="564" type="line"/>
      <point x="85" y="566"/>
      <point x="82" y="564"/>
      <point x="81" y="559" type="curve" smooth="yes"/>
      <point x="76" y="545" type="line" smooth="yes"/>
      <point x="74" y="540"/>
      <point x="76" y="537"/>
      <point x="82" y="535" type="curve" smooth="yes"/>
      <point x="99" y="529" type="line" smooth="yes"/>
      <point x="144" y="515"/>
      <point x="189" y="511"/>
      <point x="204" y="511" type="curve"/>
      <point x="193" y="522"/>
      <point x="154" y="544"/>
      <point x="108" y="559" type="curve" smooth="yes"/>
    </contour>
    <contour>
      <point x="326" y="533" type="line"/>
      <point x="333" y="535"/>
      <point x="334" y="540"/>
      <point x="332" y="544" type="curve"/>
      <point x="328" y="558" type="line" smooth="yes"/>
      <point x="326" y="564"/>
      <point x="324" y="565"/>
      <point x="318" y="563" type="curve" smooth="yes"/>
      <point x="300" y="558" type="line" smooth="yes"/>
      <point x="254" y="543"/>
      <point x="216" y="520"/>
      <point x="204" y="511" type="curve"/>
      <point x="219" y="508"/>
      <point x="264" y="514"/>
      <point x="309" y="528" type="curve" smooth="yes"/>
    </contour>
    <contour>
      <point x="263" y="402" type="line"/>
      <point x="267" y="396"/>
      <point x="271" y="397"/>
      <point x="275" y="400" type="curve" smooth="yes"/>
      <point x="287" y="408" type="line" smooth="yes"/>
      <point x="292" y="412"/>
      <point x="293" y="415"/>
      <point x="289" y="419" type="curve" smooth="yes"/>
      <point x="278" y="434" type="line" smooth="yes"/>
      <point x="250" y="473"/>
      <point x="216" y="502"/>
      <point x="204" y="511" type="curve"/>
      <point x="206" y="496"/>
      <point x="225" y="455"/>
      <point x="253" y="416" type="curve" smooth="yes"/>
    </contour>
  </outline>
</glyph>
<glyph name="hyphen" format="1">
  <advance width="312"/>
  <unicode hex="002D"/>
  <outline>
    <contour>
      <point x="263" y="306" type="line"/>
      <point x="270" y="306"/>
      <point x="272" y="309"/>
      <point x="272" y="314" type="curve" smooth="yes"/>
      <point x="272" y="326" type="line" smooth="yes"/>
      <point x="272" y="331"/>
      <point x="270" y="334"/>
      <point x="263" y="334" type="curve" smooth="yes"/>
      <point x="49" y="334" type="line" smooth="yes"/>
      <point x="42" y="334"/>
      <point x="40" y="331"/>
      <point x="40" y="326" type="curve" smooth="yes"/>
      <point x="40" y="314" type="line" smooth="yes"/>
      <point x="40" y="309"/>
      <point x="42" y="306"/>
      <point x="49" y="306" type="curve" smooth="yes"/>
    </contour>
  </outline>
</glyph>
<glyph name="period" format="1">
  <advance width="187"/>
  <unicode hex="002E"/>
  <outline>
    <contour>
      <point x="112" y="128" type="line" smooth="yes"/>
      <point x="112" y="135"/>
      <point x="109" y="137"/>
      <point x="104" y="137" type="curve" smooth="yes"/>
      <point x="83" y="137" type="line" smooth="yes"/>
      <point x="78" y="137"/>
      <point x="75" y="135"/>
      <point x="75" y="128" type="curve" smooth="yes"/>
      <point x="75" y="9" type="line" smooth="yes"/>
      <point x="75" y="2"/>
      <point x="78" y="0"/>
      <point x="83" y="0" type="curve" smooth="yes"/>
      <point x="104" y="0" type="line" smooth="yes"/>
      <point x="109" y="0"/>
      <point x="112" y="2"/>
      <point x="112" y="9" type="curve" smooth="yes"/>
    </contour>
  </outline>
</glyph>
<glyph name="zero" format="1">
  <advance width="508"/>
  <unicode hex="0030"/>
  <outline>
    <contour>
      <point x="304" y="0" type="line"/>
      <point x="385" y="0"/>
      <point x="438" y="53"/>
      <point x="438" y="136" type="curve" smooth="yes"/>
      <point x="438" y="507" type="line" smooth="yes"/>
      <point x="438" y="590"/>
      <point x="385" y="643"/>
      <point x="304" y="643" type="curve" smooth="yes"/>
      <point x="204" y="643" type="line" smooth="yes"/>
      <point x="123" y="643"/>
      <point x="70" y="590"/>
      <point x="70" y="507" type="curve" smooth="yes"/>
      <point x="70" y="136" type="line" smooth="yes"/>
      <point x="70" y="53"/>
      <point x="123" y="0"/>
      <point x="204" y="0" type="curve" smooth="yes"/>
    </contour>
    <contour>
      <point x="204" y="28" type="line"/>
      <point x="137" y="28"/>
      <point x="100" y="69"/>
      <point x="100" y="137" type="curve" smooth="yes"/>
      <point x="100" y="506" type="line" smooth="yes"/>
      <point x="100" y="574"/>
      <point x="137" y="615"/>
      <point x="204" y="615" type="curve" smooth="yes"/>
      <point x="304" y="615" type="line" smooth="yes"/>
      <point x="371" y="615"/>
      <point x="408" y="574"/>
      <point x="408" y="506" type="curve" smooth="yes"/>
      <point x="408" y="137" type="line" smooth="yes"/>
      <point x="408" y="69"/>
      <point x="371" y="28"/>
      <point x="304" y="28" type="curve" smooth="yes"/>
    </contour>
  </outline>
</glyph>
<glyph name="one" format="1">
  <advance width="312"/>
  <unicode hex="0031"/>
  <outline>
    <contour>
      <point x="192" y="610" type="line"/>
      <point x="192" y="9" type="line" smooth="yes"/>
      <point x="192" y="2"/>
      <point x="195" y="0"/>
      <point x="200" y="0" type="curve" smooth="yes"/>
      <point x="214" y="0" type="line" smooth="yes"/>
      <point x="219" y="0"/>
      <point x="222" y="2"/>
      <point x="222" y="9" type="curve" smooth="yes"/>
      <point x="222" y="634" type="line" smooth="yes"/>
      <point x="222" y="641"/>
      <point x="219" y="643"/>
      <point x="214" y="643" type="curve" smooth="yes"/>
      <point x="202" y="643" type="line" smooth="yes"/>
      <point x="194" y="643"/>
      <point x="190" y="640"/>
      <point x="186" y="638" type="curve" smooth="yes"/>
      <point x="51" y="563" type="line" smooth="yes"/>
      <point x="42" y="558"/>
      <point x="40" y="554"/>
      <point x="40" y="544" type="curve" smooth="yes"/>
      <point x="40" y="538" type="line" smooth="yes"/>
      <point x="40" y="529"/>
      <point x="46" y="526"/>
      <point x="56" y="533" type="curve"/>
    </contour>
  </outline>
</glyph>
<glyph name="two" format="1">
  <advance width="474"/>
  <unicode hex="0032"/>
  <outline>
    <contour>
      <point x="64" y="8" type="line" smooth="yes"/>
      <point x="64" y="3"/>
      <point x="66" y="0"/>
      <point x="73" y="0" type="curve" smooth="yes"/>
      <point x="405" y="0" type="line" smooth="yes"/>
      <point x="412" y="0"/>
      <point x="414" y="3"/>
      <point x="414" y="8" type="curve" smooth="yes"/>
      <point x="414" y="20" type="line" smooth="yes"/>
      <point x="414" y="25"/>
      <point x="412" y="28"/>
      <point x="405" y="28" type="curve" smooth="yes"/>
      <point x="94" y="28" type="line"/>
      <point x="94" y="98" type="line" smooth="yes"/>
      <point x="94" y="138"/>
      <point x="110" y="165"/>
      <point x="144" y="191" type="curve" smooth="yes"/>
      <point x="346" y="342" type="line" smooth="yes"/>
      <point x="384" y="370"/>
      <point x="410" y="416"/>
      <point x="410" y="467" type="curve" smooth="yes"/>
      <point x="410" y="510" type="line" smooth="yes"/>
      <point x="410" y="593"/>
      <point x="357" y="643"/>
      <point x="276" y="643" type="curve" smooth="yes"/>
      <point x="194" y="643" type="line" smooth="yes"/>
      <point x="113" y="643"/>
      <point x="60" y="593"/>
      <point x="60" y="510" type="curve" smooth="yes"/>
      <point x="60" y="461" type="line" smooth="yes"/>
      <point x="60" y="454"/>
      <point x="63" y="452"/>
      <point x="68" y="452" type="curve" smooth="yes"/>
      <point x="82" y="452" type="line" smooth="yes"/>
      <point x="87" y="452"/>
      <point x="90" y="454"/>
      <point x="90" y="461" type="curve" smooth="yes"/>
      <point x="90" y="509" type="line" smooth="yes"/>
      <point x="90" y="577"/>
      <point x="127" y="615"/>
      <point x="194" y="615" type="curve" smooth="yes"/>
      <point x="276" y="615" type="line" smooth="yes"/>
      <point x="343" y="615"/>
      <point x="380" y="577"/>
      <point x="380" y="509" type="curve" smooth="yes"/>
      <point x="380" y="468" type="line" smooth="yes"/>
      <point x="380" y="424"/>
      <point x="361" y="388"/>
      <point x="327" y="363" type="curve" smooth="yes"/>
      <point x="127" y="214" type="line"/>
      <point x="88" y="186"/>
      <point x="64" y="148"/>
      <point x="64" y="94" type="curve" smooth="yes"/>
    </contour>
  </outline>
</glyph>
<glyph name="seven" format="1">
  <advance width="367"/>
  <unicode hex="0037"/>
  <outline>
    <contour>
      <point x="109" y="0" type="line" smooth="yes"/>
      <point x="116" y="0"/>
      <point x="121" y="2"/>
      <point x="123" y="9" type="curve" smooth="yes"/>
      <point x="344" y="611" type="line" smooth="yes"/>
      <point x="346" y="616"/>
      <point x="347" y="619"/>
      <point x="347" y="625" type="curve" smooth="yes"/>
      <point x="347" y="635" type="line" smooth="yes"/>
      <point x="347" y="640"/>
      <point x="345" y="643"/>
      <point x="338" y="643" type="curve" smooth="yes"/>
      <point x="24" y="643" type="line" smooth="yes"/>
      <point x="17" y="643"/>
      <point x="15" y="640"/>
      <point x="15" y="635" type="curve" smooth="yes"/>
      <point x="15" y="623" type="line" smooth="yes"/>
      <point x="15" y="618"/>
      <point x="17" y="615"/>
      <point x="24" y="615" type="curve" smooth="yes"/>
      <point x="314" y="615" type="line"/>
      <point x="93" y="14" type="line" smooth="yes"/>
      <point x="90" y="7"/>
      <point x="91" y="0"/>
      <point x="99" y="0" type="curve" smooth="yes"/>
    </contour>
  </outline>
</glyph>
<glyph name="eight" format="1">
  <advance width="513"/>
  <unicode hex="0038"/>
  <outline>
    <contour>
      <point x="309" y="0" type="line" smooth="yes"/>
      <point x="390" y="0"/>
      <point x="443" y="50"/>
      <point x="443" y="133" type="curve" smooth="yes"/>
      <point x="443" y="205" type="line" smooth="yes"/>
      <point x="443" y="265"/>
      <point x="415" y="306"/>
      <point x="369" y="324" type="curve"/>
      <point x="415" y="342"/>
      <point x="443" y="383"/>
      <point x="443" y="443" type="curve" smooth="yes"/>
      <point x="443" y="510" type="line" smooth="yes"/>
      <point x="443" y="593"/>
      <point x="390" y="643"/>
      <point x="309" y="643" type="curve" smooth="yes"/>
      <point x="204" y="643" type="line" smooth="yes"/>
      <point x="123" y="643"/>
      <point x="70" y="593"/>
      <point x="70" y="510" type="curve" smooth="yes"/>
      <point x="70" y="443" type="line" smooth="yes"/>
      <point x="70" y="383"/>
      <point x="98" y="342"/>
      <point x="144" y="324" type="curve"/>
      <point x="98" y="306"/>
      <point x="70" y="265"/>
      <point x="70" y="205" type="curve" smooth="yes"/>
      <point x="70" y="133" type="line" smooth="yes"/>
      <point x="70" y="50"/>
      <point x="123" y="0"/>
      <point x="204" y="0" type="curve" smooth="yes"/>
    </contour>
    <contour>
      <point x="204" y="338" type="line"/>
      <point x="137" y="338"/>
      <point x="100" y="376"/>
      <point x="100" y="444" type="curve" smooth="yes"/>
      <point x="100" y="509" type="line" smooth="yes"/>
      <point x="100" y="577"/>
      <point x="137" y="615"/>
      <point x="204" y="615" type="curve" smooth="yes"/>
      <point x="309" y="615" type="line" smooth="yes"/>
      <point x="376" y="615"/>
      <point x="413" y="577"/>
      <point x="413" y="509" type="curve" smooth="yes"/>
      <point x="413" y="444" type="line" smooth="yes"/>
      <point x="413" y="376"/>
      <point x="376" y="338"/>
      <point x="309" y="338" type="curve" smooth="yes"/>
    </contour>
    <contour>
      <point x="204" y="28" type="line"/>
      <point x="137" y="28"/>
      <point x="100" y="66"/>
      <point x="100" y="134" type="curve" smooth="yes"/>
      <point x="100" y="204" type="line" smooth="yes"/>
      <point x="100" y="272"/>
      <point x="137" y="310"/>
      <point x="204" y="310" type="curve" smooth="yes"/>
      <point x="309" y="310" type="line" smooth="yes"/>
      <point x="376" y="310"/>
      <point x="413" y="272"/>
      <point x="413" y="204" type="curve" smooth="yes"/>
      <point x="413" y="134" type="line" smooth="yes"/>
      <point x="413" y="66"/>
      <point x="376" y="28"/>
      <point x="309" y="28" type="curve" smooth="yes"/>
    </contour>
  </outline>
</glyph>
<glyph name="semicolon" format="1">
  <advance width="187"/>
  <unicode hex="003B"/>
  <outline>
    <contour>
      <point x="112" y="501" type="line" smooth="yes"/>
      <point x="112" y="508"/>
      <point x="109" y="510"/>
      <point x="104" y="510" type="curve" smooth="yes"/>
      <point x="83" y="510" type="line" smooth="yes"/>
      <point x="78" y="510"/>
      <point x="75" y="508"/>
      <point x="75" y="501" type="curve" smooth="yes"/>
      <point x="75" y="382" type="line" smooth="yes"/>
      <point x="75" y="375"/>
      <point x="78" y="373"/>
      <point x="83" y="373" type="curve" smooth="yes"/>
      <point x="104" y="373" type="line" smooth="yes"/>
      <point x="109" y="373"/>
      <point x="112" y="375"/>
      <point x="112" y="382" type="curve" smooth="yes"/>
    </contour>
    <contour>
      <point x="112" y="128" type="line" smooth="yes"/>
      <point x="112" y="135"/>
      <point x="109" y="137"/>
      <point x="104" y="137" type="curve" smooth="yes"/>
      <point x="83" y="137" type="line" smooth="yes"/>
      <point x="78" y="137"/>
      <point x="75" y="135"/>
      <point x="75" y="128" type="curve" smooth="yes"/>
      <point x="75" y="-95" type="line" smooth="yes"/>
      <point x="75" y="-100"/>
      <point x="78" y="-101"/>
      <point x="80" y="-101" type="curve" smooth="yes"/>
      <point x="83" y="-101"/>
      <point x="85" y="-99"/>
      <point x="86" y="-95" type="curve" smooth="yes"/>
      <point x="104" y="-6" type="line" smooth="yes"/>
      <point x="109" y="18"/>
      <point x="112" y="32"/>
      <point x="112" y="49" type="curve" smooth="yes"/>
    </contour>
  </outline>
</glyph>
<glyph name="equal" format="1">
  <advance width="522"/>
  <unicode hex="003D"/>
  <outline>
    <contour>
      <point x="84" y="248" type="line" smooth="yes"/>
      <point x="77" y="248"/>
      <point x="75" y="245"/>
      <point x="75" y="240" type="curve" smooth="yes"/>
      <point x="75" y="228" type="line" smooth="yes"/>
      <point x="75" y="223"/>
      <point x="77" y="220"/>
      <point x="84" y="220" type="curve" smooth="yes"/>
      <point x="438" y="220" type="line" smooth="yes"/>
      <point x="445" y="220"/>
      <point x="447" y="223"/>
      <point x="447" y="228" type="curve" smooth="yes"/>
      <point x="447" y="240" type="line" smooth="yes"/>
      <point x="447" y="245"/>
      <point x="445" y="248"/>
      <point x="438" y="248" type="curve" smooth="yes"/>
    </contour>
    <contour>
      <point x="84" y="422" type="line" smooth="yes"/>
      <point x="77" y="422"/>
      <point x="75" y="419"/>
      <point x="75" y="414" type="curve" smooth="yes"/>
      <point x="75" y="402" type="line" smooth="yes"/>
      <point x="75" y="397"/>
      <point x="77" y="394"/>
      <point x="84" y="394" type="curve" smooth="yes"/>
      <point x="438" y="394" type="line" smooth="yes"/>
      <point x="445" y="394"/>
      <point x="447" y="397"/>
      <point x="447" y="402" type="curve" smooth="yes"/>
      <point x="447" y="414" type="line" smooth="yes"/>
      <point x="447" y="419"/>
      <point x="445" y="422"/>
      <point x="438" y="422" type="curve" smooth="yes"/>
    </contour>
  </outline>
</glyph>
<glyph name="greater" format="1">
  <advance width="522"/>
  <unicode hex="003E"/>
  <outline>
    <contour>
      <point x="75" y="461" type="line" smooth="yes"/>
      <point x="75" y="456"/>
      <point x="76" y="453"/>
      <point x="82" y="451" type="curve" smooth="yes"/>
      <point x="419" y="321" type="line"/>
      <point x="82" y="191" type="line" smooth="yes"/>
      <point x="76" y="189"/>
      <point x="75" y="186"/>
      <point x="75" y="181" type="curve" smooth="yes"/>
      <point x="75" y="167" type="line" smooth="yes"/>
      <point x="75" y="161"/>
      <point x="78" y="158"/>
      <point x="86" y="161" type="curve" smooth="yes"/>
      <point x="438" y="300" type="line" smooth="yes"/>
      <point x="445" y="303"/>
      <point x="447" y="306"/>
      <point x="447" y="311" type="curve" smooth="yes"/>
      <point x="447" y="331" type="line" smooth="yes"/>
      <point x="447" y="336"/>
      <point x="445" y="339"/>
      <point x="438" y="342" type="curve" smooth="yes"/>
      <point x="86" y="481" type="line" smooth="yes"/>
      <point x="78" y="484"/>
      <point x="75" y="481"/>
      <point x="75" y="475" type="curve" smooth="yes"/>
    </contour>
  </outline>
</glyph>
<glyph name="question" format="1">
  <advance width="475"/>
  <unicode hex="003F"/>
  <outline>
    <contour>
      <point x="263" y="251" type="line" smooth="yes"/>
      <point x="263" y="292"/>
      <point x="264" y="309"/>
      <point x="307" y="345" type="curve" smooth="yes"/>
      <point x="347" y="379" type="line" smooth="yes"/>
      <point x="378" y="405"/>
      <point x="395" y="431"/>
      <point x="395" y="474" type="curve" smooth="yes"/>
      <point x="395" y="509" type="line" smooth="yes"/>
      <point x="395" y="592"/>
      <point x="342" y="642"/>
      <point x="261" y="642" type="curve" smooth="yes"/>
      <point x="214" y="642" type="line" smooth="yes"/>
      <point x="133" y="642"/>
      <point x="80" y="592"/>
      <point x="80" y="509" type="curve" smooth="yes"/>
      <point x="80" y="461" type="line" smooth="yes"/>
      <point x="80" y="454"/>
      <point x="83" y="452"/>
      <point x="88" y="452" type="curve" smooth="yes"/>
      <point x="102" y="452" type="line" smooth="yes"/>
      <point x="107" y="452"/>
      <point x="110" y="454"/>
      <point x="110" y="461" type="curve" smooth="yes"/>
      <point x="110" y="508" type="line" smooth="yes"/>
      <point x="110" y="576"/>
      <point x="147" y="614"/>
      <point x="214" y="614" type="curve" smooth="yes"/>
      <point x="261" y="614" type="line" smooth="yes"/>
      <point x="328" y="614"/>
      <point x="365" y="576"/>
      <point x="365" y="508" type="curve" smooth="yes"/>
      <point x="365" y="475" type="line" smooth="yes"/>
      <point x="365" y="442"/>
      <point x="352" y="420"/>
      <point x="324" y="396" type="curve" smooth="yes"/>
      <point x="293" y="368" type="line" smooth="yes"/>
      <point x="245" y="326"/>
      <point x="233" y="306"/>
      <point x="233" y="247" type="curve" smooth="yes"/>
      <point x="233" y="212" type="line" smooth="yes"/>
      <point x="233" y="205"/>
      <point x="236" y="203"/>
      <point x="241" y="203" type="curve" smooth="yes"/>
      <point x="255" y="203" type="line" smooth="yes"/>
      <point x="260" y="203"/>
      <point x="263" y="205"/>
      <point x="263" y="212" type="curve" smooth="yes"/>
    </contour>
    <contour>
      <point x="266" y="128" type="line" smooth="yes"/>
      <point x="266" y="135"/>
      <point x="263" y="137"/>
      <point x="258" y="137" type="curve" smooth="yes"/>
      <point x="237" y="137" type="line" smooth="yes"/>
      <point x="232" y="137"/>
      <point x="229" y="135"/>
      <point x="229" y="128" type="curve" smooth="yes"/>
      <point x="229" y="9" type="line" smooth="yes"/>
      <point x="229" y="2"/>
      <point x="232" y="0"/>
      <point x="237" y="0" type="curve" smooth="yes"/>
      <point x="258" y="0" type="line" smooth="yes"/>
      <point x="263" y="0"/>
      <point x="266" y="2"/>
      <point x="266" y="9" type="curve" smooth="yes"/>
    </contour>
  </outline>
</glyph>
<glyph name="at" format="1">
  <advance width="755"/>
  <unicode hex="0040"/>
  <outline>
    <contour>
      <point x="521" y="-58" type="line" smooth="yes"/>
      <point x="528" y="-58"/>
      <point x="530" y="-55"/>
      <point x="530" y="-50" type="curve" smooth="yes"/>
      <point x="530" y="-38" type="line" smooth="yes"/>
      <point x="530" y="-33"/>
      <point x="528" y="-30"/>
      <point x="521" y="-30" type="curve" smooth="yes"/>
      <point x="337" y="-30" type="line" smooth="yes"/>
      <point x="226" y="-30"/>
      <point x="120" y="58"/>
      <point x="120" y="196" type="curve" smooth="yes"/>
      <point x="120" y="349" type="line" smooth="yes"/>
      <point x="120" y="487"/>
      <point x="226" y="575"/>
      <point x="337" y="575" type="curve" smooth="yes"/>
      <point x="531" y="575" type="line" smooth="yes"/>
      <point x="598" y="575"/>
      <point x="635" y="534"/>
      <point x="635" y="466" type="curve" smooth="yes"/>
      <point x="635" y="220" type="line" smooth="yes"/>
      <point x="635" y="152"/>
      <point x="598" y="111"/>
      <point x="531" y="111" type="curve" smooth="yes"/>
      <point x="519" y="111" type="line" smooth="yes"/>
      <point x="512" y="111"/>
      <point x="510" y="114"/>
      <point x="510" y="119" type="curve" smooth="yes"/>
      <point x="510" y="451" type="line" smooth="yes"/>
      <point x="510" y="458"/>
      <point x="507" y="460"/>
      <point x="502" y="460" type="curve" smooth="yes"/>
      <point x="368" y="460" type="line" smooth="yes"/>
      <point x="287" y="460"/>
      <point x="234" y="407"/>
      <point x="234" y="324" type="curve" smooth="yes"/>
      <point x="234" y="221" type="line" smooth="yes"/>
      <point x="234" y="138"/>
      <point x="287" y="85"/>
      <point x="368" y="85" type="curve" smooth="yes"/>
      <point x="407" y="85"/>
      <point x="453" y="95"/>
      <point x="476" y="137" type="curve"/>
      <point x="480" y="137" type="line"/>
      <point x="480" y="129"/>
      <point x="480" y="120"/>
      <point x="480" y="112" type="curve" smooth="yes"/>
      <point x="480" y="95"/>
      <point x="493" y="83"/>
      <point x="508" y="83" type="curve" smooth="yes"/>
      <point x="531" y="83" type="line" smooth="yes"/>
      <point x="612" y="83"/>
      <point x="665" y="136"/>
      <point x="665" y="219" type="curve" smooth="yes"/>
      <point x="665" y="467" type="line" smooth="yes"/>
      <point x="665" y="550"/>
      <point x="612" y="603"/>
      <point x="531" y="603" type="curve" smooth="yes"/>
      <point x="339" y="603" type="line" smooth="yes"/>
      <point x="219" y="603"/>
      <point x="90" y="516"/>
      <point x="90" y="348" type="curve" smooth="yes"/>
      <point x="90" y="197" type="line" smooth="yes"/>
      <point x="90" y="29"/>
      <point x="219" y="-58"/>
      <point x="339" y="-58" type="curve" smooth="yes"/>
    </contour>
    <contour>
      <point x="480" y="217" type="line"/>
      <point x="480" y="148"/>
      <point x="434" y="113"/>
      <point x="369" y="113" type="curve" smooth="yes"/>
      <point x="369" y="113"/>
      <point x="368" y="113"/>
      <point x="368" y="113" type="curve"/>
      <point x="301" y="113"/>
      <point x="264" y="154"/>
      <point x="264" y="222" type="curve" smooth="yes"/>
      <point x="264" y="323" type="line" smooth="yes"/>
      <point x="264" y="391"/>
      <point x="301" y="432"/>
      <point x="368" y="432" type="curve" smooth="yes"/>
      <point x="471" y="432" type="line" smooth="yes"/>
      <point x="478" y="432"/>
      <point x="480" y="429"/>
      <point x="480" y="424" type="curve" smooth="yes"/>
    </contour>
  </outline>
</glyph>
<glyph name="A" format="1">
  <advance width="526"/>
  <unicode hex="0041"/>
  <outline>
    <contour>
      <point x="261" y="605" type="line"/>
      <point x="265" y="605" type="line"/>
      <point x="392" y="213" type="line"/>
      <point x="134" y="213" type="line"/>
    </contour>
    <contour>
      <point x="51" y="0" type="line"/>
      <point x="56" y="0"/>
      <point x="59" y="2"/>
      <point x="62" y="9" type="curve" smooth="yes"/>
      <point x="123" y="183" type="line"/>
      <point x="403" y="183" type="line"/>
      <point x="464" y="9" type="line" smooth="yes"/>
      <point x="466" y="2"/>
      <point x="469" y="0"/>
      <point x="474" y="0" type="curve" smooth="yes"/>
      <point x="489" y="0" type="line" smooth="yes"/>
      <point x="494" y="0"/>
      <point x="497" y="2"/>
      <point x="495" y="9" type="curve" smooth="yes"/>
      <point x="285" y="634" type="line" smooth="yes"/>
      <point x="283" y="641"/>
      <point x="280" y="643"/>
      <point x="275" y="643" type="curve" smooth="yes"/>
      <point x="251" y="643" type="line" smooth="yes"/>
      <point x="246" y="643"/>
      <point x="243" y="641"/>
      <point x="241" y="634" type="curve" smooth="yes"/>
      <point x="31" y="9" type="line" smooth="yes"/>
      <point x="29" y="2"/>
      <point x="32" y="0"/>
      <point x="37" y="0" type="curve" smooth="yes"/>
    </contour>
  </outline>
</glyph>
<glyph name="B" format="1">
  <advance width="544"/>
  <unicode hex="0042"/>
  <outline>
    <contour>
      <point x="90" y="9" type="line"/>
      <point x="90" y="2"/>
      <point x="93" y="0"/>
      <point x="98" y="0" type="curve" smooth="yes"/>
      <point x="335" y="0" type="line" smooth="yes"/>
      <point x="416" y="0"/>
      <point x="469" y="50"/>
      <point x="469" y="133" type="curve" smooth="yes"/>
      <point x="469" y="206" type="line" smooth="yes"/>
      <point x="469" y="278"/>
      <point x="420" y="323"/>
      <point x="375" y="325" type="curve"/>
      <point x="422" y="339"/>
      <point x="463" y="372"/>
      <point x="463" y="444" type="curve" smooth="yes"/>
      <point x="463" y="510" type="line" smooth="yes"/>
      <point x="463" y="593"/>
      <point x="410" y="643"/>
      <point x="329" y="643" type="curve" smooth="yes"/>
      <point x="98" y="643" type="line" smooth="yes"/>
      <point x="93" y="643"/>
      <point x="90" y="641"/>
      <point x="90" y="634" type="curve" smooth="yes"/>
    </contour>
    <contour>
      <point x="129" y="339" type="line" smooth="yes"/>
      <point x="122" y="339"/>
      <point x="120" y="342"/>
      <point x="120" y="347" type="curve" smooth="yes"/>
      <point x="120" y="607" type="line" smooth="yes"/>
      <point x="120" y="612"/>
      <point x="122" y="615"/>
      <point x="129" y="615" type="curve" smooth="yes"/>
      <point x="329" y="615" type="line" smooth="yes"/>
      <point x="396" y="615"/>
      <point x="433" y="577"/>
      <point x="433" y="509" type="curve" smooth="yes"/>
      <point x="433" y="445" type="line" smooth="yes"/>
      <point x="433" y="377"/>
      <point x="392" y="339"/>
      <point x="325" y="339" type="curve" smooth="yes"/>
    </contour>
    <contour>
      <point x="129" y="28" type="line" smooth="yes"/>
      <point x="122" y="28"/>
      <point x="120" y="31"/>
      <point x="120" y="36" type="curve" smooth="yes"/>
      <point x="120" y="303" type="line" smooth="yes"/>
      <point x="120" y="308"/>
      <point x="122" y="311"/>
      <point x="129" y="311" type="curve" smooth="yes"/>
      <point x="325" y="311" type="line" smooth="yes"/>
      <point x="402" y="311"/>
      <point x="439" y="273"/>
      <point x="439" y="205" type="curve" smooth="yes"/>
      <point x="439" y="134" type="line" smooth="yes"/>
      <point x="439" y="66"/>
      <point x="402" y="28"/>
      <point x="335" y="28" type="curve" smooth="yes"/>
    </contour>
  </outline>
</glyph>
<glyph name="E" format="1">
  <advance width="481"/>
  <unicode hex="0045"/>
  <outline>
    <contour>
      <point x="402" y="0" type="line"/>
      <point x="409" y="0"/>
      <point x="411" y="3"/>
      <point x="411" y="8" type="curve" smooth="yes"/>
      <point x="411" y="20" type="line" smooth="yes"/>
      <point x="411" y="25"/>
      <point x="409" y="28"/>
      <point x="402" y="28" type="curve" smooth="yes"/>
      <point x="129" y="28" type="line" smooth="yes"/>
      <point x="122" y="28"/>
      <point x="120" y="31"/>
      <point x="120" y="36" type="curve" smooth="yes"/>
      <point x="120" y="306" type="line" smooth="yes"/>
      <point x="120" y="311"/>
      <point x="122" y="314"/>
      <point x="129" y="314" type="curve" smooth="yes"/>
      <point x="376" y="314" type="line" smooth="yes"/>
      <point x="383" y="314"/>
      <point x="385" y="317"/>
      <point x="385" y="322" type="curve" smooth="yes"/>
      <point x="385" y="334" type="line" smooth="yes"/>
      <point x="385" y="339"/>
      <point x="383" y="342"/>
      <point x="376" y="342" type="curve" smooth="yes"/>
      <point x="129" y="342" type="line" smooth="yes"/>
      <point x="122" y="342"/>
      <point x="120" y="345"/>
      <point x="120" y="350" type="curve" smooth="yes"/>
      <point x="120" y="607" type="line" smooth="yes"/>
      <point x="120" y="612"/>
      <point x="122" y="615"/>
      <point x="129" y="615" type="curve" smooth="yes"/>
      <point x="402" y="615" type="line" smooth="yes"/>
      <point x="409" y="615"/>
      <point x="411" y="618"/>
      <point x="411" y="623" type="curve" smooth="yes"/>
      <point x="411" y="635" type="line" smooth="yes"/>
      <point x="411" y="640"/>
      <point x="409" y="643"/>
      <point x="402" y="643" type="curve" smooth="yes"/>
      <point x="98" y="643" type="line" smooth="yes"/>
      <point x="93" y="643"/>
      <point x="90" y="641"/>
      <point x="90" y="634" type="curve" smooth="yes"/>
      <point x="90" y="9" type="line" smooth="yes"/>
      <point x="90" y="2"/>
      <point x="93" y="0"/>
      <point x="98" y="0" type="curve" smooth="yes"/>
    </contour>
  </outline>
</glyph>
<glyph name="M" format="1">
  <advance width="688"/>
  <unicode hex="004D"/>
  <outline>
    <contour>
      <point x="346" y="177" type="line"/>
      <point x="342" y="177" type="line"/>
      <point x="133" y="639" type="line" smooth="yes"/>
      <point x="132" y="641"/>
      <point x="130" y="643"/>
      <point x="126" y="643" type="curve" smooth="yes"/>
      <point x="98" y="643" type="line" smooth="yes"/>
      <point x="93" y="643"/>
      <point x="90" y="641"/>
      <point x="90" y="634" type="curve" smooth="yes"/>
      <point x="90" y="9" type="line" smooth="yes"/>
      <point x="90" y="2"/>
      <point x="93" y="0"/>
      <point x="98" y="0" type="curve" smooth="yes"/>
      <point x="112" y="0" type="line" smooth="yes"/>
      <point x="117" y="0"/>
      <point x="120" y="2"/>
      <point x="120" y="9" type="curve" smooth="yes"/>
      <point x="120" y="586" type="line"/>
      <point x="124" y="586" type="line"/>
      <point x="323" y="148" type="line" smooth="yes"/>
      <point x="326" y="142"/>
      <point x="329" y="140"/>
      <point x="335" y="140" type="curve" smooth="yes"/>
      <point x="354" y="140" type="line" smooth="yes"/>
      <point x="360" y="140"/>
      <point x="363" y="142"/>
      <point x="366" y="148" type="curve" smooth="yes"/>
      <point x="564" y="585" type="line"/>
      <point x="568" y="585" type="line"/>
      <point x="568" y="9" type="line" smooth="yes"/>
      <point x="568" y="2"/>
      <point x="571" y="0"/>
      <point x="576" y="0" type="curve" smooth="yes"/>
      <point x="590" y="0" type="line" smooth="yes"/>
      <point x="595" y="0"/>
      <point x="598" y="2"/>
      <point x="598" y="9" type="curve" smooth="yes"/>
      <point x="598" y="634" type="line" smooth="yes"/>
      <point x="598" y="641"/>
      <point x="595" y="643"/>
      <point x="590" y="643" type="curve" smooth="yes"/>
      <point x="562" y="643" type="line" smooth="yes"/>
      <point x="558" y="643"/>
      <point x="556" y="641"/>
      <point x="555" y="639" type="curve" smooth="yes"/>
    </contour>
  </outline>
</glyph>
<glyph name="N" format="1">
  <advance width="578"/>
  <unicode hex="004E"/>
  <outline>
    <contour>
      <point x="112" y="0" type="line"/>
      <point x="117" y="0"/>
      <point x="120" y="2"/>
      <point x="120" y="9" type="curve" smooth="yes"/>
      <point x="120" y="573" type="line"/>
      <point x="124" y="573" type="line"/>
      <point x="458" y="8" type="line" smooth="yes"/>
      <point x="462" y="2"/>
      <point x="464" y="0"/>
      <point x="470" y="0" type="curve" smooth="yes"/>
      <point x="480" y="0" type="line" smooth="yes"/>
      <point x="485" y="0"/>
      <point x="488" y="2"/>
      <point x="488" y="9" type="curve" smooth="yes"/>
      <point x="488" y="634" type="line" smooth="yes"/>
      <point x="488" y="641"/>
      <point x="485" y="643"/>
      <point x="480" y="643" type="curve" smooth="yes"/>
      <point x="466" y="643" type="line" smooth="yes"/>
      <point x="461" y="643"/>
      <point x="458" y="641"/>
      <point x="458" y="634" type="curve" smooth="yes"/>
      <point x="458" y="72" type="line"/>
      <point x="454" y="72" type="line"/>
      <point x="119" y="639" type="line" smooth="yes"/>
      <point x="118" y="641"/>
      <point x="116" y="643"/>
      <point x="112" y="643" type="curve" smooth="yes"/>
      <point x="98" y="643" type="line" smooth="yes"/>
      <point x="93" y="643"/>
      <point x="90" y="641"/>
      <point x="90" y="634" type="curve" smooth="yes"/>
      <point x="90" y="9" type="line" smooth="yes"/>
      <point x="90" y="2"/>
      <point x="93" y="0"/>
      <point x="98" y="0" type="curve" smooth="yes"/>
    </contour>
  </outline>
</glyph>
<glyph name="Q" format="1">
  <advance width="553"/>
  <unicode hex="0051"/>
  <outline>
    <contour>
      <point x="412" y="-133" type="line" smooth="yes"/>
      <point x="417" y="-133"/>
      <point x="420" y="-130"/>
      <point x="416" y="-124" type="curve" smooth="yes"/>
      <point x="339" y="0" type="line"/>
      <point x="420" y="0"/>
      <point x="473" y="53"/>
      <point x="473" y="136" type="curve" smooth="yes"/>
      <point x="473" y="507" type="line" smooth="yes"/>
      <point x="473" y="590"/>
      <point x="420" y="643"/>
      <point x="339" y="643" type="curve" smooth="yes"/>
      <point x="214" y="643" type="line" smooth="yes"/>
      <point x="133" y="643"/>
      <point x="80" y="590"/>
      <point x="80" y="507" type="curve" smooth="yes"/>
      <point x="80" y="136" type="line" smooth="yes"/>
      <point x="80" y="53"/>
      <point x="133" y="0"/>
      <point x="214" y="0" type="curve" smooth="yes"/>
      <point x="304" y="0" type="line"/>
      <point x="381" y="-124" type="line" smooth="yes"/>
      <point x="386" y="-132"/>
      <point x="390" y="-133"/>
      <point x="396" y="-133" type="curve" smooth="yes"/>
    </contour>
    <contour>
      <point x="214" y="28" type="line"/>
      <point x="147" y="28"/>
      <point x="110" y="69"/>
      <point x="110" y="137" type="curve" smooth="yes"/>
      <point x="110" y="506" type="line" smooth="yes"/>
      <point x="110" y="574"/>
      <point x="147" y="615"/>
      <point x="214" y="615" type="curve" smooth="yes"/>
      <point x="339" y="615" type="line" smooth="yes"/>
      <point x="406" y="615"/>
      <point x="443" y="574"/>
      <point x="443" y="506" type="curve" smooth="yes"/>
      <point x="443" y="137" type="line" smooth="yes"/>
      <point x="443" y="69"/>
      <point x="406" y="28"/>
      <point x="339" y="28" type="curve" smooth="yes"/>
    </contour>
  </outline>
</glyph>
<glyph name="V" format="1">
  <advance width="494"/>
  <unicode hex="0056"/>
  <outline>
    <contour>
      <point x="259" y="0" type="line" smooth="yes"/>
      <point x="264" y="0"/>
      <point x="267" y="2"/>
      <point x="269" y="9" type="curve" smooth="yes"/>
      <point x="463" y="634" type="line" smooth="yes"/>
      <point x="465" y="641"/>
      <point x="462" y="643"/>
      <point x="457" y="643" type="curve" smooth="yes"/>
      <point x="442" y="643" type="line" smooth="yes"/>
      <point x="437" y="643"/>
      <point x="434" y="641"/>
      <point x="432" y="634" type="curve" smooth="yes"/>
      <point x="249" y="44" type="line"/>
      <point x="248" y="44"/>
      <point x="246" y="44"/>
      <point x="245" y="44" type="curve"/>
      <point x="62" y="634" type="line" smooth="yes"/>
      <point x="60" y="641"/>
      <point x="57" y="643"/>
      <point x="52" y="643" type="curve" smooth="yes"/>
      <point x="37" y="643" type="line" smooth="yes"/>
      <point x="32" y="643"/>
      <point x="29" y="641"/>
      <point x="31" y="634" type="curve" smooth="yes"/>
      <point x="225" y="9" type="line" smooth="yes"/>
      <point x="227" y="2"/>
      <point x="230" y="0"/>
      <point x="235" y="0" type="curve" smooth="yes"/>
    </contour>
  </outline>
</glyph>
<glyph name="Y" format="1">
  <advance width="486"/>
  <unicode hex="0059"/>
  <outline>
    <contour>
      <point x="250" y="0" type="line" smooth="yes"/>
      <point x="255" y="0"/>
      <point x="258" y="2"/>
      <point x="258" y="9" type="curve" smooth="yes"/>
      <point x="258" y="245" type="line"/>
      <point x="455" y="634" type="line" smooth="yes"/>
      <point x="458" y="640"/>
      <point x="455" y="643"/>
      <point x="450" y="643" type="curve" smooth="yes"/>
      <point x="432" y="643" type="line" smooth="yes"/>
      <point x="427" y="643"/>
      <point x="424" y="641"/>
      <point x="421" y="634" type="curve" smooth="yes"/>
      <point x="245" y="284" type="line"/>
      <point x="241" y="284" type="line"/>
      <point x="65" y="634" type="line" smooth="yes"/>
      <point x="62" y="641"/>
      <point x="59" y="643"/>
      <point x="54" y="643" type="curve" smooth="yes"/>
      <point x="36" y="643" type="line" smooth="yes"/>
      <point x="31" y="643"/>
      <point x="28" y="640"/>
      <point x="31" y="634" type="curve" smooth="yes"/>
      <point x="228" y="245" type="line"/>
      <point x="228" y="9" type="line" smooth="yes"/>
      <point x="228" y="2"/>
      <point x="231" y="0"/>
      <point x="236" y="0" type="curve" smooth="yes"/>
    </contour>
  </outline>
</glyph>
<glyph name="backslash" format="1">
  <advance width="393"/>
  <unicode hex="005C"/>
  <outline>
    <contour>
      <point x="288" y="11" type="line"/>
      <point x="291" y="3"/>
      <point x="295" y="0"/>
      <point x="301" y="0" type="curve" smooth="yes"/>
      <point x="314" y="0" type="line" smooth="yes"/>
      <point x="320" y="0"/>
      <point x="325" y="4"/>
      <point x="322" y="12" type="curve"/>
      <point x="322" y="12"/>
      <point x="104" y="632"/>
      <point x="104" y="632" type="curve"/>
      <point x="101" y="640"/>
      <point x="98" y="643"/>
      <point x="91" y="643" type="curve" smooth="yes"/>
      <point x="77" y="643" type="line" smooth="yes"/>
      <point x="70" y="643"/>
      <point x="68" y="637"/>
      <point x="71" y="629" type="curve" smooth="yes"/>
    </contour>
  </outline>
</glyph>
<glyph name="asciicircum" format="1">
  <advance width="453"/>
  <unicode hex="005E"/>
  <outline>
    <contour>
      <point x="360" y="374" type="line"/>
      <point x="364" y="368"/>
      <point x="367" y="365"/>
      <point x="374" y="365" type="curve" smooth="yes"/>
      <point x="384" y="365" type="line" smooth="yes"/>
      <point x="392" y="365"/>
      <point x="395" y="370"/>
      <point x="391" y="377" type="curve" smooth="yes"/>
      <point x="257" y="632" type="line" smooth="yes"/>
      <point x="253" y="639"/>
      <point x="248" y="643"/>
      <point x="238" y="643" type="curve" smooth="yes"/>
      <point x="215" y="643" type="line" smooth="yes"/>
      <point x="205" y="643"/>
      <point x="200" y="639"/>
      <point x="196" y="632" type="curve" smooth="yes"/>
      <point x="62" y="377" type="line" smooth="yes"/>
      <point x="58" y="370"/>
      <point x="61" y="365"/>
      <point x="69" y="365" type="curve" smooth="yes"/>
      <point x="79" y="365" type="line" smooth="yes"/>
      <point x="86" y="365"/>
      <point x="89" y="368"/>
      <point x="93" y="374" type="curve"/>
      <point x="226" y="626" type="line"/>
    </contour>
  </outline>
</glyph>
<glyph name="grave" format="1">
  <advance width="261"/>
  <unicode hex="0060"/>
  <outline>
    <contour>
      <point x="121" y="694" type="line" smooth="yes"/>
      <point x="118" y="700"/>
      <point x="113" y="703"/>
      <point x="106" y="703" type="curve" smooth="yes"/>
      <point x="76" y="703" type="line" smooth="yes"/>
      <point x="71" y="703"/>
      <point x="68" y="699"/>
      <point x="72" y="694" type="curve" smooth="yes"/>
      <point x="164" y="582" type="line" smooth="yes"/>
      <point x="168" y="577"/>
      <point x="173" y="574"/>
      <point x="178" y="574" type="curve" smooth="yes"/>
      <point x="186" y="574" type="line" smooth="yes"/>
      <point x="191" y="574"/>
      <point x="192" y="578"/>
      <point x="189" y="583" type="curve" smooth="yes"/>
    </contour>
  </outline>
</glyph>
<glyph name="b" format="1">
  <advance width="498"/>
  <unicode hex="0062"/>
  <outline>
    <contour>
      <point x="80" y="9" type="line"/>
      <point x="80" y="2"/>
      <point x="83" y="0"/>
      <point x="88" y="0" type="curve" smooth="yes"/>
      <point x="294" y="0" type="line" smooth="yes"/>
      <point x="375" y="0"/>
      <point x="428" y="53"/>
      <point x="428" y="136" type="curve" smooth="yes"/>
      <point x="428" y="384" type="line" smooth="yes"/>
      <point x="428" y="467"/>
      <point x="375" y="520"/>
      <point x="294" y="520" type="curve" smooth="yes"/>
      <point x="220" y="520" type="line" smooth="yes"/>
      <point x="157" y="520"/>
      <point x="128" y="494"/>
      <point x="114" y="468" type="curve"/>
      <point x="110" y="468" type="line"/>
      <point x="110" y="694" type="line" smooth="yes"/>
      <point x="110" y="701"/>
      <point x="107" y="703"/>
      <point x="102" y="703" type="curve" smooth="yes"/>
      <point x="88" y="703" type="line" smooth="yes"/>
      <point x="83" y="703"/>
      <point x="80" y="701"/>
      <point x="80" y="694" type="curve" smooth="yes"/>
    </contour>
    <contour>
      <point x="119" y="28" type="line" smooth="yes"/>
      <point x="112" y="28"/>
      <point x="110" y="31"/>
      <point x="110" y="36" type="curve" smooth="yes"/>
      <point x="110" y="388" type="line" smooth="yes"/>
      <point x="110" y="457"/>
      <point x="157" y="492"/>
      <point x="222" y="492" type="curve" smooth="yes"/>
      <point x="294" y="492" type="line" smooth="yes"/>
      <point x="361" y="492"/>
      <point x="398" y="451"/>
      <point x="398" y="383" type="curve" smooth="yes"/>
      <point x="398" y="137" type="line" smooth="yes"/>
      <point x="398" y="69"/>
      <point x="361" y="28"/>
      <point x="294" y="28" type="curve" smooth="yes"/>
    </contour>
  </outline>
</glyph>
<glyph name="e" format="1">
  <advance width="491"/>
  <unicode hex="0065"/>
  <outline>
    <contour>
      <point x="109" y="265" type="line" smooth="yes"/>
      <point x="102" y="265"/>
      <point x="100" y="268"/>
      <point x="100" y="273" type="curve" smooth="yes"/>
      <point x="100" y="373" type="line" smooth="yes"/>
      <point x="100" y="441"/>
      <point x="137" y="482"/>
      <point x="204" y="482" type="curve" smooth="yes"/>
      <point x="292" y="482" type="line" smooth="yes"/>
      <point x="359" y="482"/>
      <point x="396" y="441"/>
      <point x="396" y="373" type="curve" smooth="yes"/>
      <point x="396" y="273" type="line" smooth="yes"/>
      <point x="396" y="268"/>
      <point x="394" y="265"/>
      <point x="387" y="265" type="curve" smooth="yes"/>
    </contour>
    <contour>
      <point x="409" y="0" type="line"/>
      <point x="416" y="0"/>
      <point x="418" y="3"/>
      <point x="418" y="8" type="curve" smooth="yes"/>
      <point x="418" y="20" type="line" smooth="yes"/>
      <point x="418" y="25"/>
      <point x="416" y="28"/>
      <point x="409" y="28" type="curve" smooth="yes"/>
      <point x="204" y="28" type="line" smooth="yes"/>
      <point x="137" y="28"/>
      <point x="100" y="69"/>
      <point x="100" y="137" type="curve" smooth="yes"/>
      <point x="100" y="229" type="line" smooth="yes"/>
      <point x="100" y="234"/>
      <point x="102" y="237"/>
      <point x="109" y="237" type="curve" smooth="yes"/>
      <point x="417" y="237" type="line" smooth="yes"/>
      <point x="424" y="237"/>
      <point x="426" y="240"/>
      <point x="426" y="247" type="curve" smooth="yes"/>
      <point x="426" y="374" type="line" smooth="yes"/>
      <point x="426" y="457"/>
      <point x="373" y="510"/>
      <point x="292" y="510" type="curve" smooth="yes"/>
      <point x="204" y="510" type="line" smooth="yes"/>
      <point x="123" y="510"/>
      <point x="70" y="457"/>
      <point x="70" y="374" type="curve" smooth="yes"/>
      <point x="70" y="136" type="line" smooth="yes"/>
      <point x="70" y="53"/>
      <point x="123" y="0"/>
      <point x="204" y="0" type="curve" smooth="yes"/>
    </contour>
  </outline>
</glyph>
<glyph name="g" format="1">
  <advance width="503"/>
  <unicode hex="0067"/>
  <outline>
    <contour>
      <point x="393" y="162" type="line"/>
      <point x="393" y="93"/>
      <point x="346" y="58"/>
      <point x="281" y="58" type="curve" smooth="yes"/>
      <point x="209" y="58" type="line" smooth="yes"/>
      <point x="142" y="58"/>
      <point x="105" y="99"/>
      <point x="105" y="167" type="curve" smooth="yes"/>
      <point x="105" y="373" type="line" smooth="yes"/>
      <point x="105" y="441"/>
      <point x="142" y="482"/>
      <point x="209" y="482" type="curve" smooth="yes"/>
      <point x="384" y="482" type="line" smooth="yes"/>
      <point x="391" y="482"/>
      <point x="393" y="479"/>
      <point x="393" y="474" type="curve" smooth="yes"/>
    </contour>
    <contour>
      <point x="283" y="30" type="line" smooth="yes"/>
      <point x="346" y="30"/>
      <point x="375" y="56"/>
      <point x="389" y="82" type="curve"/>
      <point x="393" y="82" type="line"/>
      <point x="393" y="4" type="line" smooth="yes"/>
      <point x="393" y="-64"/>
      <point x="356" y="-105"/>
      <point x="289" y="-105" type="curve" smooth="yes"/>
      <point x="110" y="-105" type="line" smooth="yes"/>
      <point x="103" y="-105"/>
      <point x="101" y="-108"/>
      <point x="101" y="-113" type="curve" smooth="yes"/>
      <point x="101" y="-125" type="line" smooth="yes"/>
      <point x="101" y="-130"/>
      <point x="103" y="-133"/>
      <point x="110" y="-133" type="curve" smooth="yes"/>
      <point x="289" y="-133" type="line" smooth="yes"/>
      <point x="370" y="-133"/>
      <point x="423" y="-80"/>
      <point x="423" y="3" type="curve" smooth="yes"/>
      <point x="423" y="501" type="line" smooth="yes"/>
      <point x="423" y="508"/>
      <point x="420" y="510"/>
      <point x="415" y="510" type="curve" smooth="yes"/>
      <point x="209" y="510" type="line" smooth="yes"/>
      <point x="128" y="510"/>
      <point x="75" y="457"/>
      <point x="75" y="374" type="curve" smooth="yes"/>
      <point x="75" y="166" type="line" smooth="yes"/>
      <point x="75" y="83"/>
      <point x="128" y="30"/>
      <point x="209" y="30" type="curve" smooth="yes"/>
    </contour>
  </outline>
</glyph>
<glyph name="h" format="1">
  <advance width="503"/>
  <unicode hex="0068"/>
  <outline>
    <contour>
      <point x="102" y="0" type="line"/>
      <point x="107" y="0"/>
      <point x="110" y="2"/>
      <point x="110" y="9" type="curve" smooth="yes"/>
      <point x="110" y="378" type="line" smooth="yes"/>
      <point x="110" y="447"/>
      <point x="157" y="482"/>
      <point x="222" y="482" type="curve" smooth="yes"/>
      <point x="294" y="482" type="line" smooth="yes"/>
      <point x="361" y="482"/>
      <point x="398" y="441"/>
      <point x="398" y="373" type="curve" smooth="yes"/>
      <point x="398" y="9" type="line" smooth="yes"/>
      <point x="398" y="2"/>
      <point x="401" y="0"/>
      <point x="406" y="0" type="curve" smooth="yes"/>
      <point x="420" y="0" type="line" smooth="yes"/>
      <point x="425" y="0"/>
      <point x="428" y="2"/>
      <point x="428" y="9" type="curve" smooth="yes"/>
      <point x="428" y="374" type="line" smooth="yes"/>
      <point x="428" y="457"/>
      <point x="375" y="510"/>
      <point x="294" y="510" type="curve" smooth="yes"/>
      <point x="220" y="510" type="line" smooth="yes"/>
      <point x="157" y="510"/>
      <point x="128" y="484"/>
      <point x="114" y="458" type="curve"/>
      <point x="110" y="458" type="line"/>
      <point x="110" y="694" type="line" smooth="yes"/>
      <point x="110" y="701"/>
      <point x="107" y="703"/>
      <point x="102" y="703" type="curve" smooth="yes"/>
      <point x="88" y="703" type="line" smooth="yes"/>
      <point x="83" y="703"/>
      <point x="80" y="701"/>
      <point x="80" y="694" type="curve" smooth="yes"/>
      <point x="80" y="9" type="line" smooth="yes"/>
      <point x="80" y="2"/>
      <point x="83" y="0"/>
      <point x="88" y="0" type="curve" smooth="yes"/>
    </contour>
  </outline>
</glyph>
<glyph name="j" format="1">
  <advance width="200"/>
  <unicode hex="006A"/>
  <outline>
    <contour>
      <point x="-19" y="-133" type="line" smooth="yes"/>
      <point x="62" y="-133"/>
      <point x="115" y="-80"/>
      <point x="115" y="3" type="curve" smooth="yes"/>
      <point x="115" y="501" type="line" smooth="yes"/>
      <point x="115" y="508"/>
      <point x="112" y="510"/>
      <point x="107" y="510" type="curve" smooth="yes"/>
      <point x="93" y="510" type="line" smooth="yes"/>
      <point x="88" y="510"/>
      <point x="85" y="508"/>
      <point x="85" y="501" type="curve" smooth="yes"/>
      <point x="85" y="4" type="line" smooth="yes"/>
      <point x="85" y="-64"/>
      <point x="48" y="-105"/>
      <point x="-19" y="-105" type="curve" smooth="yes"/>
      <point x="-39" y="-105" type="line" smooth="yes"/>
      <point x="-46" y="-105"/>
      <point x="-48" y="-108"/>
      <point x="-48" y="-113" type="curve" smooth="yes"/>
      <point x="-48" y="-125" type="line" smooth="yes"/>
      <point x="-48" y="-130"/>
      <point x="-46" y="-133"/>
      <point x="-39" y="-133" type="curve" smooth="yes"/>
    </contour>
    <contour>
      <point x="85" y="593" type="line"/>
      <point x="85" y="586"/>
      <point x="88" y="584"/>
      <point x="93" y="584" type="curve" smooth="yes"/>
      <point x="107" y="584" type="line" smooth="yes"/>
      <point x="112" y="584"/>
      <point x="115" y="586"/>
      <point x="115" y="593" type="curve" smooth="yes"/>
      <point x="115" y="692" type="line" smooth="yes"/>
      <point x="115" y="699"/>
      <point x="112" y="701"/>
      <point x="107" y="701" type="curve" smooth="yes"/>
      <point x="93" y="701" type="line" smooth="yes"/>
      <point x="88" y="701"/>
      <point x="85" y="699"/>
      <point x="85" y="692" type="curve" smooth="yes"/>
    </contour>
  </outline>
</glyph>
<glyph name="k" format="1">
  <advance width="420"/>
  <unicode hex="006B"/>
  <outline>
    <contour>
      <point x="192" y="270" type="line"/>
      <point x="190" y="267"/>
      <point x="190" y="261"/>
      <point x="192" y="258" type="curve" smooth="yes"/>
      <point x="367" y="9" type="line" smooth="yes"/>
      <point x="373" y="1"/>
      <point x="379" y="0"/>
      <point x="385" y="0" type="curve" smooth="yes"/>
      <point x="402" y="0" type="line" smooth="yes"/>
      <point x="406" y="0"/>
      <point x="410" y="3"/>
      <point x="405" y="9" type="curve" smooth="yes"/>
      <point x="225" y="262" type="line"/>
      <point x="225" y="266" type="line"/>
      <point x="384" y="501" type="line" smooth="yes"/>
      <point x="388" y="506"/>
      <point x="386" y="510"/>
      <point x="380" y="510" type="curve" smooth="yes"/>
      <point x="366" y="510" type="line" smooth="yes"/>
      <point x="358" y="510"/>
      <point x="354" y="509"/>
      <point x="350" y="503" type="curve" smooth="yes"/>
    </contour>
    <contour>
      <point x="102" y="0" type="line" smooth="yes"/>
      <point x="107" y="0"/>
      <point x="110" y="2"/>
      <point x="110" y="9" type="curve" smooth="yes"/>
      <point x="110" y="237"/>
      <point x="110" y="466"/>
      <point x="110" y="694" type="curve" smooth="yes"/>
      <point x="110" y="701"/>
      <point x="107" y="703"/>
      <point x="102" y="703" type="curve" smooth="yes"/>
      <point x="88" y="703" type="line" smooth="yes"/>
      <point x="83" y="703"/>
      <point x="80" y="701"/>
      <point x="80" y="694" type="curve" smooth="yes"/>
      <point x="80" y="9" type="line" smooth="yes"/>
      <point x="80" y="2"/>
      <point x="83" y="0"/>
      <point x="88" y="0" type="curve" smooth="yes"/>
    </contour>
  </outline>
</glyph>
<glyph name="l" format="1">
  <advance width="200"/>
  <unicode hex="006C"/>
  <outline>
    <contour>
      <point x="107" y="0" type="line"/>
      <point x="112" y="0"/>
      <point x="115" y="2"/>
      <point x="115" y="9" type="curve" smooth="yes"/>
      <point x="115" y="694" type="line" smooth="yes"/>
      <point x="115" y="701"/>
      <point x="112" y="703"/>
      <point x="107" y="703" type="curve" smooth="yes"/>
      <point x="93" y="703" type="line" smooth="yes"/>
      <point x="88" y="703"/>
      <point x="85" y="701"/>
      <point x="85" y="694" type="curve" smooth="yes"/>
      <point x="85" y="9" type="line" smooth="yes"/>
      <point x="85" y="2"/>
      <point x="88" y="0"/>
      <point x="93" y="0" type="curve" smooth="yes"/>
    </contour>
  </outline>
</glyph>
<glyph name="m" format="1">
  <advance width="761"/>
  <unicode hex="006D"/>
  <outline>
    <contour>
      <point x="102" y="0" type="line"/>
      <point x="107" y="0"/>
      <point x="110" y="2"/>
      <point x="110" y="9" type="curve" smooth="yes"/>
      <point x="110" y="378" type="line" smooth="yes"/>
      <point x="110" y="447"/>
      <point x="157" y="482"/>
      <point x="222" y="482" type="curve" smooth="yes"/>
      <point x="264" y="482" type="line" smooth="yes"/>
      <point x="331" y="482"/>
      <point x="368" y="441"/>
      <point x="368" y="373" type="curve" smooth="yes"/>
      <point x="368" y="9" type="line" smooth="yes"/>
      <point x="368" y="2"/>
      <point x="371" y="0"/>
      <point x="376" y="0" type="curve" smooth="yes"/>
      <point x="390" y="0" type="line" smooth="yes"/>
      <point x="395" y="0"/>
      <point x="398" y="2"/>
      <point x="398" y="9" type="curve" smooth="yes"/>
      <point x="398" y="373" type="line" smooth="yes"/>
      <point x="398" y="441"/>
      <point x="445" y="482"/>
      <point x="512" y="482" type="curve" smooth="yes"/>
      <point x="552" y="482" type="line" smooth="yes"/>
      <point x="619" y="482"/>
      <point x="656" y="441"/>
      <point x="656" y="373" type="curve" smooth="yes"/>
      <point x="656" y="9" type="line" smooth="yes"/>
      <point x="656" y="2"/>
      <point x="659" y="0"/>
      <point x="664" y="0" type="curve" smooth="yes"/>
      <point x="678" y="0" type="line" smooth="yes"/>
      <point x="683" y="0"/>
      <point x="686" y="2"/>
      <point x="686" y="9" type="curve" smooth="yes"/>
      <point x="686" y="374" type="line" smooth="yes"/>
      <point x="686" y="457"/>
      <point x="633" y="510"/>
      <point x="552" y="510" type="curve" smooth="yes"/>
      <point x="512" y="510" type="line" smooth="yes"/>
      <point x="469" y="510"/>
      <point x="406" y="490"/>
      <point x="385" y="439" type="curve"/>
      <point x="364" y="484"/>
      <point x="321" y="510"/>
      <point x="264" y="510" type="curve" smooth="yes"/>
      <point x="220" y="510" type="line" smooth="yes"/>
      <point x="157" y="510"/>
      <point x="128" y="484"/>
      <point x="114" y="458" type="curve"/>
      <point x="110" y="458" type="line"/>
      <point x="110" y="501" type="line" smooth="yes"/>
      <point x="110" y="508"/>
      <point x="107" y="510"/>
      <point x="102" y="510" type="curve" smooth="yes"/>
      <point x="88" y="510" type="line" smooth="yes"/>
      <point x="83" y="510"/>
      <point x="80" y="508"/>
      <point x="80" y="501" type="curve" smooth="yes"/>
      <point x="80" y="9" type="line" smooth="yes"/>
      <point x="80" y="2"/>
      <point x="83" y="0"/>
      <point x="88" y="0" type="curve" smooth="yes"/>
    </contour>
  </outline>
</glyph>
<glyph name="o" format="1">
  <advance width="493"/>
  <unicode hex="006F"/>
  <outline>
    <contour>
      <point x="204" y="28" type="line"/>
      <point x="137" y="28"/>
      <point x="100" y="69"/>
      <point x="100" y="137" type="curve" smooth="yes"/>
      <point x="100" y="373" type="line" smooth="yes"/>
      <point x="100" y="441"/>
      <point x="137" y="482"/>
      <point x="204" y="482" type="curve" smooth="yes"/>
      <point x="289" y="482" type="line" smooth="yes"/>
      <point x="356" y="482"/>
      <point x="393" y="441"/>
      <point x="393" y="373" type="curve" smooth="yes"/>
      <point x="393" y="137" type="line" smooth="yes"/>
      <point x="393" y="69"/>
      <point x="356" y="28"/>
      <point x="289" y="28" type="curve" smooth="yes"/>
    </contour>
    <contour>
      <point x="289" y="0" type="line"/>
      <point x="370" y="0"/>
      <point x="423" y="53"/>
      <point x="423" y="136" type="curve" smooth="yes"/>
      <point x="423" y="374" type="line" smooth="yes"/>
      <point x="423" y="457"/>
      <point x="370" y="510"/>
      <point x="289" y="510" type="curve" smooth="yes"/>
      <point x="204" y="510" type="line" smooth="yes"/>
      <point x="123" y="510"/>
      <point x="70" y="457"/>
      <point x="70" y="374" type="curve" smooth="yes"/>
      <point x="70" y="136" type="line" smooth="yes"/>
      <point x="70" y="53"/>
      <point x="123" y="0"/>
      <point x="204" y="0" type="curve" smooth="yes"/>
    </contour>
  </outline>
</glyph>
<glyph name="p" format="1">
  <advance width="498"/>
  <unicode hex="0070"/>
  <outline>
    <contour>
      <point x="222" y="28" type="line" smooth="yes"/>
      <point x="157" y="28"/>
      <point x="110" y="63"/>
      <point x="110" y="132" type="curve" smooth="yes"/>
      <point x="110" y="378" type="line" smooth="yes"/>
      <point x="110" y="447"/>
      <point x="157" y="482"/>
      <point x="222" y="482" type="curve" smooth="yes"/>
      <point x="294" y="482" type="line" smooth="yes"/>
      <point x="361" y="482"/>
      <point x="398" y="441"/>
      <point x="398" y="373" type="curve" smooth="yes"/>
      <point x="398" y="137" type="line" smooth="yes"/>
      <point x="398" y="69"/>
      <point x="361" y="28"/>
      <point x="294" y="28" type="curve" smooth="yes"/>
    </contour>
    <contour>
      <point x="102" y="-153" type="line"/>
      <point x="107" y="-153"/>
      <point x="110" y="-151"/>
      <point x="110" y="-144" type="curve" smooth="yes"/>
      <point x="110" y="52" type="line"/>
      <point x="114" y="52" type="line"/>
      <point x="128" y="26"/>
      <point x="157" y="0"/>
      <point x="220" y="0" type="curve" smooth="yes"/>
      <point x="294" y="0" type="line" smooth="yes"/>
      <point x="375" y="0"/>
      <point x="428" y="53"/>
      <point x="428" y="136" type="curve" smooth="yes"/>
      <point x="428" y="374" type="line" smooth="yes"/>
      <point x="428" y="457"/>
      <point x="375" y="510"/>
      <point x="294" y="510" type="curve" smooth="yes"/>
      <point x="220" y="510" type="line" smooth="yes"/>
      <point x="157" y="510"/>
      <point x="128" y="484"/>
      <point x="114" y="458" type="curve"/>
      <point x="110" y="458" type="line"/>
      <point x="110" y="501" type="line" smooth="yes"/>
      <point x="110" y="508"/>
      <point x="107" y="510"/>
      <point x="102" y="510" type="curve" smooth="yes"/>
      <point x="88" y="510" type="line" smooth="yes"/>
      <point x="83" y="510"/>
      <point x="80" y="508"/>
      <point x="80" y="501" type="curve" smooth="yes"/>
      <point x="80" y="-144" type="line" smooth="yes"/>
      <point x="80" y="-151"/>
      <point x="83" y="-153"/>
      <point x="88" y="-153" type="curve" smooth="yes"/>
    </contour>
  </outline>
</glyph>
<glyph name="r" format="1">
  <advance width="303"/>
  <unicode hex="0072"/>
  <outline>
    <contour>
      <point x="102" y="0" type="line"/>
      <point x="107" y="0"/>
      <point x="110" y="2"/>
      <point x="110" y="9" type="curve" smooth="yes"/>
      <point x="110" y="363" type="line" smooth="yes"/>
      <point x="110" y="437"/>
      <point x="156" y="482"/>
      <point x="223" y="482" type="curve" smooth="yes"/>
      <point x="264" y="482" type="line" smooth="yes"/>
      <point x="271" y="482"/>
      <point x="273" y="485"/>
      <point x="273" y="490" type="curve" smooth="yes"/>
      <point x="273" y="502" type="line" smooth="yes"/>
      <point x="273" y="507"/>
      <point x="271" y="510"/>
      <point x="264" y="510" type="curve" smooth="yes"/>
      <point x="224" y="510" type="line" smooth="yes"/>
      <point x="158" y="510"/>
      <point x="125" y="476"/>
      <point x="114" y="456" type="curve"/>
      <point x="110" y="456" type="line"/>
      <point x="110" y="501" type="line" smooth="yes"/>
      <point x="110" y="508"/>
      <point x="107" y="510"/>
      <point x="102" y="510" type="curve" smooth="yes"/>
      <point x="88" y="510" type="line" smooth="yes"/>
      <point x="83" y="510"/>
      <point x="80" y="508"/>
      <point x="80" y="501" type="curve" smooth="yes"/>
      <point x="80" y="9" type="line" smooth="yes"/>
      <point x="80" y="2"/>
      <point x="83" y="0"/>
      <point x="88" y="0" type="curve" smooth="yes"/>
    </contour>
  </outline>
</glyph>
<glyph name="s" format="1">
  <advance width="429"/>
  <unicode hex="0073"/>
  <outline>
    <contour>
      <point x="238" y="0" type="line"/>
      <point x="325" y="0"/>
      <point x="369" y="31"/>
      <point x="369" y="120" type="curve" smooth="yes"/>
      <point x="369" y="182"/>
      <point x="362" y="238"/>
      <point x="284" y="260" type="curve"/>
      <point x="153" y="307" type="line" smooth="yes"/>
      <point x="110" y="322"/>
      <point x="85" y="341"/>
      <point x="85" y="386" type="curve" smooth="yes"/>
      <point x="85" y="413" type="line" smooth="yes"/>
      <point x="85" y="444"/>
      <point x="109" y="482"/>
      <point x="176" y="482" type="curve" smooth="yes"/>
      <point x="337" y="482" type="line" smooth="yes"/>
      <point x="344" y="482"/>
      <point x="346" y="485"/>
      <point x="346" y="490" type="curve" smooth="yes"/>
      <point x="346" y="502" type="line" smooth="yes"/>
      <point x="346" y="507"/>
      <point x="344" y="510"/>
      <point x="337" y="510" type="curve" smooth="yes"/>
      <point x="176" y="510" type="line" smooth="yes"/>
      <point x="89" y="510"/>
      <point x="54" y="465"/>
      <point x="54" y="398" type="curve" smooth="yes"/>
      <point x="54" y="335"/>
      <point x="77" y="303"/>
      <point x="147" y="279" type="curve" smooth="yes"/>
      <point x="279" y="233" type="line" smooth="yes"/>
      <point x="328" y="216"/>
      <point x="339" y="182"/>
      <point x="339" y="138" type="curve" smooth="yes"/>
      <point x="339" y="108" type="line" smooth="yes"/>
      <point x="339" y="54"/>
      <point x="305" y="28"/>
      <point x="238" y="28" type="curve" smooth="yes"/>
      <point x="68" y="28" type="line" smooth="yes"/>
      <point x="61" y="28"/>
      <point x="59" y="25"/>
      <point x="59" y="20" type="curve" smooth="yes"/>
      <point x="59" y="8" type="line" smooth="yes"/>
      <point x="59" y="3"/>
      <point x="61" y="0"/>
      <point x="68" y="0" type="curve" smooth="yes"/>
    </contour>
  </outline>
</glyph>
<glyph name="v" format="1">
  <advance width="402"/>
  <unicode hex="0076"/>
  <outline>
    <contour>
      <point x="179" y="9" type="line"/>
      <point x="181" y="2"/>
      <point x="184" y="0"/>
      <point x="190" y="0" type="curve" smooth="yes"/>
      <point x="212" y="0" type="line" smooth="yes"/>
      <point x="218" y="0"/>
      <point x="221" y="2"/>
      <point x="223" y="9" type="curve" smooth="yes"/>
      <point x="381" y="501" type="line" smooth="yes"/>
      <point x="383" y="508"/>
      <point x="380" y="510"/>
      <point x="375" y="510" type="curve" smooth="yes"/>
      <point x="359" y="510" type="line" smooth="yes"/>
      <point x="354" y="510"/>
      <point x="351" y="508"/>
      <point x="349" y="501" type="curve" smooth="yes"/>
      <point x="203" y="41" type="line"/>
      <point x="199" y="41" type="line"/>
      <point x="53" y="501" type="line" smooth="yes"/>
      <point x="51" y="508"/>
      <point x="48" y="510"/>
      <point x="43" y="510" type="curve" smooth="yes"/>
      <point x="27" y="510" type="line" smooth="yes"/>
      <point x="22" y="510"/>
      <point x="19" y="508"/>
      <point x="21" y="501" type="curve" smooth="yes"/>
    </contour>
  </outline>
</glyph>
<glyph name="w" format="1">
  <advance width="679"/>
  <unicode hex="0077"/>
  <outline>
    <contour>
      <point x="202" y="0" type="line"/>
      <point x="208" y="0"/>
      <point x="211" y="2"/>
      <point x="213" y="9" type="curve" smooth="yes"/>
      <point x="337" y="454" type="line"/>
      <point x="341" y="454" type="line"/>
      <point x="465" y="9" type="line" smooth="yes"/>
      <point x="467" y="2"/>
      <point x="470" y="0"/>
      <point x="476" y="0" type="curve" smooth="yes"/>
      <point x="497" y="0" type="line" smooth="yes"/>
      <point x="503" y="0"/>
      <point x="506" y="2"/>
      <point x="508" y="9" type="curve" smooth="yes"/>
      <point x="658" y="501" type="line" smooth="yes"/>
      <point x="660" y="508"/>
      <point x="657" y="510"/>
      <point x="652" y="510" type="curve" smooth="yes"/>
      <point x="636" y="510" type="line" smooth="yes"/>
      <point x="631" y="510"/>
      <point x="628" y="508"/>
      <point x="626" y="501" type="curve" smooth="yes"/>
      <point x="488" y="41" type="line"/>
      <point x="484" y="41" type="line"/>
      <point x="358" y="501" type="line" smooth="yes"/>
      <point x="356" y="509"/>
      <point x="352" y="510"/>
      <point x="347" y="510" type="curve" smooth="yes"/>
      <point x="333" y="510" type="line" smooth="yes"/>
      <point x="328" y="510"/>
      <point x="324" y="509"/>
      <point x="322" y="501" type="curve" smooth="yes"/>
      <point x="194" y="41" type="line"/>
      <point x="190" y="41" type="line"/>
      <point x="52" y="501" type="line" smooth="yes"/>
      <point x="50" y="508"/>
      <point x="47" y="510"/>
      <point x="42" y="510" type="curve" smooth="yes"/>
      <point x="27" y="510" type="line" smooth="yes"/>
      <point x="22" y="510"/>
      <point x="19" y="508"/>
      <point x="21" y="501" type="curve" smooth="yes"/>
      <point x="171" y="9" type="line" smooth="yes"/>
      <point x="173" y="2"/>
      <point x="176" y="0"/>
      <point x="182" y="0" type="curve" smooth="yes"/>
    </contour>
  </outline>
</glyph>
<glyph name="x" format="1">
  <advance width="400"/>
  <unicode hex="0078"/>
  <outline>
    <contour>
      <point x="51" y="0" type="line" smooth="yes"/>
      <point x="56" y="0"/>
      <point x="59" y="2"/>
      <point x="64" y="9" type="curve"/>
      <point x="198" y="240" type="line"/>
      <point x="202" y="240" type="line"/>
      <point x="336" y="9" type="line"/>
      <point x="341" y="2"/>
      <point x="341" y="0"/>
      <point x="346" y="0" type="curve" smooth="yes"/>
      <point x="369" y="0" type="line" smooth="yes"/>
      <point x="374" y="0"/>
      <point x="377" y="2"/>
      <point x="372" y="9" type="curve"/>
      <point x="221" y="262" type="line"/>
      <point x="360" y="501" type="line"/>
      <point x="365" y="508"/>
      <point x="362" y="510"/>
      <point x="357" y="510" type="curve" smooth="yes"/>
      <point x="338" y="510" type="line" smooth="yes"/>
      <point x="333" y="510"/>
      <point x="330" y="508"/>
      <point x="325" y="501" type="curve"/>
      <point x="202" y="283" type="line"/>
      <point x="198" y="283" type="line"/>
      <point x="72" y="501" type="line"/>
      <point x="67" y="508"/>
      <point x="64" y="510"/>
      <point x="59" y="510" type="curve" smooth="yes"/>
      <point x="40" y="510" type="line" smooth="yes"/>
      <point x="35" y="510"/>
      <point x="32" y="508"/>
      <point x="37" y="501" type="curve"/>
      <point x="178" y="260" type="line"/>
      <point x="28" y="9" type="line" smooth="yes"/>
      <point x="23" y="2"/>
      <point x="26" y="0"/>
      <point x="31" y="0" type="curve" smooth="yes"/>
    </contour>
  </outline>
</glyph>
<glyph name="braceleft" format="1">
  <advance width="293"/>
  <unicode hex="007B"/>
  <outline>
    <contour>
      <point x="220" y="643" type="line"/>
      <point x="149" y="643"/>
      <point x="116" y="590"/>
      <point x="116" y="507" type="curve" smooth="yes"/>
      <point x="116" y="366" type="line" smooth="yes"/>
      <point x="116" y="305"/>
      <point x="92" y="284"/>
      <point x="49" y="284" type="curve" smooth="yes"/>
      <point x="42" y="284"/>
      <point x="40" y="281"/>
      <point x="40" y="276" type="curve" smooth="yes"/>
      <point x="40" y="264" type="line" smooth="yes"/>
      <point x="40" y="259"/>
      <point x="42" y="256"/>
      <point x="49" y="256" type="curve" smooth="yes"/>
      <point x="92" y="256"/>
      <point x="116" y="235"/>
      <point x="116" y="174" type="curve" smooth="yes"/>
      <point x="116" y="34" type="line" smooth="yes"/>
      <point x="116" y="-49"/>
      <point x="149" y="-102"/>
      <point x="220" y="-102" type="curve" smooth="yes"/>
      <point x="224" y="-102" type="line" smooth="yes"/>
      <point x="231" y="-102"/>
      <point x="233" y="-99"/>
      <point x="233" y="-94" type="curve" smooth="yes"/>
      <point x="233" y="-82" type="line" smooth="yes"/>
      <point x="233" y="-77"/>
      <point x="231" y="-74"/>
      <point x="224" y="-74" type="curve" smooth="yes"/>
      <point x="220" y="-74" type="line" smooth="yes"/>
      <point x="163" y="-74"/>
      <point x="146" y="-33"/>
      <point x="146" y="35" type="curve" smooth="yes"/>
      <point x="146" y="175" type="line" smooth="yes"/>
      <point x="146" y="224"/>
      <point x="127" y="259"/>
      <point x="94" y="270" type="curve"/>
      <point x="127" y="281"/>
      <point x="146" y="315"/>
      <point x="146" y="365" type="curve" smooth="yes"/>
      <point x="146" y="506" type="line" smooth="yes"/>
      <point x="146" y="574"/>
      <point x="163" y="615"/>
      <point x="220" y="615" type="curve" smooth="yes"/>
      <point x="224" y="615" type="line" smooth="yes"/>
      <point x="231" y="615"/>
      <point x="233" y="618"/>
      <point x="233" y="623" type="curve" smooth="yes"/>
      <point x="233" y="635" type="line" smooth="yes"/>
      <point x="233" y="640"/>
      <point x="231" y="643"/>
      <point x="224" y="643" type="curve" smooth="yes"/>
    </contour>
  </outline>
</glyph>
<glyph name="cent" format="1">
  <advance width="410"/>
  <unicode hex="00A2"/>
  <outline>
    <contour>
      <point x="267" y="-89" type="line"/>
      <point x="272" y="-89"/>
      <point x="275" y="-87"/>
      <point x="275" y="-80" type="curve" smooth="yes"/>
      <point x="275" y="0" type="line"/>
      <point x="366" y="0" type="line" smooth="yes"/>
      <point x="373" y="0"/>
      <point x="375" y="3"/>
      <point x="375" y="8" type="curve" smooth="yes"/>
      <point x="375" y="20" type="line" smooth="yes"/>
      <point x="375" y="25"/>
      <point x="373" y="28"/>
      <point x="366" y="28" type="curve" smooth="yes"/>
      <point x="204" y="28" type="line" smooth="yes"/>
      <point x="137" y="28"/>
      <point x="100" y="69"/>
      <point x="100" y="137" type="curve" smooth="yes"/>
      <point x="100" y="373" type="line" smooth="yes"/>
      <point x="100" y="441"/>
      <point x="137" y="482"/>
      <point x="204" y="482" type="curve" smooth="yes"/>
      <point x="366" y="482" type="line" smooth="yes"/>
      <point x="373" y="482"/>
      <point x="375" y="485"/>
      <point x="375" y="490" type="curve" smooth="yes"/>
      <point x="375" y="502" type="line" smooth="yes"/>
      <point x="375" y="507"/>
      <point x="373" y="510"/>
      <point x="366" y="510" type="curve" smooth="yes"/>
      <point x="275" y="510" type="line"/>
      <point x="275" y="605" type="line" smooth="yes"/>
      <point x="275" y="612"/>
      <point x="272" y="614"/>
      <point x="267" y="614" type="curve" smooth="yes"/>
      <point x="253" y="614" type="line" smooth="yes"/>
      <point x="248" y="614"/>
      <point x="245" y="612"/>
      <point x="245" y="605" type="curve" smooth="yes"/>
      <point x="245" y="510" type="line"/>
      <point x="204" y="510" type="line" smooth="yes"/>
      <point x="123" y="510"/>
      <point x="70" y="457"/>
      <point x="70" y="374" type="curve" smooth="yes"/>
      <point x="70" y="136" type="line" smooth="yes"/>
      <point x="70" y="53"/>
      <point x="123" y="0"/>
      <point x="204" y="0" type="curve" smooth="yes"/>
      <point x="245" y="0" type="line"/>
      <point x="245" y="-80" type="line" smooth="yes"/>
      <point x="245" y="-87"/>
      <point x="248" y="-89"/>
      <point x="253" y="-89" type="curve" smooth="yes"/>
    </contour>
  </outline>
</glyph>
<glyph name="currency" format="1">
  <advance width="463"/>
  <unicode hex="00A4"/>
  <outline>
    <contour>
      <point x="204" y="188" type="line" smooth="yes"/>
      <point x="137" y="188"/>
      <point x="100" y="229"/>
      <point x="100" y="297" type="curve" smooth="yes"/>
      <point x="100" y="363" type="line" smooth="yes"/>
      <point x="100" y="431"/>
      <point x="137" y="472"/>
      <point x="204" y="472" type="curve" smooth="yes"/>
      <point x="259" y="472" type="line" smooth="yes"/>
      <point x="326" y="472"/>
      <point x="363" y="431"/>
      <point x="363" y="363" type="curve" smooth="yes"/>
      <point x="363" y="297" type="line" smooth="yes"/>
      <point x="363" y="229"/>
      <point x="326" y="188"/>
      <point x="259" y="188" type="curve" smooth="yes"/>
    </contour>
    <contour>
      <point x="259" y="160" type="line" smooth="yes"/>
      <point x="340" y="160"/>
      <point x="393" y="213"/>
      <point x="393" y="296" type="curve" smooth="yes"/>
      <point x="393" y="364" type="line" smooth="yes"/>
      <point x="393" y="447"/>
      <point x="340" y="500"/>
      <point x="259" y="500" type="curve" smooth="yes"/>
      <point x="204" y="500" type="line" smooth="yes"/>
      <point x="123" y="500"/>
      <point x="70" y="447"/>
      <point x="70" y="364" type="curve" smooth="yes"/>
      <point x="70" y="296" type="line" smooth="yes"/>
      <point x="70" y="213"/>
      <point x="123" y="160"/>
      <point x="204" y="160" type="curve" smooth="yes"/>
    </contour>
    <contour>
      <point x="340" y="199" type="line"/>
      <point x="396" y="143" type="line" smooth="yes"/>
      <point x="401" y="138"/>
      <point x="405" y="139"/>
      <point x="408" y="143" type="curve" smooth="yes"/>
      <point x="418" y="153" type="line" smooth="yes"/>
      <point x="422" y="156"/>
      <point x="423" y="160"/>
      <point x="418" y="165" type="curve" smooth="yes"/>
      <point x="358" y="225" type="line"/>
    </contour>
    <contour>
      <point x="127" y="455" type="line"/>
      <point x="66" y="516" type="line" smooth="yes"/>
      <point x="61" y="521"/>
      <point x="57" y="520"/>
      <point x="54" y="516" type="curve" smooth="yes"/>
      <point x="44" y="506" type="line" smooth="yes"/>
      <point x="40" y="503"/>
      <point x="39" y="499"/>
      <point x="44" y="494" type="curve" smooth="yes"/>
      <point x="103" y="435" type="line"/>
    </contour>
    <contour>
      <point x="356" y="432" type="line"/>
      <point x="418" y="494" type="line" smooth="yes"/>
      <point x="423" y="499"/>
      <point x="422" y="503"/>
      <point x="418" y="506" type="curve" smooth="yes"/>
      <point x="408" y="516" type="line" smooth="yes"/>
      <point x="405" y="520"/>
      <point x="401" y="521"/>
      <point x="396" y="516" type="curve" smooth="yes"/>
      <point x="339" y="459" type="line"/>
    </contour>
    <contour>
      <point x="105" y="226" type="line"/>
      <point x="44" y="165" type="line" smooth="yes"/>
      <point x="39" y="160"/>
      <point x="40" y="156"/>
      <point x="44" y="153" type="curve" smooth="yes"/>
      <point x="54" y="143" type="line" smooth="yes"/>
      <point x="57" y="139"/>
      <point x="61" y="138"/>
      <point x="66" y="143" type="curve" smooth="yes"/>
      <point x="128" y="205" type="line"/>
    </contour>
  </outline>
</glyph>
<glyph name="ordfeminine" format="1">
  <advance width="375"/>
  <unicode hex="00AA"/>
  <outline>
    <contour>
      <point x="284" y="451" type="line"/>
      <point x="284" y="382"/>
      <point x="247" y="347"/>
      <point x="182" y="347" type="curve" smooth="yes"/>
      <point x="177" y="347" type="line" smooth="yes"/>
      <point x="110" y="347"/>
      <point x="83" y="388"/>
      <point x="83" y="456" type="curve" smooth="yes"/>
      <point x="83" y="506" type="line" smooth="yes"/>
      <point x="83" y="574"/>
      <point x="120" y="615"/>
      <point x="187" y="615" type="curve" smooth="yes"/>
      <point x="275" y="615" type="line" smooth="yes"/>
      <point x="282" y="615"/>
      <point x="284" y="612"/>
      <point x="284" y="607" type="curve" smooth="yes"/>
    </contour>
    <contour>
      <point x="184" y="319" type="line" smooth="yes"/>
      <point x="236" y="319"/>
      <point x="266" y="339"/>
      <point x="280" y="365" type="curve"/>
      <point x="284" y="365" type="line"/>
      <point x="284" y="328" type="line" smooth="yes"/>
      <point x="284" y="321"/>
      <point x="287" y="319"/>
      <point x="292" y="319" type="curve" smooth="yes"/>
      <point x="306" y="319" type="line" smooth="yes"/>
      <point x="311" y="319"/>
      <point x="314" y="321"/>
      <point x="314" y="328" type="curve" smooth="yes"/>
      <point x="314" y="634" type="line" smooth="yes"/>
      <point x="314" y="641"/>
      <point x="311" y="643"/>
      <point x="306" y="643" type="curve" smooth="yes"/>
      <point x="187" y="643" type="line" smooth="yes"/>
      <point x="106" y="643"/>
      <point x="53" y="590"/>
      <point x="53" y="507" type="curve" smooth="yes"/>
      <point x="53" y="455" type="line" smooth="yes"/>
      <point x="53" y="372"/>
      <point x="96" y="319"/>
      <point x="177" y="319" type="curve" smooth="yes"/>
    </contour>
  </outline>
</glyph>
<glyph name="plusminus" format="1">
  <advance width="512"/>
  <unicode hex="00B1"/>
  <outline>
    <contour>
      <point x="271" y="498" type="line" smooth="yes"/>
      <point x="271" y="505"/>
      <point x="268" y="507"/>
      <point x="263" y="507" type="curve" smooth="yes"/>
      <point x="249" y="507" type="line" smooth="yes"/>
      <point x="244" y="507"/>
      <point x="241" y="505"/>
      <point x="241" y="498" type="curve" smooth="yes"/>
      <point x="241" y="230" type="line" smooth="yes"/>
      <point x="241" y="223"/>
      <point x="244" y="221"/>
      <point x="249" y="221" type="curve" smooth="yes"/>
      <point x="263" y="221" type="line" smooth="yes"/>
      <point x="268" y="221"/>
      <point x="271" y="223"/>
      <point x="271" y="230" type="curve" smooth="yes"/>
    </contour>
    <contour>
      <point x="79" y="378" type="line" smooth="yes"/>
      <point x="72" y="378"/>
      <point x="70" y="375"/>
      <point x="70" y="370" type="curve" smooth="yes"/>
      <point x="70" y="358" type="line" smooth="yes"/>
      <point x="70" y="353"/>
      <point x="72" y="350"/>
      <point x="79" y="350" type="curve" smooth="yes"/>
      <point x="433" y="350" type="line" smooth="yes"/>
      <point x="440" y="350"/>
      <point x="442" y="353"/>
      <point x="442" y="358" type="curve" smooth="yes"/>
      <point x="442" y="370" type="line" smooth="yes"/>
      <point x="442" y="375"/>
      <point x="440" y="378"/>
      <point x="433" y="378" type="curve" smooth="yes"/>
    </contour>
    <contour>
      <point x="79" y="163" type="line" smooth="yes"/>
      <point x="72" y="163"/>
      <point x="70" y="160"/>
      <point x="70" y="155" type="curve" smooth="yes"/>
      <point x="70" y="143" type="line" smooth="yes"/>
      <point x="70" y="138"/>
      <point x="72" y="135"/>
      <point x="79" y="135" type="curve" smooth="yes"/>
      <point x="433" y="135" type="line" smooth="yes"/>
      <point x="440" y="135"/>
      <point x="442" y="138"/>
      <point x="442" y="143" type="curve" smooth="yes"/>
      <point x="442" y="155" type="line" smooth="yes"/>
      <point x="442" y="160"/>
      <point x="440" y="163"/>
      <point x="433" y="163" type="curve" smooth="yes"/>
    </contour>
  </outline>
</glyph>
<glyph name="twosuperior" format="1">
  <advance width="309"/>
  <unicode hex="00B2"/>
  <outline>
    <contour>
      <point x="44" y="308" type="line" smooth="yes"/>
      <point x="44" y="303"/>
      <point x="46" y="300"/>
      <point x="53" y="300" type="curve" smooth="yes"/>
      <point x="262" y="300" type="line" smooth="yes"/>
      <point x="269" y="300"/>
      <point x="271" y="303"/>
      <point x="271" y="308" type="curve" smooth="yes"/>
      <point x="271" y="320" type="line" smooth="yes"/>
      <point x="271" y="325"/>
      <point x="269" y="328"/>
      <point x="262" y="328" type="curve" smooth="yes"/>
      <point x="74" y="328" type="line"/>
      <point x="74" y="332" type="line" smooth="yes"/>
      <point x="74" y="351"/>
      <point x="90" y="365"/>
      <point x="131" y="394" type="curve"/>
      <point x="210" y="450" type="line" smooth="yes"/>
      <point x="247" y="476"/>
      <point x="264" y="495"/>
      <point x="264" y="546" type="curve" smooth="yes"/>
      <point x="264" y="553" type="line" smooth="yes"/>
      <point x="264" y="611"/>
      <point x="229" y="643"/>
      <point x="156" y="643" type="curve" smooth="yes"/>
      <point x="151" y="643" type="line" smooth="yes"/>
      <point x="76" y="643"/>
      <point x="43" y="610"/>
      <point x="43" y="550" type="curve" smooth="yes"/>
      <point x="43" y="541" type="line" smooth="yes"/>
      <point x="43" y="534"/>
      <point x="46" y="532"/>
      <point x="51" y="532" type="curve" smooth="yes"/>
      <point x="65" y="532" type="line" smooth="yes"/>
      <point x="70" y="532"/>
      <point x="73" y="534"/>
      <point x="73" y="541" type="curve" smooth="yes"/>
      <point x="73" y="549" type="line" smooth="yes"/>
      <point x="73" y="592"/>
      <point x="92" y="615"/>
      <point x="151" y="615" type="curve" smooth="yes"/>
      <point x="156" y="615" type="line" smooth="yes"/>
      <point x="215" y="615"/>
      <point x="234" y="593"/>
      <point x="234" y="552" type="curve" smooth="yes"/>
      <point x="234" y="547" type="line" smooth="yes"/>
      <point x="234" y="512"/>
      <point x="226" y="495"/>
      <point x="191" y="471" type="curve" smooth="yes"/>
      <point x="114" y="417" type="line"/>
      <point x="67" y="384"/>
      <point x="44" y="368"/>
      <point x="44" y="329" type="curve" smooth="yes"/>
    </contour>
  </outline>
</glyph>
<glyph name="threesuperior" format="1">
  <advance width="336"/>
  <unicode hex="00B3"/>
  <outline>
    <contour>
      <point x="159" y="487" type="line" smooth="yes"/>
      <point x="152" y="487"/>
      <point x="150" y="484"/>
      <point x="150" y="479" type="curve" smooth="yes"/>
      <point x="150" y="467" type="line" smooth="yes"/>
      <point x="150" y="462"/>
      <point x="152" y="459"/>
      <point x="159" y="459" type="curve" smooth="yes"/>
      <point x="181" y="459" type="line" smooth="yes"/>
      <point x="228" y="459"/>
      <point x="255" y="445"/>
      <point x="255" y="403" type="curve" smooth="yes"/>
      <point x="255" y="397" type="line" smooth="yes"/>
      <point x="255" y="346"/>
      <point x="230" y="328"/>
      <point x="178" y="328" type="curve" smooth="yes"/>
      <point x="173" y="328" type="line" smooth="yes"/>
      <point x="134" y="328"/>
      <point x="87" y="333"/>
      <point x="87" y="395" type="curve" smooth="yes"/>
      <point x="87" y="414" type="line" smooth="yes"/>
      <point x="87" y="421"/>
      <point x="84" y="423"/>
      <point x="79" y="423" type="curve" smooth="yes"/>
      <point x="65" y="423" type="line" smooth="yes"/>
      <point x="60" y="423"/>
      <point x="57" y="421"/>
      <point x="57" y="414" type="curve" smooth="yes"/>
      <point x="57" y="394" type="line" smooth="yes"/>
      <point x="57" y="316"/>
      <point x="114" y="300"/>
      <point x="173" y="300" type="curve" smooth="yes"/>
      <point x="178" y="300" type="line" smooth="yes"/>
      <point x="256" y="300"/>
      <point x="285" y="332"/>
      <point x="285" y="398" type="curve" smooth="yes"/>
      <point x="285" y="404" type="line" smooth="yes"/>
      <point x="285" y="437"/>
      <point x="273" y="466"/>
      <point x="233" y="472" type="curve"/>
      <point x="274" y="482"/>
      <point x="285" y="514"/>
      <point x="285" y="542" type="curve" smooth="yes"/>
      <point x="285" y="550" type="line" smooth="yes"/>
      <point x="285" y="607"/>
      <point x="256" y="643"/>
      <point x="175" y="643" type="curve" smooth="yes"/>
      <point x="170" y="643" type="line" smooth="yes"/>
      <point x="89" y="643"/>
      <point x="57" y="610"/>
      <point x="57" y="550" type="curve" smooth="yes"/>
      <point x="57" y="527" type="line" smooth="yes"/>
      <point x="57" y="520"/>
      <point x="60" y="518"/>
      <point x="65" y="518" type="curve" smooth="yes"/>
      <point x="79" y="518" type="line" smooth="yes"/>
      <point x="84" y="518"/>
      <point x="87" y="520"/>
      <point x="87" y="527" type="curve" smooth="yes"/>
      <point x="87" y="549" type="line" smooth="yes"/>
      <point x="87" y="593"/>
      <point x="103" y="615"/>
      <point x="170" y="615" type="curve" smooth="yes"/>
      <point x="175" y="615" type="line" smooth="yes"/>
      <point x="242" y="615"/>
      <point x="255" y="588"/>
      <point x="255" y="549" type="curve" smooth="yes"/>
      <point x="255" y="543" type="line" smooth="yes"/>
      <point x="255" y="502"/>
      <point x="238" y="487"/>
      <point x="181" y="487" type="curve" smooth="yes"/>
    </contour>
  </outline>
</glyph>
<glyph name="cedilla" format="1">
  <advance width="254"/>
  <unicode hex="00B8"/>
  <outline>
    <contour>
      <point x="77" y="-45" type="line"/>
      <point x="63" y="-60"/>
      <point x="69" y="-80"/>
      <point x="93" y="-80" type="curve" smooth="yes"/>
      <point x="94" y="-80"/>
      <point x="101" y="-80"/>
      <point x="102" y="-80" type="curve" smooth="yes"/>
      <point x="143" y="-80"/>
      <point x="157" y="-89"/>
      <point x="157" y="-116" type="curve" smooth="yes"/>
      <point x="157" y="-118" type="line" smooth="yes"/>
      <point x="157" y="-141"/>
      <point x="142" y="-152"/>
      <point x="102" y="-152" type="curve" smooth="yes"/>
      <point x="102" y="-152"/>
      <point x="86" y="-152"/>
      <point x="86" y="-152" type="curve"/>
      <point x="79" y="-152"/>
      <point x="77" y="-155"/>
      <point x="77" y="-160" type="curve" smooth="yes"/>
      <point x="77" y="-170" type="line" smooth="yes"/>
      <point x="77" y="-175"/>
      <point x="79" y="-178"/>
      <point x="86" y="-178" type="curve" smooth="yes"/>
      <point x="86" y="-178"/>
      <point x="105" y="-178"/>
      <point x="105" y="-178" type="curve"/>
      <point x="157" y="-178"/>
      <point x="184" y="-162"/>
      <point x="184" y="-121" type="curve" smooth="yes"/>
      <point x="184" y="-121"/>
      <point x="184" y="-111"/>
      <point x="184" y="-111" type="curve"/>
      <point x="184" y="-69"/>
      <point x="157" y="-54"/>
      <point x="105" y="-54" type="curve" smooth="yes"/>
      <point x="105" y="-54"/>
      <point x="105" y="-50"/>
      <point x="105" y="-50" type="curve"/>
      <point x="170" y="20" type="line"/>
      <point x="135" y="20" type="line"/>
    </contour>
  </outline>
</glyph>
<glyph name="onesuperior" format="1">
  <advance width="194"/>
  <unicode hex="00B9"/>
  <outline>
    <contour>
      <point x="111" y="610" type="line"/>
      <point x="111" y="309" type="line" smooth="yes"/>
      <point x="111" y="302"/>
      <point x="114" y="300"/>
      <point x="119" y="300" type="curve" smooth="yes"/>
      <point x="133" y="300" type="line" smooth="yes"/>
      <point x="138" y="300"/>
      <point x="141" y="302"/>
      <point x="141" y="309" type="curve" smooth="yes"/>
      <point x="141" y="634" type="line" smooth="yes"/>
      <point x="141" y="641"/>
      <point x="138" y="643"/>
      <point x="133" y="643" type="curve" smooth="yes"/>
      <point x="121" y="643" type="line" smooth="yes"/>
      <point x="113" y="643"/>
      <point x="109" y="640"/>
      <point x="105" y="638" type="curve" smooth="yes"/>
      <point x="45" y="606" type="line" smooth="yes"/>
      <point x="36" y="601"/>
      <point x="34" y="597"/>
      <point x="34" y="587" type="curve" smooth="yes"/>
      <point x="34" y="581" type="line" smooth="yes"/>
      <point x="34" y="572"/>
      <point x="40" y="569"/>
      <point x="50" y="576" type="curve"/>
    </contour>
  </outline>
</glyph>
<glyph name="guillemotright" format="1">
  <advance width="425"/>
  <unicode hex="00BB"/>
  <outline>
    <contour>
      <point x="200" y="255" type="line"/>
      <point x="75" y="125" type="line" smooth="yes"/>
      <point x="71" y="120"/>
      <point x="70" y="118"/>
      <point x="70" y="112" type="curve" smooth="yes"/>
      <point x="70" y="96" type="line" smooth="yes"/>
      <point x="70" y="89"/>
      <point x="75" y="84"/>
      <point x="81" y="91" type="curve" smooth="yes"/>
      <point x="214" y="229" type="line" smooth="yes"/>
      <point x="219" y="235"/>
      <point x="223" y="238"/>
      <point x="223" y="248" type="curve" smooth="yes"/>
      <point x="223" y="262" type="line" smooth="yes"/>
      <point x="223" y="272"/>
      <point x="219" y="275"/>
      <point x="214" y="281" type="curve" smooth="yes"/>
      <point x="81" y="419" type="line" smooth="yes"/>
      <point x="75" y="426"/>
      <point x="70" y="421"/>
      <point x="70" y="414" type="curve" smooth="yes"/>
      <point x="70" y="398" type="line" smooth="yes"/>
      <point x="70" y="392"/>
      <point x="71" y="390"/>
      <point x="75" y="385" type="curve" smooth="yes"/>
    </contour>
    <contour>
      <point x="332" y="255" type="line"/>
      <point x="207" y="125" type="line" smooth="yes"/>
      <point x="203" y="120"/>
      <point x="202" y="118"/>
      <point x="202" y="112" type="curve" smooth="yes"/>
      <point x="202" y="96" type="line" smooth="yes"/>
      <point x="202" y="89"/>
      <point x="207" y="84"/>
      <point x="213" y="91" type="curve" smooth="yes"/>
      <point x="346" y="229" type="line" smooth="yes"/>
      <point x="351" y="235"/>
      <point x="355" y="238"/>
      <point x="355" y="248" type="curve" smooth="yes"/>
      <point x="355" y="262" type="line" smooth="yes"/>
      <point x="355" y="272"/>
      <point x="351" y="275"/>
      <point x="346" y="281" type="curve" smooth="yes"/>
      <point x="213" y="419" type="line" smooth="yes"/>
      <point x="207" y="426"/>
      <point x="202" y="421"/>
      <point x="202" y="414" type="curve" smooth="yes"/>
      <point x="202" y="398" type="line" smooth="yes"/>
      <point x="202" y="392"/>
      <point x="203" y="390"/>
      <point x="207" y="385" type="curve" smooth="yes"/>
    </contour>
  </outline>
</glyph>
<glyph name="onehalf" format="1">
  <advance width="731"/>
  <unicode hex="00BD"/>
  <outline>
    <contour>
      <point x="566" y="629" type="line" smooth="yes"/>
      <point x="571" y="635"/>
      <point x="571" y="643"/>
      <point x="564" y="643" type="curve" smooth="yes"/>
      <point x="547" y="643" type="line" smooth="yes"/>
      <point x="540" y="643"/>
      <point x="536" y="640"/>
      <point x="530" y="632" type="curve"/>
      <point x="530" y="632"/>
      <point x="73" y="12"/>
      <point x="73" y="12" type="curve"/>
      <point x="67" y="4"/>
      <point x="70" y="0"/>
      <point x="76" y="0" type="curve" smooth="yes"/>
      <point x="92" y="0" type="line" smooth="yes"/>
      <point x="100" y="0"/>
      <point x="104" y="3"/>
      <point x="110" y="11" type="curve" smooth="yes"/>
    </contour>
    <component base="onesuperior"/>
    <component base="twosuperior" xOffset="384" yOffset="-300"/>
  </outline>
</glyph>
<glyph name="threequarters" format="1">
  <advance width="798"/>
  <unicode hex="00BE"/>
  <outline>
    <contour>
      <point x="653" y="629" type="line" smooth="yes"/>
      <point x="658" y="635"/>
      <point x="658" y="643"/>
      <point x="651" y="643" type="curve" smooth="yes"/>
      <point x="634" y="643" type="line" smooth="yes"/>
      <point x="627" y="643"/>
      <point x="623" y="640"/>
      <point x="617" y="632" type="curve"/>
      <point x="617" y="632"/>
      <point x="160" y="12"/>
      <point x="160" y="12" type="curve"/>
      <point x="154" y="4"/>
      <point x="157" y="0"/>
      <point x="163" y="0" type="curve" smooth="yes"/>
      <point x="179" y="0" type="line" smooth="yes"/>
      <point x="187" y="0"/>
      <point x="191" y="3"/>
      <point x="197" y="11" type="curve" smooth="yes"/>
    </contour>
    <contour>
      <point x="656" y="0" type="line" smooth="yes"/>
      <point x="661" y="0"/>
      <point x="664" y="2"/>
      <point x="664" y="9" type="curve" smooth="yes"/>
      <point x="664" y="75" type="line"/>
      <point x="710" y="75" type="line" smooth="yes"/>
      <point x="717" y="75"/>
      <point x="719" y="78"/>
      <point x="719" y="83" type="curve" smooth="yes"/>
      <point x="719" y="95" type="line" smooth="yes"/>
      <point x="719" y="100"/>
      <point x="717" y="103"/>
      <point x="710" y="103" type="curve" smooth="yes"/>
      <point x="664" y="103" type="line"/>
      <point x="664" y="334" type="line" smooth="yes"/>
      <point x="664" y="341"/>
      <point x="661" y="343"/>
      <point x="656" y="343" type="curve" smooth="yes"/>
      <point x="627" y="343" type="line" smooth="yes"/>
      <point x="617" y="343"/>
      <point x="612" y="339"/>
      <point x="608" y="332" type="curve" smooth="yes"/>
      <point x="479" y="111" type="line" smooth="yes"/>
      <point x="475" y="105"/>
      <point x="473" y="102"/>
      <point x="473" y="95" type="curve" smooth="yes"/>
      <point x="473" y="83" type="line" smooth="yes"/>
      <point x="473" y="78"/>
      <point x="475" y="75"/>
      <point x="482" y="75" type="curve" smooth="yes"/>
      <point x="634" y="75" type="line"/>
      <point x="634" y="9" type="line" smooth="yes"/>
      <point x="634" y="2"/>
      <point x="637" y="0"/>
      <point x="642" y="0" type="curve" smooth="yes"/>
    </contour>
    <contour>
      <point x="634" y="321" type="line"/>
      <point x="634" y="103" type="line"/>
      <point x="507" y="103" type="line"/>
    </contour>
    <component base="threesuperior" xOffset="17"/>
  </outline>
</glyph>
<glyph name="Agrave" format="1">
  <advance width="526"/>
  <unicode hex="00C0"/>
  <outline>
    <contour>
      <point x="261" y="605" type="line"/>
      <point x="265" y="605" type="line"/>
      <point x="392" y="213" type="line"/>
      <point x="134" y="213" type="line"/>
    </contour>
    <contour>
      <point x="51" y="0" type="line"/>
      <point x="56" y="0"/>
      <point x="59" y="2"/>
      <point x="62" y="9" type="curve" smooth="yes"/>
      <point x="123" y="183" type="line"/>
      <point x="403" y="183" type="line"/>
      <point x="464" y="9" type="line" smooth="yes"/>
      <point x="466" y="2"/>
      <point x="469" y="0"/>
      <point x="474" y="0" type="curve" smooth="yes"/>
      <point x="489" y="0" type="line" smooth="yes"/>
      <point x="494" y="0"/>
      <point x="497" y="2"/>
      <point x="495" y="9" type="curve" smooth="yes"/>
      <point x="285" y="634" type="line" smooth="yes"/>
      <point x="283" y="641"/>
      <point x="280" y="643"/>
      <point x="275" y="643" type="curve" smooth="yes"/>
      <point x="251" y="643" type="line" smooth="yes"/>
      <point x="246" y="643"/>
      <point x="243" y="641"/>
      <point x="241" y="634" type="curve" smooth="yes"/>
      <point x="31" y="9" type="line" smooth="yes"/>
      <point x="29" y="2"/>
      <point x="32" y="0"/>
      <point x="37" y="0" type="curve" smooth="yes"/>
    </contour>
    <contour>
      <point x="198" y="827" type="line" smooth="yes"/>
      <point x="195" y="833"/>
      <point x="190" y="836"/>
      <point x="183" y="836" type="curve" smooth="yes"/>
      <point x="153" y="836" type="line" smooth="yes"/>
      <point x="148" y="836"/>
      <point x="145" y="832"/>
      <point x="149" y="827" type="curve" smooth="yes"/>
      <point x="241" y="715" type="line" smooth="yes"/>
      <point x="245" y="710"/>
      <point x="250" y="707"/>
      <point x="255" y="707" type="curve" smooth="yes"/>
      <point x="263" y="707" type="line" smooth="yes"/>
      <point x="268" y="707"/>
      <point x="269" y="711"/>
      <point x="266" y="716" type="curve" smooth="yes"/>
    </contour>
  </outline>
</glyph>
<glyph name="Aacute" format="1">
  <advance width="526"/>
  <unicode hex="00C1"/>
  <outline>
    <contour>
      <point x="261" y="605" type="line"/>
      <point x="265" y="605" type="line"/>
      <point x="392" y="213" type="line"/>
      <point x="134" y="213" type="line"/>
    </contour>
    <contour>
      <point x="51" y="0" type="line"/>
      <point x="56" y="0"/>
      <point x="59" y="2"/>
      <point x="62" y="9" type="curve" smooth="yes"/>
      <point x="123" y="183" type="line"/>
      <point x="403" y="183" type="line"/>
      <point x="464" y="9" type="line" smooth="yes"/>
      <point x="466" y="2"/>
      <point x="469" y="0"/>
      <point x="474" y="0" type="curve" smooth="yes"/>
      <point x="489" y="0" type="line" smooth="yes"/>
      <point x="494" y="0"/>
      <point x="497" y="2"/>
      <point x="495" y="9" type="curve" smooth="yes"/>
      <point x="285" y="634" type="line" smooth="yes"/>
      <point x="283" y="641"/>
      <point x="280" y="643"/>
      <point x="275" y="643" type="curve" smooth="yes"/>
      <point x="251" y="643" type="line" smooth="yes"/>
      <point x="246" y="643"/>
      <point x="243" y="641"/>
      <point x="241" y="634" type="curve" smooth="yes"/>
      <point x="31" y="9" type="line" smooth="yes"/>
      <point x="29" y="2"/>
      <point x="32" y="0"/>
      <point x="37" y="0" type="curve" smooth="yes"/>
    </contour>
    <contour>
      <point x="344" y="836" type="line"/>
      <point x="337" y="836"/>
      <point x="332" y="833"/>
      <point x="329" y="827" type="curve" smooth="yes"/>
      <point x="261" y="716" type="line" smooth="yes"/>
      <point x="258" y="711"/>
      <point x="259" y="707"/>
      <point x="264" y="707" type="curve" smooth="yes"/>
      <point x="272" y="707" type="line" smooth="yes"/>
      <point x="277" y="707"/>
      <point x="282" y="710"/>
      <point x="286" y="715" type="curve" smooth="yes"/>
      <point x="378" y="827" type="line" smooth="yes"/>
      <point x="382" y="832"/>
      <point x="379" y="836"/>
      <point x="374" y="836" type="curve" smooth="yes"/>
    </contour>
  </outline>
</glyph>
<glyph name="Acircumflex" format="1">
  <advance width="526"/>
  <unicode hex="00C2"/>
  <outline>
    <contour>
      <point x="261" y="605" type="line"/>
      <point x="265" y="605" type="line"/>
      <point x="392" y="213" type="line"/>
      <point x="134" y="213" type="line"/>
    </contour>
    <contour>
      <point x="51" y="0" type="line"/>
      <point x="56" y="0"/>
      <point x="59" y="2"/>
      <point x="62" y="9" type="curve" smooth="yes"/>
      <point x="123" y="183" type="line"/>
      <point x="403" y="183" type="line"/>
      <point x="464" y="9" type="line" smooth="yes"/>
      <point x="466" y="2"/>
      <point x="469" y="0"/>
      <point x="474" y="0" type="curve" smooth="yes"/>
      <point x="489" y="0" type="line" smooth="yes"/>
      <point x="494" y="0"/>
      <point x="497" y="2"/>
      <point x="495" y="9" type="curve" smooth="yes"/>
      <point x="285" y="634" type="line" smooth="yes"/>
      <point x="283" y="641"/>
      <point x="280" y="643"/>
      <point x="275" y="643" type="curve" smooth="yes"/>
      <point x="251" y="643" type="line" smooth="yes"/>
      <point x="246" y="643"/>
      <point x="243" y="641"/>
      <point x="241" y="634" type="curve" smooth="yes"/>
      <point x="31" y="9" type="line" smooth="yes"/>
      <point x="29" y="2"/>
      <point x="32" y="0"/>
      <point x="37" y="0" type="curve" smooth="yes"/>
    </contour>
    <contour>
      <point x="287" y="827" type="line"/>
      <point x="282" y="834"/>
      <point x="277" y="836"/>
      <point x="268" y="836" type="curve" smooth="yes"/>
      <point x="268" y="836"/>
      <point x="258" y="836"/>
      <point x="258" y="836" type="curve"/>
      <point x="249" y="836"/>
      <point x="244" y="834"/>
      <point x="239" y="827" type="curve"/>
      <point x="175" y="718" type="line" smooth="yes"/>
      <point x="171" y="712"/>
      <point x="172" y="707"/>
      <point x="179" y="707" type="curve" smooth="yes"/>
      <point x="193" y="707" type="line" smooth="yes"/>
      <point x="199" y="707"/>
      <point x="202" y="708"/>
      <point x="204" y="712" type="curve" smooth="yes"/>
      <point x="263" y="817" type="line"/>
      <point x="322" y="712" type="line" smooth="yes"/>
      <point x="324" y="708"/>
      <point x="327" y="707"/>
      <point x="333" y="707" type="curve" smooth="yes"/>
      <point x="347" y="707" type="line" smooth="yes"/>
      <point x="354" y="707"/>
      <point x="355" y="712"/>
      <point x="351" y="718" type="curve" smooth="yes"/>
    </contour>
  </outline>
</glyph>
<glyph name="Atilde" format="1">
  <advance width="526"/>
  <unicode hex="00C3"/>
  <outline>
    <contour>
      <point x="261" y="605" type="line"/>
      <point x="265" y="605" type="line"/>
      <point x="392" y="213" type="line"/>
      <point x="134" y="213" type="line"/>
    </contour>
    <contour>
      <point x="51" y="0" type="line"/>
      <point x="56" y="0"/>
      <point x="59" y="2"/>
      <point x="62" y="9" type="curve" smooth="yes"/>
      <point x="123" y="183" type="line"/>
      <point x="403" y="183" type="line"/>
      <point x="464" y="9" type="line" smooth="yes"/>
      <point x="466" y="2"/>
      <point x="469" y="0"/>
      <point x="474" y="0" type="curve" smooth="yes"/>
      <point x="489" y="0" type="line" smooth="yes"/>
      <point x="494" y="0"/>
      <point x="497" y="2"/>
      <point x="495" y="9" type="curve" smooth="yes"/>
      <point x="285" y="634" type="line" smooth="yes"/>
      <point x="283" y="641"/>
      <point x="280" y="643"/>
      <point x="275" y="643" type="curve" smooth="yes"/>
      <point x="251" y="643" type="line" smooth="yes"/>
      <point x="246" y="643"/>
      <point x="243" y="641"/>
      <point x="241" y="634" type="curve" smooth="yes"/>
      <point x="31" y="9" type="line" smooth="yes"/>
      <point x="29" y="2"/>
      <point x="32" y="0"/>
      <point x="37" y="0" type="curve" smooth="yes"/>
    </contour>
    <contour>
      <point x="275" y="765" type="curve"/>
      <point x="286" y="799"/>
      <point x="288" y="810"/>
      <point x="310" y="810" type="curve" smooth="yes"/>
      <point x="337" y="810"/>
      <point x="343" y="795"/>
      <point x="343" y="752" type="curve" smooth="yes"/>
      <point x="343" y="711" type="line" smooth="yes"/>
      <point x="343" y="704"/>
      <point x="346" y="702"/>
      <point x="351" y="702" type="curve" smooth="yes"/>
      <point x="358" y="702" type="line" smooth="yes"/>
      <point x="363" y="702"/>
      <point x="366" y="704"/>
      <point x="366" y="711" type="curve" smooth="yes"/>
      <point x="366" y="753" type="line" smooth="yes"/>
      <point x="366" y="808"/>
      <point x="355" y="831"/>
      <point x="310" y="831" type="curve" smooth="yes"/>
      <point x="279" y="831"/>
      <point x="268" y="821"/>
      <point x="254" y="777" type="curve" smooth="yes"/>
      <point x="240" y="733"/>
      <point x="235" y="723"/>
      <point x="216" y="723" type="curve" smooth="yes"/>
      <point x="189" y="723"/>
      <point x="183" y="738"/>
      <point x="183" y="781" type="curve" smooth="yes"/>
      <point x="183" y="819" type="line" smooth="yes"/>
      <point x="183" y="826"/>
      <point x="180" y="828"/>
      <point x="175" y="828" type="curve" smooth="yes"/>
      <point x="168" y="828" type="line" smooth="yes"/>
      <point x="163" y="828"/>
      <point x="160" y="826"/>
      <point x="160" y="819" type="curve" smooth="yes"/>
      <point x="160" y="780" type="line" smooth="yes"/>
      <point x="160" y="725"/>
      <point x="171" y="702"/>
      <point x="216" y="702" type="curve" smooth="yes"/>
      <point x="244" y="702"/>
      <point x="260" y="710"/>
    </contour>
  </outline>
</glyph>
<glyph name="Adieresis" format="1">
  <advance width="526"/>
  <unicode hex="00C4"/>
  <outline>
    <contour>
      <point x="261" y="605" type="line"/>
      <point x="265" y="605" type="line"/>
      <point x="392" y="213" type="line"/>
      <point x="134" y="213" type="line"/>
    </contour>
    <contour>
      <point x="51" y="0" type="line"/>
      <point x="56" y="0"/>
      <point x="59" y="2"/>
      <point x="62" y="9" type="curve" smooth="yes"/>
      <point x="123" y="183" type="line"/>
      <point x="403" y="183" type="line"/>
      <point x="464" y="9" type="line" smooth="yes"/>
      <point x="466" y="2"/>
      <point x="469" y="0"/>
      <point x="474" y="0" type="curve" smooth="yes"/>
      <point x="489" y="0" type="line" smooth="yes"/>
      <point x="494" y="0"/>
      <point x="497" y="2"/>
      <point x="495" y="9" type="curve" smooth="yes"/>
      <point x="285" y="634" type="line" smooth="yes"/>
      <point x="283" y="641"/>
      <point x="280" y="643"/>
      <point x="275" y="643" type="curve" smooth="yes"/>
      <point x="251" y="643" type="line" smooth="yes"/>
      <point x="246" y="643"/>
      <point x="243" y="641"/>
      <point x="241" y="634" type="curve" smooth="yes"/>
      <point x="31" y="9" type="line" smooth="yes"/>
      <point x="29" y="2"/>
      <point x="32" y="0"/>
      <point x="37" y="0" type="curve" smooth="yes"/>
    </contour>
    <contour>
      <point x="326" y="716" type="line"/>
      <point x="326" y="709"/>
      <point x="329" y="707"/>
      <point x="334" y="707" type="curve" smooth="yes"/>
      <point x="348" y="707" type="line" smooth="yes"/>
      <point x="353" y="707"/>
      <point x="356" y="709"/>
      <point x="356" y="716" type="curve" smooth="yes"/>
      <point x="356" y="827" type="line" smooth="yes"/>
      <point x="356" y="834"/>
      <point x="353" y="836"/>
      <point x="348" y="836" type="curve" smooth="yes"/>
      <point x="334" y="836" type="line" smooth="yes"/>
      <point x="329" y="836"/>
      <point x="326" y="834"/>
      <point x="326" y="827" type="curve" smooth="yes"/>
    </contour>
    <contour>
      <point x="170" y="716" type="line"/>
      <point x="170" y="709"/>
      <point x="173" y="707"/>
      <point x="178" y="707" type="curve" smooth="yes"/>
      <point x="192" y="707" type="line" smooth="yes"/>
      <point x="197" y="707"/>
      <point x="200" y="709"/>
      <point x="200" y="716" type="curve" smooth="yes"/>
      <point x="200" y="827" type="line" smooth="yes"/>
      <point x="200" y="834"/>
      <point x="197" y="836"/>
      <point x="192" y="836" type="curve" smooth="yes"/>
      <point x="178" y="836" type="line" smooth="yes"/>
      <point x="173" y="836"/>
      <point x="170" y="834"/>
      <point x="170" y="827" type="curve" smooth="yes"/>
    </contour>
  </outline>
</glyph>
<glyph name="Ccedilla" format="1">
  <advance width="543"/>
  <unicode hex="00C7"/>
  <outline>
    <contour>
      <point x="344" y="0" type="line"/>
      <point x="425" y="0"/>
      <point x="478" y="53"/>
      <point x="478" y="136" type="curve" smooth="yes"/>
      <point x="478" y="136"/>
      <point x="478" y="186"/>
      <point x="478" y="186" type="curve"/>
      <point x="478" y="193"/>
      <point x="475" y="195"/>
      <point x="470" y="195" type="curve" smooth="yes"/>
      <point x="456" y="195" type="line" smooth="yes"/>
      <point x="451" y="195"/>
      <point x="448" y="193"/>
      <point x="448" y="186" type="curve" smooth="yes"/>
      <point x="448" y="186"/>
      <point x="448" y="137"/>
      <point x="448" y="137" type="curve"/>
      <point x="448" y="69"/>
      <point x="411" y="28"/>
      <point x="344" y="28" type="curve" smooth="yes"/>
      <point x="214" y="28" type="line" smooth="yes"/>
      <point x="147" y="28"/>
      <point x="110" y="69"/>
      <point x="110" y="137" type="curve" smooth="yes"/>
      <point x="110" y="506" type="line" smooth="yes"/>
      <point x="110" y="574"/>
      <point x="147" y="615"/>
      <point x="214" y="615" type="curve" smooth="yes"/>
      <point x="344" y="615" type="line" smooth="yes"/>
      <point x="411" y="615"/>
      <point x="448" y="574"/>
      <point x="448" y="506" type="curve" smooth="yes"/>
      <point x="448" y="506"/>
      <point x="448" y="457"/>
      <point x="448" y="457" type="curve"/>
      <point x="448" y="450"/>
      <point x="451" y="448"/>
      <point x="456" y="448" type="curve" smooth="yes"/>
      <point x="470" y="448" type="line" smooth="yes"/>
      <point x="475" y="448"/>
      <point x="478" y="450"/>
      <point x="478" y="457" type="curve" smooth="yes"/>
      <point x="478" y="457"/>
      <point x="478" y="507"/>
      <point x="478" y="507" type="curve"/>
      <point x="478" y="590"/>
      <point x="425" y="643"/>
      <point x="344" y="643" type="curve" smooth="yes"/>
      <point x="214" y="643" type="line" smooth="yes"/>
      <point x="133" y="643"/>
      <point x="80" y="590"/>
      <point x="80" y="507" type="curve" smooth="yes"/>
      <point x="80" y="136" type="line" smooth="yes"/>
      <point x="80" y="53"/>
      <point x="133" y="0"/>
      <point x="214" y="0" type="curve" smooth="yes"/>
    </contour>
    <contour>
      <point x="244" y="-45" type="line"/>
      <point x="230" y="-60"/>
      <point x="236" y="-80"/>
      <point x="260" y="-80" type="curve" smooth="yes"/>
      <point x="261" y="-80"/>
      <point x="268" y="-80"/>
      <point x="269" y="-80" type="curve" smooth="yes"/>
      <point x="310" y="-80"/>
      <point x="324" y="-89"/>
      <point x="324" y="-116" type="curve" smooth="yes"/>
      <point x="324" y="-116"/>
      <point x="324" y="-118"/>
      <point x="324" y="-118" type="curve"/>
      <point x="324" y="-143"/>
      <point x="309" y="-152"/>
      <point x="269" y="-152" type="curve" smooth="yes"/>
      <point x="269" y="-152"/>
      <point x="253" y="-152"/>
      <point x="253" y="-152" type="curve"/>
      <point x="246" y="-152"/>
      <point x="244" y="-155"/>
      <point x="244" y="-160" type="curve" smooth="yes"/>
      <point x="244" y="-170" type="line" smooth="yes"/>
      <point x="244" y="-175"/>
      <point x="246" y="-178"/>
      <point x="253" y="-178" type="curve" smooth="yes"/>
      <point x="253" y="-178"/>
      <point x="272" y="-178"/>
      <point x="272" y="-178" type="curve"/>
      <point x="324" y="-178"/>
      <point x="351" y="-162"/>
      <point x="351" y="-121" type="curve" smooth="yes"/>
      <point x="351" y="-121"/>
      <point x="351" y="-111"/>
      <point x="351" y="-111" type="curve"/>
      <point x="351" y="-69"/>
      <point x="324" y="-54"/>
      <point x="272" y="-54" type="curve" smooth="yes"/>
      <point x="272" y="-54"/>
      <point x="272" y="-50"/>
      <point x="272" y="-50" type="curve"/>
      <point x="337" y="20" type="line"/>
      <point x="302" y="20" type="line"/>
    </contour>
  </outline>
</glyph>
<glyph name="Eacute" format="1">
  <advance width="481"/>
  <unicode hex="00C9"/>
  <outline>
    <contour>
      <point x="402" y="0" type="line"/>
      <point x="409" y="0"/>
      <point x="411" y="3"/>
      <point x="411" y="8" type="curve" smooth="yes"/>
      <point x="411" y="20" type="line" smooth="yes"/>
      <point x="411" y="25"/>
      <point x="409" y="28"/>
      <point x="402" y="28" type="curve" smooth="yes"/>
      <point x="129" y="28" type="line" smooth="yes"/>
      <point x="122" y="28"/>
      <point x="120" y="31"/>
      <point x="120" y="36" type="curve" smooth="yes"/>
      <point x="120" y="306" type="line" smooth="yes"/>
      <point x="120" y="311"/>
      <point x="122" y="314"/>
      <point x="129" y="314" type="curve" smooth="yes"/>
      <point x="376" y="314" type="line" smooth="yes"/>
      <point x="383" y="314"/>
      <point x="385" y="317"/>
      <point x="385" y="322" type="curve" smooth="yes"/>
      <point x="385" y="334" type="line" smooth="yes"/>
      <point x="385" y="339"/>
      <point x="383" y="342"/>
      <point x="376" y="342" type="curve" smooth="yes"/>
      <point x="129" y="342" type="line" smooth="yes"/>
      <point x="122" y="342"/>
      <point x="120" y="345"/>
      <point x="120" y="350" type="curve" smooth="yes"/>
      <point x="120" y="607" type="line" smooth="yes"/>
      <point x="120" y="612"/>
      <point x="122" y="615"/>
      <point x="129" y="615" type="curve" smooth="yes"/>
      <point x="402" y="615" type="line" smooth="yes"/>
      <point x="409" y="615"/>
      <point x="411" y="618"/>
      <point x="411" y="623" type="curve" smooth="yes"/>
      <point x="411" y="635" type="line" smooth="yes"/>
      <point x="411" y="640"/>
      <point x="409" y="643"/>
      <point x="402" y="643" type="curve" smooth="yes"/>
      <point x="98" y="643" type="line" smooth="yes"/>
      <point x="93" y="643"/>
      <point x="90" y="641"/>
      <point x="90" y="634" type="curve" smooth="yes"/>
      <point x="90" y="9" type="line" smooth="yes"/>
      <point x="90" y="2"/>
      <point x="93" y="0"/>
      <point x="98" y="0" type="curve" smooth="yes"/>
    </contour>
    <contour>
      <point x="319" y="836" type="line"/>
      <point x="312" y="836"/>
      <point x="307" y="833"/>
      <point x="304" y="827" type="curve" smooth="yes"/>
      <point x="236" y="716" type="line" smooth="yes"/>
      <point x="233" y="711"/>
      <point x="234" y="707"/>
      <point x="239" y="707" type="curve" smooth="yes"/>
      <point x="247" y="707" type="line" smooth="yes"/>
      <point x="252" y="707"/>
      <point x="257" y="710"/>
      <point x="261" y="715" type="curve" smooth="yes"/>
      <point x="353" y="827" type="line" smooth="yes"/>
      <point x="357" y="832"/>
      <point x="354" y="836"/>
      <point x="349" y="836" type="curve" smooth="yes"/>
    </contour>
  </outline>
</glyph>
<glyph name="Edieresis" format="1">
  <advance width="481"/>
  <unicode hex="00CB"/>
  <outline>
    <contour>
      <point x="402" y="0" type="line"/>
      <point x="409" y="0"/>
      <point x="411" y="3"/>
      <point x="411" y="8" type="curve" smooth="yes"/>
      <point x="411" y="20" type="line" smooth="yes"/>
      <point x="411" y="25"/>
      <point x="409" y="28"/>
      <point x="402" y="28" type="curve" smooth="yes"/>
      <point x="129" y="28" type="line" smooth="yes"/>
      <point x="122" y="28"/>
      <point x="120" y="31"/>
      <point x="120" y="36" type="curve" smooth="yes"/>
      <point x="120" y="306" type="line" smooth="yes"/>
      <point x="120" y="311"/>
      <point x="122" y="314"/>
      <point x="129" y="314" type="curve" smooth="yes"/>
      <point x="376" y="314" type="line" smooth="yes"/>
      <point x="383" y="314"/>
      <point x="385" y="317"/>
      <point x="385" y="322" type="curve" smooth="yes"/>
      <point x="385" y="334" type="line" smooth="yes"/>
      <point x="385" y="339"/>
      <point x="383" y="342"/>
      <point x="376" y="342" type="curve" smooth="yes"/>
      <point x="129" y="342" type="line" smooth="yes"/>
      <point x="122" y="342"/>
      <point x="120" y="345"/>
      <point x="120" y="350" type="curve" smooth="yes"/>
      <point x="120" y="607" type="line" smooth="yes"/>
      <point x="120" y="612"/>
      <point x="122" y="615"/>
      <point x="129" y="615" type="curve" smooth="yes"/>
      <point x="402" y="615" type="line" smooth="yes"/>
      <point x="409" y="615"/>
      <point x="411" y="618"/>
      <point x="411" y="623" type="curve" smooth="yes"/>
      <point x="411" y="635" type="line" smooth="yes"/>
      <point x="411" y="640"/>
      <point x="409" y="643"/>
      <point x="402" y="643" type="curve" smooth="yes"/>
      <point x="98" y="643" type="line" smooth="yes"/>
      <point x="93" y="643"/>
      <point x="90" y="641"/>
      <point x="90" y="634" type="curve" smooth="yes"/>
      <point x="90" y="9" type="line" smooth="yes"/>
      <point x="90" y="2"/>
      <point x="93" y="0"/>
      <point x="98" y="0" type="curve" smooth="yes"/>
    </contour>
    <contour>
      <point x="313" y="716" type="line"/>
      <point x="313" y="709"/>
      <point x="316" y="707"/>
      <point x="321" y="707" type="curve" smooth="yes"/>
      <point x="335" y="707" type="line" smooth="yes"/>
      <point x="340" y="707"/>
      <point x="343" y="709"/>
      <point x="343" y="716" type="curve" smooth="yes"/>
      <point x="343" y="827" type="line" smooth="yes"/>
      <point x="343" y="834"/>
      <point x="340" y="836"/>
      <point x="335" y="836" type="curve" smooth="yes"/>
      <point x="321" y="836" type="line" smooth="yes"/>
      <point x="316" y="836"/>
      <point x="313" y="834"/>
      <point x="313" y="827" type="curve" smooth="yes"/>
    </contour>
    <contour>
      <point x="157" y="716" type="line"/>
      <point x="157" y="709"/>
      <point x="160" y="707"/>
      <point x="165" y="707" type="curve" smooth="yes"/>
      <point x="179" y="707" type="line" smooth="yes"/>
      <point x="184" y="707"/>
      <point x="187" y="709"/>
      <point x="187" y="716" type="curve" smooth="yes"/>
      <point x="187" y="827" type="line" smooth="yes"/>
      <point x="187" y="834"/>
      <point x="184" y="836"/>
      <point x="179" y="836" type="curve" smooth="yes"/>
      <point x="165" y="836" type="line" smooth="yes"/>
      <point x="160" y="836"/>
      <point x="157" y="834"/>
      <point x="157" y="827" type="curve" smooth="yes"/>
    </contour>
  </outline>
</glyph>
<glyph name="Igrave" format="1">
  <advance width="220"/>
  <unicode hex="00CC"/>
  <outline>
    <contour>
      <point x="125" y="634" type="line" smooth="yes"/>
      <point x="125" y="641"/>
      <point x="122" y="643"/>
      <point x="117" y="643" type="curve" smooth="yes"/>
      <point x="103" y="643" type="line" smooth="yes"/>
      <point x="98" y="643"/>
      <point x="95" y="641"/>
      <point x="95" y="634" type="curve" smooth="yes"/>
      <point x="95" y="9" type="line" smooth="yes"/>
      <point x="95" y="2"/>
      <point x="98" y="0"/>
      <point x="103" y="0" type="curve" smooth="yes"/>
      <point x="117" y="0" type="line" smooth="yes"/>
      <point x="122" y="0"/>
      <point x="125" y="2"/>
      <point x="125" y="9" type="curve" smooth="yes"/>
    </contour>
    <contour>
      <point x="50" y="827" type="line" smooth="yes"/>
      <point x="47" y="833"/>
      <point x="42" y="836"/>
      <point x="35" y="836" type="curve" smooth="yes"/>
      <point x="5" y="836" type="line" smooth="yes"/>
      <point x="0" y="836"/>
      <point x="-3" y="832"/>
      <point x="1" y="827" type="curve" smooth="yes"/>
      <point x="93" y="715" type="line" smooth="yes"/>
      <point x="97" y="710"/>
      <point x="102" y="707"/>
      <point x="107" y="707" type="curve" smooth="yes"/>
      <point x="115" y="707" type="line" smooth="yes"/>
      <point x="120" y="707"/>
      <point x="121" y="711"/>
      <point x="118" y="716" type="curve" smooth="yes"/>
    </contour>
  </outline>
</glyph>
<glyph name="Iacute" format="1">
  <advance width="221"/>
  <unicode hex="00CD"/>
  <outline>
    <contour>
      <point x="125" y="634" type="line" smooth="yes"/>
      <point x="125" y="641"/>
      <point x="122" y="643"/>
      <point x="117" y="643" type="curve" smooth="yes"/>
      <point x="103" y="643" type="line" smooth="yes"/>
      <point x="98" y="643"/>
      <point x="95" y="641"/>
      <point x="95" y="634" type="curve" smooth="yes"/>
      <point x="95" y="9" type="line" smooth="yes"/>
      <point x="95" y="2"/>
      <point x="98" y="0"/>
      <point x="103" y="0" type="curve" smooth="yes"/>
      <point x="117" y="0" type="line" smooth="yes"/>
      <point x="122" y="0"/>
      <point x="125" y="2"/>
      <point x="125" y="9" type="curve" smooth="yes"/>
    </contour>
    <contour>
      <point x="186" y="836" type="line"/>
      <point x="179" y="836"/>
      <point x="174" y="833"/>
      <point x="171" y="827" type="curve" smooth="yes"/>
      <point x="103" y="716" type="line" smooth="yes"/>
      <point x="100" y="711"/>
      <point x="101" y="707"/>
      <point x="106" y="707" type="curve" smooth="yes"/>
      <point x="114" y="707" type="line" smooth="yes"/>
      <point x="119" y="707"/>
      <point x="124" y="710"/>
      <point x="128" y="715" type="curve" smooth="yes"/>
      <point x="220" y="827" type="line" smooth="yes"/>
      <point x="224" y="832"/>
      <point x="221" y="836"/>
      <point x="216" y="836" type="curve" smooth="yes"/>
    </contour>
  </outline>
</glyph>
<glyph name="Eth" format="1">
  <advance width="500"/>
  <unicode hex="00D0"/>
  <outline>
    <contour>
      <point x="344" y="0" type="line" smooth="yes"/>
      <point x="425" y="0"/>
      <point x="478" y="53"/>
      <point x="478" y="136" type="curve" smooth="yes"/>
      <point x="478" y="507" type="line" smooth="yes"/>
      <point x="478" y="590"/>
      <point x="425" y="643"/>
      <point x="344" y="643" type="curve" smooth="yes"/>
      <point x="98" y="643" type="line" smooth="yes"/>
      <point x="93" y="643"/>
      <point x="90" y="641"/>
      <point x="90" y="634" type="curve" smooth="yes"/>
      <point x="90" y="348" type="line" smooth="yes"/>
      <point x="90" y="343"/>
      <point x="88" y="340"/>
      <point x="81" y="340" type="curve" smooth="yes"/>
      <point x="35" y="340" type="line" smooth="yes"/>
      <point x="28" y="340"/>
      <point x="26" y="337"/>
      <point x="26" y="332" type="curve" smooth="yes"/>
      <point x="26" y="320" type="line" smooth="yes"/>
      <point x="26" y="315"/>
      <point x="28" y="312"/>
      <point x="35" y="312" type="curve" smooth="yes"/>
      <point x="81" y="312" type="line" smooth="yes"/>
      <point x="88" y="312"/>
      <point x="90" y="309"/>
      <point x="90" y="304" type="curve" smooth="yes"/>
      <point x="90" y="9" type="line" smooth="yes"/>
      <point x="90" y="2"/>
      <point x="93" y="0"/>
      <point x="98" y="0" type="curve" smooth="yes"/>
    </contour>
    <contour>
      <point x="129" y="28" type="line" smooth="yes"/>
      <point x="122" y="28"/>
      <point x="120" y="31"/>
      <point x="120" y="36" type="curve" smooth="yes"/>
      <point x="120" y="304" type="line" smooth="yes"/>
      <point x="120" y="309"/>
      <point x="122" y="312"/>
      <point x="129" y="312" type="curve" smooth="yes"/>
      <point x="295" y="312" type="line" smooth="yes"/>
      <point x="302" y="312"/>
      <point x="304" y="315"/>
      <point x="304" y="320" type="curve" smooth="yes"/>
      <point x="304" y="332" type="line" smooth="yes"/>
      <point x="304" y="337"/>
      <point x="302" y="340"/>
      <point x="295" y="340" type="curve" smooth="yes"/>
      <point x="129" y="340" type="line" smooth="yes"/>
      <point x="122" y="340"/>
      <point x="120" y="343"/>
      <point x="120" y="348" type="curve" smooth="yes"/>
      <point x="120" y="607" type="line" smooth="yes"/>
      <point x="120" y="612"/>
      <point x="122" y="615"/>
      <point x="129" y="615" type="curve" smooth="yes"/>
      <point x="344" y="615" type="line" smooth="yes"/>
      <point x="411" y="615"/>
      <point x="448" y="574"/>
      <point x="448" y="506" type="curve" smooth="yes"/>
      <point x="448" y="137" type="line" smooth="yes"/>
      <point x="448" y="69"/>
      <point x="411" y="28"/>
      <point x="344" y="28" type="curve" smooth="yes"/>
    </contour>
  </outline>
</glyph>
<glyph name="Ntilde" format="1">
  <advance width="578"/>
  <unicode hex="00D1"/>
  <outline>
    <contour>
      <point x="112" y="0" type="line"/>
      <point x="117" y="0"/>
      <point x="120" y="2"/>
      <point x="120" y="9" type="curve" smooth="yes"/>
      <point x="120" y="573" type="line"/>
      <point x="124" y="573" type="line"/>
      <point x="458" y="8" type="line" smooth="yes"/>
      <point x="462" y="2"/>
      <point x="464" y="0"/>
      <point x="470" y="0" type="curve" smooth="yes"/>
      <point x="480" y="0" type="line" smooth="yes"/>
      <point x="485" y="0"/>
      <point x="488" y="2"/>
      <point x="488" y="9" type="curve" smooth="yes"/>
      <point x="488" y="634" type="line" smooth="yes"/>
      <point x="488" y="641"/>
      <point x="485" y="643"/>
      <point x="480" y="643" type="curve" smooth="yes"/>
      <point x="466" y="643" type="line" smooth="yes"/>
      <point x="461" y="643"/>
      <point x="458" y="641"/>
      <point x="458" y="634" type="curve" smooth="yes"/>
      <point x="458" y="72" type="line"/>
      <point x="454" y="72" type="line"/>
      <point x="119" y="639" type="line" smooth="yes"/>
      <point x="118" y="641"/>
      <point x="116" y="643"/>
      <point x="112" y="643" type="curve" smooth="yes"/>
      <point x="98" y="643" type="line" smooth="yes"/>
      <point x="93" y="643"/>
      <point x="90" y="641"/>
      <point x="90" y="634" type="curve" smooth="yes"/>
      <point x="90" y="9" type="line" smooth="yes"/>
      <point x="90" y="2"/>
      <point x="93" y="0"/>
      <point x="98" y="0" type="curve" smooth="yes"/>
    </contour>
    <contour>
      <point x="301" y="765" type="curve"/>
      <point x="312" y="799"/>
      <point x="314" y="810"/>
      <point x="336" y="810" type="curve" smooth="yes"/>
      <point x="363" y="810"/>
      <point x="369" y="795"/>
      <point x="369" y="752" type="curve" smooth="yes"/>
      <point x="369" y="711" type="line" smooth="yes"/>
      <point x="369" y="704"/>
      <point x="372" y="702"/>
      <point x="377" y="702" type="curve" smooth="yes"/>
      <point x="384" y="702" type="line" smooth="yes"/>
      <point x="389" y="702"/>
      <point x="392" y="704"/>
      <point x="392" y="711" type="curve" smooth="yes"/>
      <point x="392" y="753" type="line" smooth="yes"/>
      <point x="392" y="808"/>
      <point x="381" y="831"/>
      <point x="336" y="831" type="curve" smooth="yes"/>
      <point x="305" y="831"/>
      <point x="294" y="821"/>
      <point x="280" y="777" type="curve" smooth="yes"/>
      <point x="266" y="733"/>
      <point x="261" y="723"/>
      <point x="242" y="723" type="curve" smooth="yes"/>
      <point x="215" y="723"/>
      <point x="209" y="738"/>
      <point x="209" y="781" type="curve" smooth="yes"/>
      <point x="209" y="819" type="line" smooth="yes"/>
      <point x="209" y="826"/>
      <point x="206" y="828"/>
      <point x="201" y="828" type="curve" smooth="yes"/>
      <point x="194" y="828" type="line" smooth="yes"/>
      <point x="189" y="828"/>
      <point x="186" y="826"/>
      <point x="186" y="819" type="curve" smooth="yes"/>
      <point x="186" y="780" type="line" smooth="yes"/>
      <point x="186" y="725"/>
      <point x="197" y="702"/>
      <point x="242" y="702" type="curve" smooth="yes"/>
      <point x="270" y="702"/>
      <point x="286" y="710"/>
    </contour>
  </outline>
</glyph>
<glyph name="Oacute" format="1">
  <advance width="553"/>
  <unicode hex="00D3"/>
  <outline>
    <contour>
      <point x="339" y="0" type="line"/>
      <point x="420" y="0"/>
      <point x="473" y="53"/>
      <point x="473" y="136" type="curve" smooth="yes"/>
      <point x="473" y="507" type="line" smooth="yes"/>
      <point x="473" y="590"/>
      <point x="420" y="643"/>
      <point x="339" y="643" type="curve" smooth="yes"/>
      <point x="214" y="643" type="line" smooth="yes"/>
      <point x="133" y="643"/>
      <point x="80" y="590"/>
      <point x="80" y="507" type="curve" smooth="yes"/>
      <point x="80" y="136" type="line" smooth="yes"/>
      <point x="80" y="53"/>
      <point x="133" y="0"/>
      <point x="214" y="0" type="curve" smooth="yes"/>
    </contour>
    <contour>
      <point x="214" y="28" type="line"/>
      <point x="147" y="28"/>
      <point x="110" y="69"/>
      <point x="110" y="137" type="curve" smooth="yes"/>
      <point x="110" y="506" type="line" smooth="yes"/>
      <point x="110" y="574"/>
      <point x="147" y="615"/>
      <point x="214" y="615" type="curve" smooth="yes"/>
      <point x="339" y="615" type="line" smooth="yes"/>
      <point x="406" y="615"/>
      <point x="443" y="574"/>
      <point x="443" y="506" type="curve" smooth="yes"/>
      <point x="443" y="137" type="line" smooth="yes"/>
      <point x="443" y="69"/>
      <point x="406" y="28"/>
      <point x="339" y="28" type="curve" smooth="yes"/>
    </contour>
    <contour>
      <point x="345" y="836" type="line"/>
      <point x="338" y="836"/>
      <point x="333" y="833"/>
      <point x="330" y="827" type="curve" smooth="yes"/>
      <point x="262" y="716" type="line" smooth="yes"/>
      <point x="259" y="711"/>
      <point x="260" y="707"/>
      <point x="265" y="707" type="curve" smooth="yes"/>
      <point x="273" y="707" type="line" smooth="yes"/>
      <point x="278" y="707"/>
      <point x="283" y="710"/>
      <point x="287" y="715" type="curve" smooth="yes"/>
      <point x="379" y="827" type="line" smooth="yes"/>
      <point x="383" y="832"/>
      <point x="380" y="836"/>
      <point x="375" y="836" type="curve" smooth="yes"/>
    </contour>
  </outline>
</glyph>
<glyph name="Otilde" format="1">
  <advance width="553"/>
  <unicode hex="00D5"/>
  <outline>
    <contour>
      <point x="339" y="0" type="line"/>
      <point x="420" y="0"/>
      <point x="473" y="53"/>
      <point x="473" y="136" type="curve" smooth="yes"/>
      <point x="473" y="507" type="line" smooth="yes"/>
      <point x="473" y="590"/>
      <point x="420" y="643"/>
      <point x="339" y="643" type="curve" smooth="yes"/>
      <point x="214" y="643" type="line" smooth="yes"/>
      <point x="133" y="643"/>
      <point x="80" y="590"/>
      <point x="80" y="507" type="curve" smooth="yes"/>
      <point x="80" y="136" type="line" smooth="yes"/>
      <point x="80" y="53"/>
      <point x="133" y="0"/>
      <point x="214" y="0" type="curve" smooth="yes"/>
    </contour>
    <contour>
      <point x="214" y="28" type="line"/>
      <point x="147" y="28"/>
      <point x="110" y="69"/>
      <point x="110" y="137" type="curve" smooth="yes"/>
      <point x="110" y="506" type="line" smooth="yes"/>
      <point x="110" y="574"/>
      <point x="147" y="615"/>
      <point x="214" y="615" type="curve" smooth="yes"/>
      <point x="339" y="615" type="line" smooth="yes"/>
      <point x="406" y="615"/>
      <point x="443" y="574"/>
      <point x="443" y="506" type="curve" smooth="yes"/>
      <point x="443" y="137" type="line" smooth="yes"/>
      <point x="443" y="69"/>
      <point x="406" y="28"/>
      <point x="339" y="28" type="curve" smooth="yes"/>
    </contour>
    <contour>
      <point x="288" y="765" type="curve"/>
      <point x="299" y="799"/>
      <point x="301" y="810"/>
      <point x="323" y="810" type="curve" smooth="yes"/>
      <point x="350" y="810"/>
      <point x="356" y="795"/>
      <point x="356" y="752" type="curve" smooth="yes"/>
      <point x="356" y="711" type="line" smooth="yes"/>
      <point x="356" y="704"/>
      <point x="359" y="702"/>
      <point x="364" y="702" type="curve" smooth="yes"/>
      <point x="371" y="702" type="line" smooth="yes"/>
      <point x="376" y="702"/>
      <point x="379" y="704"/>
      <point x="379" y="711" type="curve" smooth="yes"/>
      <point x="379" y="753" type="line" smooth="yes"/>
      <point x="379" y="808"/>
      <point x="368" y="831"/>
      <point x="323" y="831" type="curve" smooth="yes"/>
      <point x="292" y="831"/>
      <point x="281" y="821"/>
      <point x="267" y="777" type="curve" smooth="yes"/>
      <point x="253" y="733"/>
      <point x="248" y="723"/>
      <point x="229" y="723" type="curve" smooth="yes"/>
      <point x="202" y="723"/>
      <point x="196" y="738"/>
      <point x="196" y="781" type="curve" smooth="yes"/>
      <point x="196" y="819" type="line" smooth="yes"/>
      <point x="196" y="826"/>
      <point x="193" y="828"/>
      <point x="188" y="828" type="curve" smooth="yes"/>
      <point x="181" y="828" type="line" smooth="yes"/>
      <point x="176" y="828"/>
      <point x="173" y="826"/>
      <point x="173" y="819" type="curve" smooth="yes"/>
      <point x="173" y="780" type="line" smooth="yes"/>
      <point x="173" y="725"/>
      <point x="184" y="702"/>
      <point x="229" y="702" type="curve" smooth="yes"/>
      <point x="257" y="702"/>
      <point x="273" y="710"/>
    </contour>
  </outline>
</glyph>
<glyph name="Oslash" format="1">
  <advance width="553"/>
  <unicode hex="00D8"/>
  <outline>
    <contour>
      <point x="503" y="613" type="line" smooth="yes"/>
      <point x="507" y="618"/>
      <point x="508" y="623"/>
      <point x="503" y="627" type="curve" smooth="yes"/>
      <point x="494" y="633" type="line" smooth="yes"/>
      <point x="489" y="636"/>
      <point x="485" y="635"/>
      <point x="481" y="629" type="curve" smooth="yes"/>
      <point x="49" y="30" type="line" smooth="yes"/>
      <point x="45" y="24"/>
      <point x="45" y="19"/>
      <point x="49" y="16" type="curve" smooth="yes"/>
      <point x="58" y="10" type="line" smooth="yes"/>
      <point x="63" y="7"/>
      <point x="67" y="8"/>
      <point x="71" y="13" type="curve" smooth="yes"/>
    </contour>
    <contour>
      <point x="339" y="0" type="line"/>
      <point x="420" y="0"/>
      <point x="473" y="53"/>
      <point x="473" y="136" type="curve" smooth="yes"/>
      <point x="473" y="507" type="line" smooth="yes"/>
      <point x="473" y="590"/>
      <point x="420" y="643"/>
      <point x="339" y="643" type="curve" smooth="yes"/>
      <point x="214" y="643" type="line" smooth="yes"/>
      <point x="133" y="643"/>
      <point x="80" y="590"/>
      <point x="80" y="507" type="curve" smooth="yes"/>
      <point x="80" y="136" type="line" smooth="yes"/>
      <point x="80" y="53"/>
      <point x="133" y="0"/>
      <point x="214" y="0" type="curve" smooth="yes"/>
    </contour>
    <contour>
      <point x="214" y="28" type="line"/>
      <point x="147" y="28"/>
      <point x="110" y="69"/>
      <point x="110" y="137" type="curve" smooth="yes"/>
      <point x="110" y="506" type="line" smooth="yes"/>
      <point x="110" y="574"/>
      <point x="147" y="615"/>
      <point x="214" y="615" type="curve" smooth="yes"/>
      <point x="339" y="615" type="line" smooth="yes"/>
      <point x="406" y="615"/>
      <point x="443" y="574"/>
      <point x="443" y="506" type="curve" smooth="yes"/>
      <point x="443" y="137" type="line" smooth="yes"/>
      <point x="443" y="69"/>
      <point x="406" y="28"/>
      <point x="339" y="28" type="curve" smooth="yes"/>
    </contour>
  </outline>
</glyph>
<glyph name="Ugrave" format="1">
  <advance width="550"/>
  <unicode hex="00D9"/>
  <outline>
    <contour>
      <point x="443" y="643" type="line"/>
      <point x="438" y="643"/>
      <point x="435" y="640"/>
      <point x="435" y="634" type="curve" smooth="yes"/>
      <point x="435" y="137" type="line" smooth="yes"/>
      <point x="435" y="69"/>
      <point x="398" y="28"/>
      <point x="331" y="28" type="curve" smooth="yes"/>
      <point x="219" y="28" type="line" smooth="yes"/>
      <point x="152" y="28"/>
      <point x="115" y="69"/>
      <point x="115" y="137" type="curve" smooth="yes"/>
      <point x="115" y="634" type="line" smooth="yes"/>
      <point x="115" y="641"/>
      <point x="112" y="643"/>
      <point x="107" y="643" type="curve" smooth="yes"/>
      <point x="93" y="643" type="line" smooth="yes"/>
      <point x="88" y="643"/>
      <point x="85" y="641"/>
      <point x="85" y="634" type="curve" smooth="yes"/>
      <point x="85" y="136" type="line" smooth="yes"/>
      <point x="85" y="53"/>
      <point x="138" y="0"/>
      <point x="219" y="0" type="curve" smooth="yes"/>
      <point x="331" y="0" type="line" smooth="yes"/>
      <point x="412" y="0"/>
      <point x="465" y="53"/>
      <point x="465" y="136" type="curve" smooth="yes"/>
      <point x="465" y="635" type="line" smooth="yes"/>
      <point x="465" y="640"/>
      <point x="462" y="643"/>
      <point x="457" y="643" type="curve" smooth="yes"/>
    </contour>
    <contour>
      <point x="227" y="827" type="line" smooth="yes"/>
      <point x="224" y="833"/>
      <point x="219" y="836"/>
      <point x="212" y="836" type="curve" smooth="yes"/>
      <point x="182" y="836" type="line" smooth="yes"/>
      <point x="177" y="836"/>
      <point x="174" y="832"/>
      <point x="178" y="827" type="curve" smooth="yes"/>
      <point x="270" y="715" type="line" smooth="yes"/>
      <point x="274" y="710"/>
      <point x="279" y="707"/>
      <point x="284" y="707" type="curve" smooth="yes"/>
      <point x="292" y="707" type="line" smooth="yes"/>
      <point x="297" y="707"/>
      <point x="298" y="711"/>
      <point x="295" y="716" type="curve" smooth="yes"/>
    </contour>
  </outline>
</glyph>
<glyph name="Yacute" format="1">
  <advance width="486"/>
  <unicode hex="00DD"/>
  <outline>
    <contour>
      <point x="250" y="0" type="line" smooth="yes"/>
      <point x="255" y="0"/>
      <point x="258" y="2"/>
      <point x="258" y="9" type="curve" smooth="yes"/>
      <point x="258" y="245" type="line"/>
      <point x="455" y="634" type="line" smooth="yes"/>
      <point x="458" y="640"/>
      <point x="455" y="643"/>
      <point x="450" y="643" type="curve" smooth="yes"/>
      <point x="432" y="643" type="line" smooth="yes"/>
      <point x="427" y="643"/>
      <point x="424" y="641"/>
      <point x="421" y="634" type="curve" smooth="yes"/>
      <point x="245" y="284" type="line"/>
      <point x="241" y="284" type="line"/>
      <point x="65" y="634" type="line" smooth="yes"/>
      <point x="62" y="641"/>
      <point x="59" y="643"/>
      <point x="54" y="643" type="curve" smooth="yes"/>
      <point x="36" y="643" type="line" smooth="yes"/>
      <point x="31" y="643"/>
      <point x="28" y="640"/>
      <point x="31" y="634" type="curve" smooth="yes"/>
      <point x="228" y="245" type="line"/>
      <point x="228" y="9" type="line" smooth="yes"/>
      <point x="228" y="2"/>
      <point x="231" y="0"/>
      <point x="236" y="0" type="curve" smooth="yes"/>
    </contour>
    <contour>
      <point x="315" y="836" type="line"/>
      <point x="308" y="836"/>
      <point x="303" y="833"/>
      <point x="300" y="827" type="curve" smooth="yes"/>
      <point x="232" y="716" type="line" smooth="yes"/>
      <point x="229" y="711"/>
      <point x="230" y="707"/>
      <point x="235" y="707" type="curve" smooth="yes"/>
      <point x="243" y="707" type="line" smooth="yes"/>
      <point x="248" y="707"/>
      <point x="253" y="710"/>
      <point x="257" y="715" type="curve" smooth="yes"/>
      <point x="349" y="827" type="line" smooth="yes"/>
      <point x="353" y="832"/>
      <point x="350" y="836"/>
      <point x="345" y="836" type="curve" smooth="yes"/>
    </contour>
  </outline>
</glyph>
<glyph name="agrave" format="1">
  <advance width="498"/>
  <unicode hex="00E0"/>
  <outline>
    <contour>
      <point x="388" y="132" type="line"/>
      <point x="388" y="63"/>
      <point x="341" y="28"/>
      <point x="276" y="28" type="curve" smooth="yes"/>
      <point x="204" y="28" type="line" smooth="yes"/>
      <point x="137" y="28"/>
      <point x="100" y="69"/>
      <point x="100" y="137" type="curve" smooth="yes"/>
      <point x="100" y="373" type="line" smooth="yes"/>
      <point x="100" y="441"/>
      <point x="137" y="482"/>
      <point x="204" y="482" type="curve" smooth="yes"/>
      <point x="379" y="482" type="line" smooth="yes"/>
      <point x="386" y="482"/>
      <point x="388" y="479"/>
      <point x="388" y="474" type="curve" smooth="yes"/>
    </contour>
    <contour>
      <point x="278" y="0" type="line" smooth="yes"/>
      <point x="341" y="0"/>
      <point x="370" y="26"/>
      <point x="384" y="52" type="curve"/>
      <point x="388" y="52" type="line"/>
      <point x="388" y="9" type="line" smooth="yes"/>
      <point x="388" y="2"/>
      <point x="391" y="0"/>
      <point x="396" y="0" type="curve" smooth="yes"/>
      <point x="410" y="0" type="line" smooth="yes"/>
      <point x="415" y="0"/>
      <point x="418" y="2"/>
      <point x="418" y="9" type="curve" smooth="yes"/>
      <point x="418" y="501" type="line" smooth="yes"/>
      <point x="418" y="508"/>
      <point x="415" y="510"/>
      <point x="410" y="510" type="curve" smooth="yes"/>
      <point x="204" y="510" type="line" smooth="yes"/>
      <point x="123" y="510"/>
      <point x="70" y="457"/>
      <point x="70" y="374" type="curve" smooth="yes"/>
      <point x="70" y="136" type="line" smooth="yes"/>
      <point x="70" y="53"/>
      <point x="123" y="0"/>
      <point x="204" y="0" type="curve" smooth="yes"/>
    </contour>
    <contour>
      <point x="221" y="694" type="line" smooth="yes"/>
      <point x="218" y="700"/>
      <point x="213" y="703"/>
      <point x="206" y="703" type="curve" smooth="yes"/>
      <point x="176" y="703" type="line" smooth="yes"/>
      <point x="171" y="703"/>
      <point x="168" y="699"/>
      <point x="172" y="694" type="curve" smooth="yes"/>
      <point x="264" y="582" type="line" smooth="yes"/>
      <point x="268" y="577"/>
      <point x="273" y="574"/>
      <point x="278" y="574" type="curve" smooth="yes"/>
      <point x="286" y="574" type="line" smooth="yes"/>
      <point x="291" y="574"/>
      <point x="292" y="578"/>
      <point x="289" y="583" type="curve" smooth="yes"/>
    </contour>
  </outline>
</glyph>
<glyph name="adieresis" format="1">
  <advance width="498"/>
  <unicode hex="00E4"/>
  <outline>
    <contour>
      <point x="388" y="132" type="line"/>
      <point x="388" y="63"/>
      <point x="341" y="28"/>
      <point x="276" y="28" type="curve" smooth="yes"/>
      <point x="204" y="28" type="line" smooth="yes"/>
      <point x="137" y="28"/>
      <point x="100" y="69"/>
      <point x="100" y="137" type="curve" smooth="yes"/>
      <point x="100" y="373" type="line" smooth="yes"/>
      <point x="100" y="441"/>
      <point x="137" y="482"/>
      <point x="204" y="482" type="curve" smooth="yes"/>
      <point x="379" y="482" type="line" smooth="yes"/>
      <point x="386" y="482"/>
      <point x="388" y="479"/>
      <point x="388" y="474" type="curve" smooth="yes"/>
    </contour>
    <contour>
      <point x="278" y="0" type="line" smooth="yes"/>
      <point x="341" y="0"/>
      <point x="370" y="26"/>
      <point x="384" y="52" type="curve"/>
      <point x="388" y="52" type="line"/>
      <point x="388" y="9" type="line" smooth="yes"/>
      <point x="388" y="2"/>
      <point x="391" y="0"/>
      <point x="396" y="0" type="curve" smooth="yes"/>
      <point x="410" y="0" type="line" smooth="yes"/>
      <point x="415" y="0"/>
      <point x="418" y="2"/>
      <point x="418" y="9" type="curve" smooth="yes"/>
      <point x="418" y="501" type="line" smooth="yes"/>
      <point x="418" y="508"/>
      <point x="415" y="510"/>
      <point x="410" y="510" type="curve" smooth="yes"/>
      <point x="204" y="510" type="line" smooth="yes"/>
      <point x="123" y="510"/>
      <point x="70" y="457"/>
      <point x="70" y="374" type="curve" smooth="yes"/>
      <point x="70" y="136" type="line" smooth="yes"/>
      <point x="70" y="53"/>
      <point x="123" y="0"/>
      <point x="204" y="0" type="curve" smooth="yes"/>
    </contour>
    <contour>
      <point x="328" y="583" type="line"/>
      <point x="328" y="576"/>
      <point x="331" y="574"/>
      <point x="336" y="574" type="curve" smooth="yes"/>
      <point x="350" y="574" type="line" smooth="yes"/>
      <point x="355" y="574"/>
      <point x="358" y="576"/>
      <point x="358" y="583" type="curve" smooth="yes"/>
      <point x="358" y="694" type="line" smooth="yes"/>
      <point x="358" y="701"/>
      <point x="355" y="703"/>
      <point x="350" y="703" type="curve" smooth="yes"/>
      <point x="336" y="703" type="line" smooth="yes"/>
      <point x="331" y="703"/>
      <point x="328" y="701"/>
      <point x="328" y="694" type="curve" smooth="yes"/>
    </contour>
    <contour>
      <point x="172" y="583" type="line"/>
      <point x="172" y="576"/>
      <point x="175" y="574"/>
      <point x="180" y="574" type="curve" smooth="yes"/>
      <point x="194" y="574" type="line" smooth="yes"/>
      <point x="199" y="574"/>
      <point x="202" y="576"/>
      <point x="202" y="583" type="curve" smooth="yes"/>
      <point x="202" y="694" type="line" smooth="yes"/>
      <point x="202" y="701"/>
      <point x="199" y="703"/>
      <point x="194" y="703" type="curve" smooth="yes"/>
      <point x="180" y="703" type="line" smooth="yes"/>
      <point x="175" y="703"/>
      <point x="172" y="701"/>
      <point x="172" y="694" type="curve" smooth="yes"/>
    </contour>
  </outline>
</glyph>
<glyph name="eacute" format="1">
  <advance width="491"/>
  <unicode hex="00E9"/>
  <outline>
    <contour>
      <point x="109" y="265" type="line" smooth="yes"/>
      <point x="102" y="265"/>
      <point x="100" y="268"/>
      <point x="100" y="273" type="curve" smooth="yes"/>
      <point x="100" y="373" type="line" smooth="yes"/>
      <point x="100" y="441"/>
      <point x="137" y="482"/>
      <point x="204" y="482" type="curve" smooth="yes"/>
      <point x="292" y="482" type="line" smooth="yes"/>
      <point x="359" y="482"/>
      <point x="396" y="441"/>
      <point x="396" y="373" type="curve" smooth="yes"/>
      <point x="396" y="273" type="line" smooth="yes"/>
      <point x="396" y="268"/>
      <point x="394" y="265"/>
      <point x="387" y="265" type="curve" smooth="yes"/>
    </contour>
    <contour>
      <point x="409" y="0" type="line"/>
      <point x="416" y="0"/>
      <point x="418" y="3"/>
      <point x="418" y="8" type="curve" smooth="yes"/>
      <point x="418" y="20" type="line" smooth="yes"/>
      <point x="418" y="25"/>
      <point x="416" y="28"/>
      <point x="409" y="28" type="curve" smooth="yes"/>
      <point x="204" y="28" type="line" smooth="yes"/>
      <point x="137" y="28"/>
      <point x="100" y="69"/>
      <point x="100" y="137" type="curve" smooth="yes"/>
      <point x="100" y="229" type="line" smooth="yes"/>
      <point x="100" y="234"/>
      <point x="102" y="237"/>
      <point x="109" y="237" type="curve" smooth="yes"/>
      <point x="417" y="237" type="line" smooth="yes"/>
      <point x="424" y="237"/>
      <point x="426" y="240"/>
      <point x="426" y="247" type="curve" smooth="yes"/>
      <point x="426" y="374" type="line" smooth="yes"/>
      <point x="426" y="457"/>
      <point x="373" y="510"/>
      <point x="292" y="510" type="curve" smooth="yes"/>
      <point x="204" y="510" type="line" smooth="yes"/>
      <point x="123" y="510"/>
      <point x="70" y="457"/>
      <point x="70" y="374" type="curve" smooth="yes"/>
      <point x="70" y="136" type="line" smooth="yes"/>
      <point x="70" y="53"/>
      <point x="123" y="0"/>
      <point x="204" y="0" type="curve" smooth="yes"/>
    </contour>
    <contour>
      <point x="304" y="703" type="line"/>
      <point x="297" y="703"/>
      <point x="292" y="700"/>
      <point x="289" y="694" type="curve" smooth="yes"/>
      <point x="221" y="583" type="line" smooth="yes"/>
      <point x="218" y="578"/>
      <point x="219" y="574"/>
      <point x="224" y="574" type="curve" smooth="yes"/>
      <point x="232" y="574" type="line" smooth="yes"/>
      <point x="237" y="574"/>
      <point x="242" y="577"/>
      <point x="246" y="582" type="curve" smooth="yes"/>
      <point x="338" y="694" type="line" smooth="yes"/>
      <point x="342" y="699"/>
      <point x="339" y="703"/>
      <point x="334" y="703" type="curve" smooth="yes"/>
    </contour>
  </outline>
</glyph>
<glyph name="ecircumflex" format="1">
  <advance width="491"/>
  <unicode hex="00EA"/>
  <outline>
    <contour>
      <point x="109" y="265" type="line" smooth="yes"/>
      <point x="102" y="265"/>
      <point x="100" y="268"/>
      <point x="100" y="273" type="curve" smooth="yes"/>
      <point x="100" y="373" type="line" smooth="yes"/>
      <point x="100" y="441"/>
      <point x="137" y="482"/>
      <point x="204" y="482" type="curve" smooth="yes"/>
      <point x="292" y="482" type="line" smooth="yes"/>
      <point x="359" y="482"/>
      <point x="396" y="441"/>
      <point x="396" y="373" type="curve" smooth="yes"/>
      <point x="396" y="273" type="line" smooth="yes"/>
      <point x="396" y="268"/>
      <point x="394" y="265"/>
      <point x="387" y="265" type="curve" smooth="yes"/>
    </contour>
    <contour>
      <point x="409" y="0" type="line"/>
      <point x="416" y="0"/>
      <point x="418" y="3"/>
      <point x="418" y="8" type="curve" smooth="yes"/>
      <point x="418" y="20" type="line" smooth="yes"/>
      <point x="418" y="25"/>
      <point x="416" y="28"/>
      <point x="409" y="28" type="curve" smooth="yes"/>
      <point x="204" y="28" type="line" smooth="yes"/>
      <point x="137" y="28"/>
      <point x="100" y="69"/>
      <point x="100" y="137" type="curve" smooth="yes"/>
      <point x="100" y="229" type="line" smooth="yes"/>
      <point x="100" y="234"/>
      <point x="102" y="237"/>
      <point x="109" y="237" type="curve" smooth="yes"/>
      <point x="417" y="237" type="line" smooth="yes"/>
      <point x="424" y="237"/>
      <point x="426" y="240"/>
      <point x="426" y="247" type="curve" smooth="yes"/>
      <point x="426" y="374" type="line" smooth="yes"/>
      <point x="426" y="457"/>
      <point x="373" y="510"/>
      <point x="292" y="510" type="curve" smooth="yes"/>
      <point x="204" y="510" type="line" smooth="yes"/>
      <point x="123" y="510"/>
      <point x="70" y="457"/>
      <point x="70" y="374" type="curve" smooth="yes"/>
      <point x="70" y="136" type="line" smooth="yes"/>
      <point x="70" y="53"/>
      <point x="123" y="0"/>
      <point x="204" y="0" type="curve" smooth="yes"/>
    </contour>
    <contour>
      <point x="272" y="694" type="line"/>
      <point x="267" y="701"/>
      <point x="262" y="703"/>
      <point x="253" y="703" type="curve" smooth="yes"/>
      <point x="253" y="703"/>
      <point x="243" y="703"/>
      <point x="243" y="703" type="curve"/>
      <point x="234" y="703"/>
      <point x="229" y="701"/>
      <point x="224" y="694" type="curve"/>
      <point x="160" y="585" type="line" smooth="yes"/>
      <point x="156" y="579"/>
      <point x="157" y="574"/>
      <point x="164" y="574" type="curve" smooth="yes"/>
      <point x="178" y="574" type="line" smooth="yes"/>
      <point x="184" y="574"/>
      <point x="187" y="575"/>
      <point x="189" y="579" type="curve" smooth="yes"/>
      <point x="248" y="684" type="line"/>
      <point x="307" y="579" type="line" smooth="yes"/>
      <point x="309" y="575"/>
      <point x="312" y="574"/>
      <point x="318" y="574" type="curve" smooth="yes"/>
      <point x="332" y="574" type="line" smooth="yes"/>
      <point x="339" y="574"/>
      <point x="340" y="579"/>
      <point x="336" y="585" type="curve" smooth="yes"/>
    </contour>
  </outline>
</glyph>
<glyph name="igrave" format="1">
  <advance width="200"/>
  <unicode hex="00EC"/>
  <outline>
    <contour>
      <point x="85" y="9" type="line"/>
      <point x="85" y="2"/>
      <point x="88" y="0"/>
      <point x="93" y="0" type="curve" smooth="yes"/>
      <point x="107" y="0" type="line" smooth="yes"/>
      <point x="112" y="0"/>
      <point x="115" y="2"/>
      <point x="115" y="9" type="curve" smooth="yes"/>
      <point x="115" y="501" type="line" smooth="yes"/>
      <point x="115" y="508"/>
      <point x="112" y="510"/>
      <point x="107" y="510" type="curve" smooth="yes"/>
      <point x="93" y="510" type="line" smooth="yes"/>
      <point x="88" y="510"/>
      <point x="85" y="508"/>
      <point x="85" y="501" type="curve" smooth="yes"/>
    </contour>
    <contour>
      <point x="39" y="694" type="line" smooth="yes"/>
      <point x="36" y="700"/>
      <point x="31" y="703"/>
      <point x="24" y="703" type="curve" smooth="yes"/>
      <point x="-6" y="703" type="line" smooth="yes"/>
      <point x="-11" y="703"/>
      <point x="-14" y="699"/>
      <point x="-10" y="694" type="curve" smooth="yes"/>
      <point x="82" y="582" type="line" smooth="yes"/>
      <point x="86" y="577"/>
      <point x="91" y="574"/>
      <point x="96" y="574" type="curve" smooth="yes"/>
      <point x="104" y="574" type="line" smooth="yes"/>
      <point x="109" y="574"/>
      <point x="110" y="578"/>
      <point x="107" y="583" type="curve" smooth="yes"/>
    </contour>
  </outline>
</glyph>
<glyph name="idieresis" format="1">
  <advance width="200"/>
  <unicode hex="00EF"/>
  <outline>
    <contour>
      <point x="85" y="9" type="line"/>
      <point x="85" y="2"/>
      <point x="88" y="0"/>
      <point x="93" y="0" type="curve" smooth="yes"/>
      <point x="107" y="0" type="line" smooth="yes"/>
      <point x="112" y="0"/>
      <point x="115" y="2"/>
      <point x="115" y="9" type="curve" smooth="yes"/>
      <point x="115" y="501" type="line" smooth="yes"/>
      <point x="115" y="508"/>
      <point x="112" y="510"/>
      <point x="107" y="510" type="curve" smooth="yes"/>
      <point x="93" y="510" type="line" smooth="yes"/>
      <point x="88" y="510"/>
      <point x="85" y="508"/>
      <point x="85" y="501" type="curve" smooth="yes"/>
    </contour>
    <contour>
      <point x="163" y="583" type="line"/>
      <point x="163" y="576"/>
      <point x="166" y="574"/>
      <point x="171" y="574" type="curve" smooth="yes"/>
      <point x="185" y="574" type="line" smooth="yes"/>
      <point x="190" y="574"/>
      <point x="193" y="576"/>
      <point x="193" y="583" type="curve" smooth="yes"/>
      <point x="193" y="694" type="line" smooth="yes"/>
      <point x="193" y="701"/>
      <point x="190" y="703"/>
      <point x="185" y="703" type="curve" smooth="yes"/>
      <point x="171" y="703" type="line" smooth="yes"/>
      <point x="166" y="703"/>
      <point x="163" y="701"/>
      <point x="163" y="694" type="curve" smooth="yes"/>
    </contour>
    <contour>
      <point x="7" y="583" type="line"/>
      <point x="7" y="576"/>
      <point x="10" y="574"/>
      <point x="15" y="574" type="curve" smooth="yes"/>
      <point x="29" y="574" type="line" smooth="yes"/>
      <point x="34" y="574"/>
      <point x="37" y="576"/>
      <point x="37" y="583" type="curve" smooth="yes"/>
      <point x="37" y="694" type="line" smooth="yes"/>
      <point x="37" y="701"/>
      <point x="34" y="703"/>
      <point x="29" y="703" type="curve" smooth="yes"/>
      <point x="15" y="703" type="line" smooth="yes"/>
      <point x="10" y="703"/>
      <point x="7" y="701"/>
      <point x="7" y="694" type="curve" smooth="yes"/>
    </contour>
  </outline>
</glyph>
<glyph name="eth" format="1">
  <advance width="483"/>
  <unicode hex="00F0"/>
  <outline>
    <contour>
      <point x="276" y="382" type="line"/>
      <point x="341" y="382"/>
      <point x="388" y="347"/>
      <point x="388" y="278" type="curve" smooth="yes"/>
      <point x="388" y="278"/>
      <point x="388" y="137"/>
      <point x="388" y="137" type="curve"/>
      <point x="388" y="69"/>
      <point x="351" y="28"/>
      <point x="284" y="28" type="curve" smooth="yes"/>
      <point x="284" y="28"/>
      <point x="204" y="28"/>
      <point x="204" y="28" type="curve"/>
      <point x="137" y="28"/>
      <point x="100" y="69"/>
      <point x="100" y="137" type="curve" smooth="yes"/>
      <point x="100" y="273" type="line" smooth="yes"/>
      <point x="100" y="341"/>
      <point x="137" y="382"/>
      <point x="204" y="382" type="curve" smooth="yes"/>
    </contour>
    <contour>
      <point x="384" y="358" type="line"/>
      <point x="370" y="384"/>
      <point x="341" y="410"/>
      <point x="278" y="410" type="curve" smooth="yes"/>
      <point x="204" y="410" type="line" smooth="yes"/>
      <point x="123" y="410"/>
      <point x="70" y="357"/>
      <point x="70" y="274" type="curve" smooth="yes"/>
      <point x="70" y="136" type="line" smooth="yes"/>
      <point x="70" y="53"/>
      <point x="123" y="0"/>
      <point x="204" y="0" type="curve" smooth="yes"/>
      <point x="204" y="0"/>
      <point x="284" y="0"/>
      <point x="284" y="0" type="curve"/>
      <point x="365" y="0"/>
      <point x="418" y="53"/>
      <point x="418" y="136" type="curve" smooth="yes"/>
      <point x="418" y="357" type="line" smooth="yes"/>
      <point x="418" y="403"/>
      <point x="404" y="430"/>
      <point x="386" y="451" type="curve" smooth="yes"/>
      <point x="168" y="693" type="line" smooth="yes"/>
      <point x="164" y="698"/>
      <point x="159" y="698"/>
      <point x="155" y="695" type="curve" smooth="yes"/>
      <point x="149" y="690" type="line" smooth="yes"/>
      <point x="144" y="686"/>
      <point x="144" y="681"/>
      <point x="149" y="675" type="curve" smooth="yes"/>
      <point x="363" y="434" type="line"/>
      <point x="381" y="411"/>
      <point x="388" y="392"/>
      <point x="388" y="358" type="curve"/>
    </contour>
    <contour>
      <point x="375" y="686" type="line" smooth="yes"/>
      <point x="371" y="690"/>
      <point x="368" y="690"/>
      <point x="363" y="687" type="curve"/>
      <point x="133" y="492" type="line" smooth="yes"/>
      <point x="128" y="487"/>
      <point x="128" y="483"/>
      <point x="131" y="479" type="curve" smooth="yes"/>
      <point x="136" y="472" type="line" smooth="yes"/>
      <point x="140" y="468"/>
      <point x="143" y="468"/>
      <point x="148" y="471" type="curve"/>
      <point x="379" y="667" type="line" smooth="yes"/>
      <point x="383" y="670"/>
      <point x="383" y="675"/>
      <point x="380" y="679" type="curve" smooth="yes"/>
    </contour>
  </outline>
</glyph>
<glyph name="ntilde" format="1">
  <advance width="503"/>
  <unicode hex="00F1"/>
  <outline>
    <contour>
      <point x="102" y="0" type="line"/>
      <point x="107" y="0"/>
      <point x="110" y="2"/>
      <point x="110" y="9" type="curve" smooth="yes"/>
      <point x="110" y="378" type="line" smooth="yes"/>
      <point x="110" y="447"/>
      <point x="157" y="482"/>
      <point x="222" y="482" type="curve" smooth="yes"/>
      <point x="294" y="482" type="line" smooth="yes"/>
      <point x="361" y="482"/>
      <point x="398" y="441"/>
      <point x="398" y="373" type="curve" smooth="yes"/>
      <point x="398" y="9" type="line" smooth="yes"/>
      <point x="398" y="2"/>
      <point x="401" y="0"/>
      <point x="406" y="0" type="curve" smooth="yes"/>
      <point x="420" y="0" type="line" smooth="yes"/>
      <point x="425" y="0"/>
      <point x="428" y="2"/>
      <point x="428" y="9" type="curve" smooth="yes"/>
      <point x="428" y="374" type="line" smooth="yes"/>
      <point x="428" y="457"/>
      <point x="375" y="510"/>
      <point x="294" y="510" type="curve" smooth="yes"/>
      <point x="220" y="510" type="line" smooth="yes"/>
      <point x="157" y="510"/>
      <point x="128" y="484"/>
      <point x="114" y="458" type="curve"/>
      <point x="110" y="458" type="line"/>
      <point x="110" y="501" type="line" smooth="yes"/>
      <point x="110" y="508"/>
      <point x="107" y="510"/>
      <point x="102" y="510" type="curve" smooth="yes"/>
      <point x="88" y="510" type="line" smooth="yes"/>
      <point x="83" y="510"/>
      <point x="80" y="508"/>
      <point x="80" y="501" type="curve" smooth="yes"/>
      <point x="80" y="9" type="line" smooth="yes"/>
      <point x="80" y="2"/>
      <point x="83" y="0"/>
      <point x="88" y="0" type="curve" smooth="yes"/>
    </contour>
    <contour>
      <point x="151" y="655" type="line" smooth="yes"/>
      <point x="151" y="600"/>
      <point x="162" y="577"/>
      <point x="207" y="577" type="curve" smooth="yes"/>
      <point x="235" y="577"/>
      <point x="251" y="585"/>
      <point x="266" y="640" type="curve"/>
      <point x="277" y="674"/>
      <point x="279" y="685"/>
      <point x="301" y="685" type="curve" smooth="yes"/>
      <point x="328" y="685"/>
      <point x="334" y="670"/>
      <point x="334" y="627" type="curve" smooth="yes"/>
      <point x="334" y="586" type="line" smooth="yes"/>
      <point x="334" y="579"/>
      <point x="337" y="577"/>
      <point x="342" y="577" type="curve" smooth="yes"/>
      <point x="349" y="577" type="line" smooth="yes"/>
      <point x="354" y="577"/>
      <point x="357" y="579"/>
      <point x="357" y="586" type="curve" smooth="yes"/>
      <point x="357" y="628" type="line" smooth="yes"/>
      <point x="357" y="683"/>
      <point x="346" y="706"/>
      <point x="301" y="706" type="curve" smooth="yes"/>
      <point x="270" y="706"/>
      <point x="259" y="696"/>
      <point x="245" y="652" type="curve" smooth="yes"/>
      <point x="231" y="608"/>
      <point x="226" y="598"/>
      <point x="207" y="598" type="curve" smooth="yes"/>
      <point x="180" y="598"/>
      <point x="174" y="613"/>
      <point x="174" y="656" type="curve" smooth="yes"/>
      <point x="174" y="694" type="line" smooth="yes"/>
      <point x="174" y="701"/>
      <point x="171" y="703"/>
      <point x="166" y="703" type="curve" smooth="yes"/>
      <point x="159" y="703" type="line" smooth="yes"/>
      <point x="154" y="703"/>
      <point x="151" y="701"/>
      <point x="151" y="694" type="curve" smooth="yes"/>
    </contour>
  </outline>
</glyph>
<glyph name="ograve" format="1">
  <advance width="493"/>
  <unicode hex="00F2"/>
  <outline>
    <contour>
      <point x="204" y="28" type="line"/>
      <point x="137" y="28"/>
      <point x="100" y="69"/>
      <point x="100" y="137" type="curve" smooth="yes"/>
      <point x="100" y="373" type="line" smooth="yes"/>
      <point x="100" y="441"/>
      <point x="137" y="482"/>
      <point x="204" y="482" type="curve" smooth="yes"/>
      <point x="289" y="482" type="line" smooth="yes"/>
      <point x="356" y="482"/>
      <point x="393" y="441"/>
      <point x="393" y="373" type="curve" smooth="yes"/>
      <point x="393" y="137" type="line" smooth="yes"/>
      <point x="393" y="69"/>
      <point x="356" y="28"/>
      <point x="289" y="28" type="curve" smooth="yes"/>
    </contour>
    <contour>
      <point x="289" y="0" type="line"/>
      <point x="370" y="0"/>
      <point x="423" y="53"/>
      <point x="423" y="136" type="curve" smooth="yes"/>
      <point x="423" y="374" type="line" smooth="yes"/>
      <point x="423" y="457"/>
      <point x="370" y="510"/>
      <point x="289" y="510" type="curve" smooth="yes"/>
      <point x="204" y="510" type="line" smooth="yes"/>
      <point x="123" y="510"/>
      <point x="70" y="457"/>
      <point x="70" y="374" type="curve" smooth="yes"/>
      <point x="70" y="136" type="line" smooth="yes"/>
      <point x="70" y="53"/>
      <point x="123" y="0"/>
      <point x="204" y="0" type="curve" smooth="yes"/>
    </contour>
    <contour>
      <point x="188" y="694" type="line" smooth="yes"/>
      <point x="185" y="700"/>
      <point x="180" y="703"/>
      <point x="173" y="703" type="curve" smooth="yes"/>
      <point x="143" y="703" type="line" smooth="yes"/>
      <point x="138" y="703"/>
      <point x="135" y="699"/>
      <point x="139" y="694" type="curve" smooth="yes"/>
      <point x="231" y="582" type="line" smooth="yes"/>
      <point x="235" y="577"/>
      <point x="240" y="574"/>
      <point x="245" y="574" type="curve" smooth="yes"/>
      <point x="253" y="574" type="line" smooth="yes"/>
      <point x="258" y="574"/>
      <point x="259" y="578"/>
      <point x="256" y="583" type="curve" smooth="yes"/>
    </contour>
  </outline>
</glyph>
<glyph name="oacute" format="1">
  <advance width="493"/>
  <unicode hex="00F3"/>
  <outline>
    <contour>
      <point x="204" y="28" type="line"/>
      <point x="137" y="28"/>
      <point x="100" y="69"/>
      <point x="100" y="137" type="curve" smooth="yes"/>
      <point x="100" y="373" type="line" smooth="yes"/>
      <point x="100" y="441"/>
      <point x="137" y="482"/>
      <point x="204" y="482" type="curve" smooth="yes"/>
      <point x="289" y="482" type="line" smooth="yes"/>
      <point x="356" y="482"/>
      <point x="393" y="441"/>
      <point x="393" y="373" type="curve" smooth="yes"/>
      <point x="393" y="137" type="line" smooth="yes"/>
      <point x="393" y="69"/>
      <point x="356" y="28"/>
      <point x="289" y="28" type="curve" smooth="yes"/>
    </contour>
    <contour>
      <point x="289" y="0" type="line"/>
      <point x="370" y="0"/>
      <point x="423" y="53"/>
      <point x="423" y="136" type="curve" smooth="yes"/>
      <point x="423" y="374" type="line" smooth="yes"/>
      <point x="423" y="457"/>
      <point x="370" y="510"/>
      <point x="289" y="510" type="curve" smooth="yes"/>
      <point x="204" y="510" type="line" smooth="yes"/>
      <point x="123" y="510"/>
      <point x="70" y="457"/>
      <point x="70" y="374" type="curve" smooth="yes"/>
      <point x="70" y="136" type="line" smooth="yes"/>
      <point x="70" y="53"/>
      <point x="123" y="0"/>
      <point x="204" y="0" type="curve" smooth="yes"/>
    </contour>
    <contour>
      <point x="321" y="703" type="line"/>
      <point x="314" y="703"/>
      <point x="309" y="700"/>
      <point x="306" y="694" type="curve" smooth="yes"/>
      <point x="238" y="583" type="line" smooth="yes"/>
      <point x="235" y="578"/>
      <point x="236" y="574"/>
      <point x="241" y="574" type="curve" smooth="yes"/>
      <point x="249" y="574" type="line" smooth="yes"/>
      <point x="254" y="574"/>
      <point x="259" y="577"/>
      <point x="263" y="582" type="curve" smooth="yes"/>
      <point x="355" y="694" type="line" smooth="yes"/>
      <point x="359" y="699"/>
      <point x="356" y="703"/>
      <point x="351" y="703" type="curve" smooth="yes"/>
    </contour>
  </outline>
</glyph>
<glyph name="otilde" format="1">
  <advance width="493"/>
  <unicode hex="00F5"/>
  <outline>
    <contour>
      <point x="204" y="28" type="line"/>
      <point x="137" y="28"/>
      <point x="100" y="69"/>
      <point x="100" y="137" type="curve" smooth="yes"/>
      <point x="100" y="373" type="line" smooth="yes"/>
      <point x="100" y="441"/>
      <point x="137" y="482"/>
      <point x="204" y="482" type="curve" smooth="yes"/>
      <point x="289" y="482" type="line" smooth="yes"/>
      <point x="356" y="482"/>
      <point x="393" y="441"/>
      <point x="393" y="373" type="curve" smooth="yes"/>
      <point x="393" y="137" type="line" smooth="yes"/>
      <point x="393" y="69"/>
      <point x="356" y="28"/>
      <point x="289" y="28" type="curve" smooth="yes"/>
    </contour>
    <contour>
      <point x="289" y="0" type="line"/>
      <point x="370" y="0"/>
      <point x="423" y="53"/>
      <point x="423" y="136" type="curve" smooth="yes"/>
      <point x="423" y="374" type="line" smooth="yes"/>
      <point x="423" y="457"/>
      <point x="370" y="510"/>
      <point x="289" y="510" type="curve" smooth="yes"/>
      <point x="204" y="510" type="line" smooth="yes"/>
      <point x="123" y="510"/>
      <point x="70" y="457"/>
      <point x="70" y="374" type="curve" smooth="yes"/>
      <point x="70" y="136" type="line" smooth="yes"/>
      <point x="70" y="53"/>
      <point x="123" y="0"/>
      <point x="204" y="0" type="curve" smooth="yes"/>
    </contour>
    <contour>
      <point x="143" y="655" type="line" smooth="yes"/>
      <point x="143" y="600"/>
      <point x="154" y="577"/>
      <point x="199" y="577" type="curve" smooth="yes"/>
      <point x="227" y="577"/>
      <point x="243" y="585"/>
      <point x="258" y="640" type="curve"/>
      <point x="269" y="674"/>
      <point x="271" y="685"/>
      <point x="293" y="685" type="curve" smooth="yes"/>
      <point x="320" y="685"/>
      <point x="326" y="670"/>
      <point x="326" y="627" type="curve" smooth="yes"/>
      <point x="326" y="586" type="line" smooth="yes"/>
      <point x="326" y="579"/>
      <point x="329" y="577"/>
      <point x="334" y="577" type="curve" smooth="yes"/>
      <point x="341" y="577" type="line" smooth="yes"/>
      <point x="346" y="577"/>
      <point x="349" y="579"/>
      <point x="349" y="586" type="curve" smooth="yes"/>
      <point x="349" y="628" type="line" smooth="yes"/>
      <point x="349" y="683"/>
      <point x="338" y="706"/>
      <point x="293" y="706" type="curve" smooth="yes"/>
      <point x="262" y="706"/>
      <point x="251" y="696"/>
      <point x="237" y="652" type="curve" smooth="yes"/>
      <point x="223" y="608"/>
      <point x="218" y="598"/>
      <point x="199" y="598" type="curve" smooth="yes"/>
      <point x="172" y="598"/>
      <point x="166" y="613"/>
      <point x="166" y="656" type="curve" smooth="yes"/>
      <point x="166" y="694" type="line" smooth="yes"/>
      <point x="166" y="701"/>
      <point x="163" y="703"/>
      <point x="158" y="703" type="curve" smooth="yes"/>
      <point x="151" y="703" type="line" smooth="yes"/>
      <point x="146" y="703"/>
      <point x="143" y="701"/>
      <point x="143" y="694" type="curve" smooth="yes"/>
    </contour>
  </outline>
</glyph>
<glyph name="oslash" format="1">
  <advance width="521"/>
  <unicode hex="00F8"/>
  <outline>
    <contour>
      <point x="487" y="461" type="line" smooth="yes"/>
      <point x="492" y="466"/>
      <point x="492" y="469"/>
      <point x="488" y="473" type="curve" smooth="yes"/>
      <point x="478" y="483" type="line" smooth="yes"/>
      <point x="475" y="486"/>
      <point x="471" y="487"/>
      <point x="466" y="482" type="curve" smooth="yes"/>
      <point x="33" y="49" type="line" smooth="yes"/>
      <point x="28" y="44"/>
      <point x="29" y="41"/>
      <point x="33" y="37" type="curve" smooth="yes"/>
      <point x="43" y="28" type="line"/>
      <point x="46" y="24"/>
      <point x="50" y="23"/>
      <point x="55" y="28" type="curve" smooth="yes"/>
    </contour>
    <contour>
      <point x="218" y="28" type="line"/>
      <point x="151" y="28"/>
      <point x="114" y="69"/>
      <point x="114" y="137" type="curve" smooth="yes"/>
      <point x="114" y="373" type="line" smooth="yes"/>
      <point x="114" y="441"/>
      <point x="151" y="482"/>
      <point x="218" y="482" type="curve" smooth="yes"/>
      <point x="303" y="482" type="line" smooth="yes"/>
      <point x="370" y="482"/>
      <point x="407" y="441"/>
      <point x="407" y="373" type="curve" smooth="yes"/>
      <point x="407" y="137" type="line" smooth="yes"/>
      <point x="407" y="69"/>
      <point x="370" y="28"/>
      <point x="303" y="28" type="curve" smooth="yes"/>
    </contour>
    <contour>
      <point x="303" y="0" type="line"/>
      <point x="384" y="0"/>
      <point x="437" y="53"/>
      <point x="437" y="136" type="curve" smooth="yes"/>
      <point x="437" y="374" type="line" smooth="yes"/>
      <point x="437" y="457"/>
      <point x="384" y="510"/>
      <point x="303" y="510" type="curve" smooth="yes"/>
      <point x="218" y="510" type="line" smooth="yes"/>
      <point x="137" y="510"/>
      <point x="84" y="457"/>
      <point x="84" y="374" type="curve" smooth="yes"/>
      <point x="84" y="136" type="line" smooth="yes"/>
      <point x="84" y="53"/>
      <point x="137" y="0"/>
      <point x="218" y="0" type="curve" smooth="yes"/>
    </contour>
  </outline>
</glyph>
<glyph name="ucircumflex" format="1">
  <advance width="503"/>
  <unicode hex="00FB"/>
  <outline>
    <contour>
      <point x="283" y="0" type="line" smooth="yes"/>
      <point x="346" y="0"/>
      <point x="375" y="26"/>
      <point x="389" y="52" type="curve"/>
      <point x="393" y="52" type="line"/>
      <point x="393" y="9" type="line" smooth="yes"/>
      <point x="393" y="2"/>
      <point x="396" y="0"/>
      <point x="401" y="0" type="curve" smooth="yes"/>
      <point x="415" y="0" type="line" smooth="yes"/>
      <point x="420" y="0"/>
      <point x="423" y="2"/>
      <point x="423" y="9" type="curve" smooth="yes"/>
      <point x="423" y="501" type="line" smooth="yes"/>
      <point x="423" y="508"/>
      <point x="420" y="510"/>
      <point x="415" y="510" type="curve" smooth="yes"/>
      <point x="401" y="510" type="line" smooth="yes"/>
      <point x="396" y="510"/>
      <point x="393" y="508"/>
      <point x="393" y="501" type="curve" smooth="yes"/>
      <point x="393" y="132" type="line" smooth="yes"/>
      <point x="393" y="63"/>
      <point x="346" y="28"/>
      <point x="281" y="28" type="curve" smooth="yes"/>
      <point x="209" y="28" type="line" smooth="yes"/>
      <point x="142" y="28"/>
      <point x="105" y="69"/>
      <point x="105" y="137" type="curve" smooth="yes"/>
      <point x="105" y="501" type="line" smooth="yes"/>
      <point x="105" y="508"/>
      <point x="102" y="510"/>
      <point x="97" y="510" type="curve" smooth="yes"/>
      <point x="83" y="510" type="line" smooth="yes"/>
      <point x="78" y="510"/>
      <point x="75" y="508"/>
      <point x="75" y="501" type="curve" smooth="yes"/>
      <point x="75" y="136" type="line" smooth="yes"/>
      <point x="75" y="53"/>
      <point x="128" y="0"/>
      <point x="209" y="0" type="curve" smooth="yes"/>
    </contour>
    <contour>
      <point x="273" y="694" type="line"/>
      <point x="268" y="701"/>
      <point x="263" y="703"/>
      <point x="254" y="703" type="curve" smooth="yes"/>
      <point x="254" y="703"/>
      <point x="244" y="703"/>
      <point x="244" y="703" type="curve"/>
      <point x="235" y="703"/>
      <point x="230" y="701"/>
      <point x="225" y="694" type="curve"/>
      <point x="161" y="585" type="line" smooth="yes"/>
      <point x="157" y="579"/>
      <point x="158" y="574"/>
      <point x="165" y="574" type="curve" smooth="yes"/>
      <point x="179" y="574" type="line" smooth="yes"/>
      <point x="185" y="574"/>
      <point x="188" y="575"/>
      <point x="190" y="579" type="curve" smooth="yes"/>
      <point x="249" y="684" type="line"/>
      <point x="308" y="579" type="line" smooth="yes"/>
      <point x="310" y="575"/>
      <point x="313" y="574"/>
      <point x="319" y="574" type="curve" smooth="yes"/>
      <point x="333" y="574" type="line" smooth="yes"/>
      <point x="340" y="574"/>
      <point x="341" y="579"/>
      <point x="337" y="585" type="curve" smooth="yes"/>
    </contour>
  </outline>
</glyph>
<glyph name="yacute" format="1">
  <advance width="456"/>
  <unicode hex="00FD"/>
  <outline>
    <contour>
      <point x="88" y="-147" type="line" smooth="yes"/>
      <point x="201" y="-147"/>
      <point x="226" y="-48"/>
      <point x="255" y="36" type="curve"/>
      <point x="425" y="501" type="line" smooth="yes"/>
      <point x="427" y="508"/>
      <point x="424" y="510"/>
      <point x="419" y="510" type="curve" smooth="yes"/>
      <point x="403" y="510" type="line" smooth="yes"/>
      <point x="398" y="510"/>
      <point x="395" y="508"/>
      <point x="393" y="501" type="curve" smooth="yes"/>
      <point x="230" y="56" type="line"/>
      <point x="226" y="56" type="line"/>
      <point x="63" y="501" type="line" smooth="yes"/>
      <point x="61" y="508"/>
      <point x="58" y="510"/>
      <point x="53" y="510" type="curve" smooth="yes"/>
      <point x="37" y="510" type="line" smooth="yes"/>
      <point x="32" y="510"/>
      <point x="29" y="508"/>
      <point x="31" y="501" type="curve" smooth="yes"/>
      <point x="201" y="36" type="line" smooth="yes"/>
      <point x="203" y="30"/>
      <point x="206" y="27"/>
      <point x="212" y="27" type="curve" smooth="yes"/>
      <point x="222" y="27" type="line"/>
      <point x="196" y="-39"/>
      <point x="176" y="-119"/>
      <point x="88" y="-119" type="curve" smooth="yes"/>
      <point x="59" y="-119" type="line" smooth="yes"/>
      <point x="52" y="-119"/>
      <point x="50" y="-122"/>
      <point x="50" y="-127" type="curve" smooth="yes"/>
      <point x="50" y="-139" type="line" smooth="yes"/>
      <point x="50" y="-144"/>
      <point x="52" y="-147"/>
      <point x="59" y="-147" type="curve" smooth="yes"/>
    </contour>
    <contour>
      <point x="305" y="703" type="line"/>
      <point x="298" y="703"/>
      <point x="293" y="700"/>
      <point x="290" y="694" type="curve" smooth="yes"/>
      <point x="222" y="583" type="line" smooth="yes"/>
      <point x="219" y="578"/>
      <point x="220" y="574"/>
      <point x="225" y="574" type="curve" smooth="yes"/>
      <point x="233" y="574" type="line" smooth="yes"/>
      <point x="238" y="574"/>
      <point x="243" y="577"/>
      <point x="247" y="582" type="curve" smooth="yes"/>
      <point x="339" y="694" type="line" smooth="yes"/>
      <point x="343" y="699"/>
      <point x="340" y="703"/>
      <point x="335" y="703" type="curve" smooth="yes"/>
    </contour>
  </outline>
</glyph>
<glyph name="thorn" format="1">
  <advance width="503"/>
  <unicode hex="00FE"/>
  <outline>
    <contour>
      <point x="119" y="52" type="line"/>
      <point x="133" y="26"/>
      <point x="162" y="0"/>
      <point x="225" y="0" type="curve" smooth="yes"/>
      <point x="299" y="0" type="line" smooth="yes"/>
      <point x="380" y="0"/>
      <point x="433" y="53"/>
      <point x="433" y="136" type="curve" smooth="yes"/>
      <point x="433" y="374" type="line" smooth="yes"/>
      <point x="433" y="457"/>
      <point x="380" y="510"/>
      <point x="299" y="510" type="curve" smooth="yes"/>
      <point x="225" y="510" type="line" smooth="yes"/>
      <point x="162" y="510"/>
      <point x="133" y="484"/>
      <point x="119" y="458" type="curve"/>
      <point x="115" y="458" type="line"/>
      <point x="115" y="694" type="line" smooth="yes"/>
      <point x="115" y="701"/>
      <point x="112" y="703"/>
      <point x="107" y="703" type="curve" smooth="yes"/>
      <point x="93" y="703" type="line" smooth="yes"/>
      <point x="88" y="703"/>
      <point x="85" y="701"/>
      <point x="85" y="694" type="curve" smooth="yes"/>
      <point x="85" y="-124" type="line" smooth="yes"/>
      <point x="85" y="-131"/>
      <point x="88" y="-133"/>
      <point x="93" y="-133" type="curve" smooth="yes"/>
      <point x="107" y="-133" type="line" smooth="yes"/>
      <point x="112" y="-133"/>
      <point x="115" y="-131"/>
      <point x="115" y="-124" type="curve" smooth="yes"/>
      <point x="115" y="52" type="line"/>
    </contour>
    <contour>
      <point x="227" y="28" type="line" smooth="yes"/>
      <point x="162" y="28"/>
      <point x="115" y="63"/>
      <point x="115" y="132" type="curve" smooth="yes"/>
      <point x="115" y="378" type="line" smooth="yes"/>
      <point x="115" y="447"/>
      <point x="162" y="482"/>
      <point x="227" y="482" type="curve" smooth="yes"/>
      <point x="299" y="482" type="line" smooth="yes"/>
      <point x="366" y="482"/>
      <point x="403" y="441"/>
      <point x="403" y="373" type="curve" smooth="yes"/>
      <point x="403" y="137" type="line" smooth="yes"/>
      <point x="403" y="69"/>
      <point x="366" y="28"/>
      <point x="299" y="28" type="curve" smooth="yes"/>
    </contour>
  </outline>
</glyph>
<glyph name="ydieresis" format="1">
  <advance width="456"/>
  <unicode hex="00FF"/>
  <outline>
    <contour>
      <point x="88" y="-147" type="line" smooth="yes"/>
      <point x="201" y="-147"/>
      <point x="226" y="-48"/>
      <point x="255" y="36" type="curve"/>
      <point x="425" y="501" type="line" smooth="yes"/>
      <point x="427" y="508"/>
      <point x="424" y="510"/>
      <point x="419" y="510" type="curve" smooth="yes"/>
      <point x="403" y="510" type="line" smooth="yes"/>
      <point x="398" y="510"/>
      <point x="395" y="508"/>
      <point x="393" y="501" type="curve" smooth="yes"/>
      <point x="230" y="56" type="line"/>
      <point x="226" y="56" type="line"/>
      <point x="63" y="501" type="line" smooth="yes"/>
      <point x="61" y="508"/>
      <point x="58" y="510"/>
      <point x="53" y="510" type="curve" smooth="yes"/>
      <point x="37" y="510" type="line" smooth="yes"/>
      <point x="32" y="510"/>
      <point x="29" y="508"/>
      <point x="31" y="501" type="curve" smooth="yes"/>
      <point x="201" y="36" type="line" smooth="yes"/>
      <point x="203" y="30"/>
      <point x="206" y="27"/>
      <point x="212" y="27" type="curve" smooth="yes"/>
      <point x="222" y="27" type="line"/>
      <point x="196" y="-39"/>
      <point x="176" y="-119"/>
      <point x="88" y="-119" type="curve" smooth="yes"/>
      <point x="59" y="-119" type="line" smooth="yes"/>
      <point x="52" y="-119"/>
      <point x="50" y="-122"/>
      <point x="50" y="-127" type="curve" smooth="yes"/>
      <point x="50" y="-139" type="line" smooth="yes"/>
      <point x="50" y="-144"/>
      <point x="52" y="-147"/>
      <point x="59" y="-147" type="curve" smooth="yes"/>
    </contour>
    <contour>
      <point x="291" y="583" type="line"/>
      <point x="291" y="576"/>
      <point x="294" y="574"/>
      <point x="299" y="574" type="curve" smooth="yes"/>
      <point x="313" y="574" type="line" smooth="yes"/>
      <point x="318" y="574"/>
      <point x="321" y="576"/>
      <point x="321" y="583" type="curve" smooth="yes"/>
      <point x="321" y="694" type="line" smooth="yes"/>
      <point x="321" y="701"/>
      <point x="318" y="703"/>
      <point x="313" y="703" type="curve" smooth="yes"/>
      <point x="299" y="703" type="line" smooth="yes"/>
      <point x="294" y="703"/>
      <point x="291" y="701"/>
      <point x="291" y="694" type="curve" smooth="yes"/>
    </contour>
    <contour>
      <point x="135" y="583" type="line"/>
      <point x="135" y="576"/>
      <point x="138" y="574"/>
      <point x="143" y="574" type="curve" smooth="yes"/>
      <point x="157" y="574" type="line" smooth="yes"/>
      <point x="162" y="574"/>
      <point x="165" y="576"/>
      <point x="165" y="583" type="curve" smooth="yes"/>
      <point x="165" y="694" type="line" smooth="yes"/>
      <point x="165" y="701"/>
      <point x="162" y="703"/>
      <point x="157" y="703" type="curve" smooth="yes"/>
      <point x="143" y="703" type="line" smooth="yes"/>
      <point x="138" y="703"/>
      <point x="135" y="701"/>
      <point x="135" y="694" type="curve" smooth="yes"/>
    </contour>
  </outline>
</glyph>
